<?xml version="1.0" encoding="UTF-8"?>
<!DOCTYPE svg PUBLIC "-//W3C//DTD SVG 1.1//EN" "http://www.w3.org/Graphics/SVG/1.1/DTD/svg11.dtd">
<!-- Creator: CorelDRAW 2018 (64-Bit) -->
<svg xmlns="http://www.w3.org/2000/svg" xml:space="preserve" width="0.213331in" height="0.213323in" version="1.1" shape-rendering="geometricPrecision" text-rendering="geometricPrecision" image-rendering="optimizeQuality" fill-rule="evenodd" clip-rule="evenodd"
viewBox="0 0 213.33 213.32"
 xmlns:xlink="http://www.w3.org/1999/xlink">
 <g id="Layer_x0020_1">
  <metadata id="CorelCorpID_0Corel-Layer"/>
  <path fill="#0B74A8" d="M106.67 -0c-58.91,0 -106.67,47.76 -106.67,106.67 0,58.91 47.76,106.67 106.67,106.67 58.91,0 106.67,-47.76 106.67,-106.67 0,-58.91 -47.76,-106.67 -106.67,-106.67z"/>
  <g id="_2414161812832">
   <path fill="#FEFEFE" d="M173.63 148.11l-0.84 1.95 -18.93 -8.22 0.85 -1.95c3.24,-7.45 4.87,-15.39 4.87,-23.6 0,-15.85 -6.17,-30.75 -17.38,-41.95 -6.76,-6.74 -14.99,-11.75 -23.91,-14.58l-0.88 16.62 -53.85 -28.97 5.44 -2.85 10.15 -5.38 41.36 -21.79 -1.11 21.24c14.14,3.46 27.04,10.74 37.42,21.11 15.11,15.12 23.42,35.2 23.4,56.55 0,11.06 -2.22,21.76 -6.6,31.81z"/>
   <path fill="#FEFEFE" d="M144.41 168.74l-51.57 27.19 1.11 -21.28c-14.13,-3.44 -27.04,-10.7 -37.43,-21.09 -15.09,-15.07 -23.41,-35.15 -23.41,-56.56 0,-11.04 2.22,-21.75 6.6,-31.83l0.84 -1.95 18.93 8.22 -0.84 1.95c-3.24,7.48 -4.88,15.43 -4.88,23.61 0,15.86 6.17,30.76 17.39,41.96 6.73,6.74 14.96,11.75 23.91,14.59l0.89 -16.63 53.83 28.98 -5.37 2.85z"/>
  </g>
 </g>
</svg>
