<?xml version="1.0" encoding="UTF-8"?>
<!DOCTYPE svg PUBLIC "-//W3C//DTD SVG 1.1//EN" "http://www.w3.org/Graphics/SVG/1.1/DTD/svg11.dtd">
<!-- Creator: CorelDRAW 2018 (64-Bit) -->
<svg xmlns="http://www.w3.org/2000/svg" xml:space="preserve" width="0.213331in" height="0.213331in" version="1.1" shape-rendering="geometricPrecision" text-rendering="geometricPrecision" image-rendering="optimizeQuality" fill-rule="evenodd" clip-rule="evenodd"
viewBox="0 0 213.33 213.33"
 xmlns:xlink="http://www.w3.org/1999/xlink"
 enable-background="new 0 0 100 100">
 <g id="Layer_x0020_1">
  <metadata id="CorelCorpID_0Corel-Layer"/>
  <g id="noun-world-globe-828978.svg">
   <g>
    <path fill="black" d="M151.98 103.6c-1.22,-7.26 -3.15,-13.8 -5.48,-19.63 -5.11,1.72 -10.94,3.1 -17.29,4.06 0.94,6.07 1.59,12.83 1.77,20.28 7.69,-1.08 14.78,-2.68 21,-4.71z"/>
    <path fill="black" d="M146.61 60.26c-0.1,-0.4 0.29,-0.52 0.38,-0.64 0.11,-0.15 0.22,0.22 0.44,0.36 0.22,0.15 0.4,0.03 0.55,0 0.37,-0.07 0.22,0.15 0.22,0.15l0.47 0.26c0,0 0,0 0.33,0.55 0.33,0.54 0.22,0.25 0.37,0.44 0.15,0.18 0,0 0.51,0.44 0.51,0.44 0,0 0.19,0.07 0.18,0.07 0.36,0.19 0.84,0.41 0.47,0.22 0.44,0.18 0.83,0.29 0.39,0.11 0.48,0.22 0.81,0.44 0.33,0.22 0.33,0.07 0.51,0.11 0.19,0.04 0.33,0.11 0.62,0.22 0.29,0.11 0.48,0.26 0.8,0.62 0.33,0.37 0.22,0.22 0.33,0.7 0.11,0.47 0.07,0.54 0,0.69 -0.07,0.15 -0.36,0.4 -0.36,0.4 0,0 -0.04,0.22 -0.22,0.69 -0.18,0.47 0,0 -0.22,0.58 -0.22,0.58 0.11,0.36 0,0.69 -0.1,0.31 -0.37,0.54 -0.67,0.72 1.41,1.96 2.78,4.07 4.09,6.32 0.23,-0.12 0.48,-0.26 0.77,-0.45 1.36,-0.93 1.58,-0.88 1.86,-1.26 0.28,-0.39 0.11,-1.15 -0.44,-1.59 -0.55,-0.44 -2.57,-0.93 -3.61,-1.15 -1.04,-0.22 -0.82,-0.11 -1.26,-0.65 -0.44,-0.55 0.27,-0.88 0.72,-1.81 0.45,-0.93 -0.18,-1.64 -0.02,-2.73 0.16,-1.09 -0.98,-2.13 -0.98,-3.77 0,-1.64 -0.11,-0.76 -0.6,-2.02 -0.49,-1.26 -0.33,-0.93 -1.48,-1.64 -1.14,-0.71 -1.09,-1.04 -2.07,-0.77 -0.85,0.24 -0.89,0.35 -1.13,0.13 -0.88,0.91 -1.94,1.77 -3.15,2.6 0.19,0.2 0.38,0.41 0.57,0.61z"/>
    <path fill="black" d="M135.81 64.41c-3.48,1.14 -7.37,2.07 -11.58,2.76 0.4,1.19 0.78,2.4 1.16,3.66 0.79,2.67 1.56,5.59 2.25,8.74 0.05,0.09 0.07,0.16 0.05,0.22 0.51,2.31 0.97,4.76 1.39,7.33 6.25,-0.96 12.03,-2.33 17.08,-4.04 -2.5,-6.07 -5.42,-11.35 -8.38,-15.85 -0.64,-0.98 -1.3,-1.91 -1.96,-2.83z"/>
    <path fill="black" d="M107.7 167.15c-0.46,-3.72 -0.84,-7.85 -1.15,-12.29 -7.85,-0.05 -15.48,-0.63 -22.64,-1.67 1.28,4.43 3.06,8.63 5.4,12.52 5.65,0.85 11.84,1.41 18.39,1.44z"/>
    <path fill="black" d="M111.71 167.07c1.18,-5.08 1.36,-4.89 1.98,-5.67 0.37,-0.47 0.85,-3.79 1.16,-6.67 -2.33,0.09 -4.69,0.15 -7.07,0.15 -0.12,0 -0.24,-0 -0.35,-0 0.3,4.43 0.69,8.55 1.15,12.26 1.04,-0.01 2.09,-0.04 3.13,-0.07z"/>
    <path fill="black" d="M149.88 149.28c-2.92,0.88 -5.99,1.66 -9.21,2.35 -1.97,0.78 -4.22,1.7 -4.46,2.19 -0.38,0.77 -0.66,0.49 -0.55,1.37 0.11,0.88 1.97,0.44 -0.22,1.75 -2.19,1.31 -2.02,1.15 -2.68,2.07 -0.66,0.93 -0.49,0.77 -1.15,1.42 -0.65,0.66 -0.22,0.33 -0.98,0.93 -0.76,0.6 -0.22,0.28 -0.76,0.6 -0.55,0.33 -0.55,0.17 -1.2,0.33 -0.66,0.17 -0.71,0.22 -1.26,0.22 -0.55,0 -0.33,0.33 -0.99,-0.11 -0.65,-0.44 -0.11,-1.26 -0.76,-0.71 -0.65,0.55 1.97,1.75 1.2,2.41 -0.76,0.66 -0.6,0.66 -1.2,0.87 -0.6,0.22 -0.76,0.49 -1.2,0.55 -0.17,0.02 -0.4,0.06 -0.63,0.09 -0.04,0.16 -0.08,0.32 -0.12,0.49 7.48,-1 15.13,-2.7 22.87,-5.08 1.31,-4.02 2.4,-7.94 3.3,-11.74z"/>
    <path fill="black" d="M152.12 104.44c-6.26,2.04 -13.4,3.65 -21.12,4.74 0.1,4.97 -0.03,10.25 -0.41,15.82 0.11,0.01 0.22,0 0.31,0 0.33,0 4.59,-0.27 5.3,3.06 0.54,0.98 0.49,1.69 0.49,1.69l-0.98 0.88c0,0 0.87,-0.5 1.8,-0.11 0.93,0.38 1.53,0.44 1.91,0.49 0.37,0.05 0.39,0.01 1.06,0.21 4.51,-0.91 8.75,-2.02 12.65,-3.28 0.55,-8.53 0.12,-16.37 -1.01,-23.51z"/>
    <path fill="black" d="M107.71 70.64c-0.28,-0.76 -0.22,-0.87 -0.56,-1.05 -0.04,1.03 -0.07,2.09 -0.11,3.15 0.41,-0.17 0.76,-0.38 0.67,-0.78 -0.14,-0.6 0.3,-0.5 0,-1.31z"/>
    <path fill="black" d="M106.74 129.33c0.29,-0.11 0.24,-3.72 0.24,-3.72l-0.55 -0.27c0,0 -0.02,-0.07 -0.05,-0.17 0.02,1.48 0.04,2.95 0.06,4.41 0.08,-0.09 0.15,-0.2 0.3,-0.26z"/>
    <path fill="black" d="M153.07 128.87c-3.26,1.04 -6.74,1.97 -10.41,2.78 0.15,0.44 -0.62,0.37 0.33,0.46 1.04,0.11 0.22,-0.22 1.75,-0.11 1.53,0.11 1.04,-0.49 2.46,-0.22 1.42,0.28 1.7,0.33 2.3,0.88 0.6,0.54 0.87,0.1 1.31,0.54 0.44,0.44 0.54,1.04 0.44,1.69 -0.11,0.65 -0.38,1.37 -0.93,1.97 -0.55,0.6 -0.55,0.38 -1.26,1.48 -0.71,1.09 -1.53,1.48 -2.13,2.62 -0.6,1.15 -0.27,3.55 -0.22,3.94 0.06,0.38 0,0.16 -0.17,0.76 -0.16,0.6 -0.76,1.31 -0.93,1.7 -0.16,0.38 -0.65,0.65 -1.47,1.91 -0.28,0.41 -0.29,0.61 -0.24,0.71 2.15,-0.52 4.22,-1.09 6.22,-1.7 1.57,-6.83 2.52,-13.3 2.96,-19.42z"/>
    <path fill="black" d="M123.64 63.26c-0.59,-0.22 -0.65,-0.37 -1.06,-0.72 0.46,1.22 0.92,2.49 1.37,3.8 4.13,-0.65 7.95,-1.56 11.36,-2.65 -2.3,-3.18 -4.67,-6.02 -7.02,-8.59 -0.14,0.12 -0.31,0.25 -0.47,0.62 -0.4,0.91 0,1.06 0,1.75 0,0.69 -0.47,0.58 -0.91,0.98 -0.44,0.4 -0.7,0.36 -0.19,1.28 0.51,0.91 1.06,2.95 1.2,3.75 0.15,0.8 0,0.4 0,1.09 0,0.69 0,0.25 -0.26,0.43 -0.25,0.19 -0.36,0.07 -0.69,0 -0.33,-0.07 -0.58,-0.65 -1.2,-0.65 -0.62,0 -0.91,0.04 -1.31,-0.29 -0.4,-0.33 -0.14,-0.55 -0.83,-0.81z"/>
    <path fill="black" d="M97.02 68.29c0.06,0.54 0.11,0.87 0.44,0.98 0.33,0.11 0.71,0.33 1.2,0.6 0.49,0.27 0.87,0.38 1.26,0.82 0.39,0.44 -0.22,0.55 0.49,0.88 0.71,0.33 0.77,0.27 1.31,0.43 0.55,0.17 0.71,0 1.26,0.39 0.55,0.39 0.77,0.33 0.82,1.04 0.06,0.71 -0.16,0.71 -0.05,1.42 0.11,0.71 0.43,1.75 0.76,1.8 0.33,0.06 0.55,0.33 0.98,-0.22 0.44,-0.55 0.44,-0.06 0.5,-1.04 0.05,-0.98 -0.33,-0.71 -0.22,-1.36 0.08,-0.49 0.13,-0.68 0.38,-0.86 0.05,-1.61 0.11,-3.19 0.16,-4.74 -3.24,-0.04 -6.4,-0.22 -9.43,-0.53 0.07,0.09 0.13,0.21 0.14,0.39z"/>
    <path fill="black" d="M103.48 140.54c-0.5,-0.17 -0.93,-0.6 -0.93,-0.93 0,-0.33 -0.22,-1.31 0,-1.58 0.22,-0.28 0.54,-1.09 0.76,-1.15 0.22,-0.05 0.22,0.38 0.22,-0.05 0,-0.44 -0.44,-0.88 -0.44,-1.04 0,-0.06 0,-0.32 0.02,-0.63 -7.71,-0.2 -15.12,-0.86 -22.01,-1.94 0.13,6.57 0.9,13.02 2.55,19.08 7.21,1.07 14.92,1.66 22.85,1.72 -0.26,-3.85 -0.46,-7.92 -0.61,-12.14 -0.79,-0.53 -2.06,-1.21 -2.41,-1.33z"/>
    <path fill="black" d="M99.32 56.87c0.16,-0.27 0.22,0.11 0.16,-0.27 -0.02,-0.15 -0.1,-0.22 -0.19,-0.3 -0.17,0.4 -0.34,0.81 -0.51,1.22 0.31,-0.26 0.37,-0.37 0.54,-0.65z"/>
    <path fill="black" d="M92.98 112.12c0.6,-1.04 0.49,-1.26 0.93,-1.48 0.33,-0.17 0.13,-0.24 0.49,-0.41 -3,-0.24 -5.94,-0.55 -8.8,-0.93 0.13,0.19 0.3,0.38 0.49,0.57 0.44,0.44 0.6,0.65 0.82,1.2 0.22,0.55 -0.38,0.06 0.22,0.55 0.6,0.49 1.54,0.6 1.81,0.71 0.27,0.11 0.44,0.17 0.87,0.22 0.44,0.05 0.88,0.05 1.59,0.05 0.71,0 1.04,-0.05 1.31,-0.27 0.27,-0.22 -0.33,0.82 0.27,-0.22z"/>
    <path fill="black" d="M100.2 120.7c0.11,0.17 0.05,0.27 0.22,0.49 0.16,0.22 0.49,0.71 0.49,0.71 0,0 0.33,0.28 0.54,0.49 0.22,0.22 0.98,0.66 1.37,0.71 0.38,0.06 0.71,0.11 1.26,0 0.27,-0.05 0.85,-0.33 1.4,-0.56 -0.03,-3.91 -0.04,-7.85 -0.02,-11.8 -2.95,-0.04 -5.87,-0.15 -8.73,-0.34 -0.01,0.04 -0.02,0.08 -0.03,0.13 -0.06,0.28 -0.17,0.39 -0.33,0.77 -0.17,0.38 -0.11,0.33 -0.28,0.71 -0.17,0.39 -0.33,0.65 -0.44,0.98 -0.11,0.33 -0.27,0.82 -0.33,1.09 -0.06,0.27 -0.71,1.59 -0.17,1.59 0.55,0 3.01,0 3.44,0.11 0.44,0.11 1.92,2.07 1.97,2.29 0.06,0.22 -0.33,0.55 -0.33,0.93 0,0.38 -0.17,1.53 -0.05,1.69z"/>
    <path fill="black" d="M99.43 79.71c-0.33,-0.19 -0.33,-0.19 -0.33,-0.19 -0.88,0.57 -1.53,1.06 -1.75,1.06 -0.22,0 -1.91,0.55 -1.91,0.55 0,0 0,0.16 0.49,0.27 0.49,0.11 0.17,0.06 0.77,0 0.6,-0.06 -0.06,-0.11 0.6,-0.06 0.65,0.06 0.6,0.33 0.93,0.44 0.33,0.11 0.33,0.49 0.88,0.54 0.54,0.06 -1.31,0.33 0.54,0.06 1.86,-0.28 1.75,0 1.86,-0.28 0.11,-0.27 -1.31,-1.2 -1.58,-1.64 -0.28,-0.44 -0.6,-0.44 -0.55,-0.6 0.06,-0.17 0.38,0.02 0.06,-0.17z"/>
    <path fill="black" d="M147.59 160.7c0.63,-0.2 1.26,-0.39 1.89,-0.59 5.91,-4.74 11.02,-10.43 15.1,-16.85 -3.93,2.19 -8.57,4.09 -13.72,5.71 -0.89,3.8 -1.98,7.71 -3.26,11.73z"/>
    <path fill="black" d="M106.8 55.37c-0.02,0.01 -0.05,0 -0.06,0.02 -0.15,0.22 -0.31,0.11 -0.64,0.28 -0.33,0.16 -0.44,-0.17 -0.6,0.22 -0.16,0.38 -0.16,0.65 -0.16,0.65 0,0 0,0.17 0.05,0.49 0.06,0.33 -0.16,0.39 -0.11,0.77 0.06,0.38 0.38,0.33 0.27,0.87 -0.11,0.54 -0.16,0.6 -0.44,0.82 -0.27,0.22 -0.6,0.39 -1.09,0.66 -0.49,0.27 -0.82,0.27 -0.98,0.27 -0.16,0 -0.33,-0.49 -0.55,-0.11 -0.22,0.38 -0.22,0.38 -0.22,0.38 0,0 0.16,0.28 -0.55,0.28 -0.71,0 -0.33,-0.16 -0.28,0.44 0.06,0.6 0.71,0.28 0.06,0.6 -0.65,0.33 0,0 -0.65,0.33 -0.65,0.33 -1.09,0.06 -1.37,0.66 -0.28,0.6 -0.17,0.54 -0.6,0.65 -0.44,0.11 0.05,-0.49 -1.09,0.38 -1.15,0.87 -1.31,0.66 -1.48,1.26 -0.16,0.6 -0.44,0.93 -0.44,1.48 0,0.08 0.01,0.11 0.01,0.17 3.34,0.37 6.84,0.59 10.45,0.64 0.15,-4.44 0.31,-8.54 0.46,-12.19zm-2.02 8.16c-0.06,0.49 0,0 -0.6,0.55 -0.6,0.54 0,0 -0.82,0.38 -0.82,0.38 -0.28,0.11 -0.49,0 -0.22,-0.11 0.22,-0.44 0,-0.66 -0.22,-0.22 -0.5,-0.11 -0.94,-0.65 -0.45,-0.55 0.06,-0.28 0,-0.6 -0.07,-0.33 0.28,-0.17 0.34,-0.49 0.06,-0.33 0.6,-0.65 0.6,-0.65 0,0 0,0 0.49,0 0.49,0 0.39,0.27 0.66,0.6 0.28,0.33 0.38,0.38 0.77,0.77 0.39,0.38 0.06,0.27 0,0.76z"/>
    <path fill="black" d="M169.85 133.24c2.09,-4.96 3.61,-10.21 4.5,-15.67 -1.27,1.21 -2.74,2.38 -4.38,3.49 0.14,3.88 0.11,7.93 -0.12,12.18z"/>
    <path fill="black" d="M174.57 111.57c-0.77,0.98 -1.64,2.13 -3.17,3.06 -1.31,0.79 -0.76,0.24 -1.85,-0.29 0.17,1.85 0.29,3.75 0.37,5.69 1.78,-1.25 3.32,-2.56 4.63,-3.92 0.24,-1.74 0.42,-3.5 0.53,-5.27 -0.15,0.23 -0.32,0.47 -0.52,0.72z"/>
    <path fill="black" d="M146.92 161.83c-0,0 -0,-0 -0.01,-0 -7.94,2.44 -15.78,4.19 -23.45,5.19 -0.56,2.13 -1.17,4.29 -1.8,6.47 9.51,-2.12 18.29,-6.22 25.87,-11.85 -0.12,0.03 -0.24,0.07 -0.35,0.11 -0.07,0.06 -0.17,0.09 -0.26,0.09z"/>
    <path fill="black" d="M153.97 128.57c-0.43,6.12 -1.36,12.59 -2.91,19.42 5.56,-1.78 10.46,-3.91 14.51,-6.35 1.19,-1.99 2.28,-4.05 3.26,-6.16 0.3,-4.37 0.42,-9.02 0.26,-13.86 -4.11,2.65 -9.24,4.99 -15.13,6.94z"/>
    <path fill="black" d="M121.27 167.25c-0.17,0.4 -0.41,0.75 -0.74,0.78 -0.76,0.06 -1.15,-0.39 -1.48,-0.22 -0.32,0.17 -0.76,0.33 -0.76,0.66 0,0.33 -0.16,0.87 -0.28,1.09 -0.11,0.22 -0.44,0.38 -0.71,0.49 -0.28,0.11 -0.6,0 -0.66,0.22 -0.05,0.22 -0.28,0.82 -0.28,0.82 0,0 0.11,0.06 0,0.38 -0.11,0.33 -0.44,0.55 -0.65,0.87 -0.22,0.33 -0.87,0.99 -0.87,0.99 0,0 -0.22,0.22 -0.38,0.49 -0.17,0.27 -0.17,0.33 -0.44,0.48 -0.27,0.17 -1.31,0.17 -1.47,0.33 -0.17,0.17 -1.04,0.28 -1.04,0.28 0,0 -1.37,-0.93 0,-6.94 0,-0.01 0,-0.02 0,-0.02 -0.94,0.03 -1.88,0.06 -2.82,0.06 0.34,2.57 0.72,4.94 1.15,7.05 3.7,-0.17 7.32,-0.62 10.85,-1.35 0.65,-2.23 1.27,-4.43 1.84,-6.59 -0.41,0.05 -0.83,0.09 -1.26,0.13z"/>
    <path fill="black" d="M162.49 82.93c0.11,-0.16 2.41,-2.02 2.52,-2.19 0.11,-0.17 0.6,-1.8 0.6,-1.8 0,0 1.2,-1.47 1.42,-1.75 0.22,-0.28 1.48,0.49 1.48,0.49l0.28 0.02c-0.93,-2 -1.96,-3.94 -3.08,-5.83 -0.78,1.15 -1.75,2.27 -2.91,3.35 0.11,0.68 0.28,0.91 0.36,1.44 0.11,0.71 0.65,1.2 0.93,2.13 0.27,0.93 0.49,1.31 0,1.91 -0.49,0.6 -0.98,0.82 -1.15,0.69 -0.17,-0.13 -1.15,-0.03 -1.86,-0.09 -0.08,-0.01 -0.15,0 -0.21,0 0.43,0.92 0.86,1.87 1.27,2.83 0.07,-0.57 0.26,-1.05 0.36,-1.2z"/>
    <path fill="black" d="M162.7 74.06c0.95,-0.93 1.75,-1.89 2.39,-2.87 -0.49,-0.28 -1.42,-0.75 -2.11,-0.72 -0.98,0.06 -0.98,1.2 -0.76,1.7 0.2,0.46 0.41,0.65 0.48,1.89z"/>
    <path fill="black" d="M169.07 120.63c-0.09,-2.17 -0.24,-4.38 -0.45,-6.61 -1.81,-0.5 -1.44,-0.79 -1.92,-1.42 -0.49,-0.65 -0.44,-1.15 -0.76,-1.58 -0.33,-0.43 -1.04,-1.75 -1.37,-1.96 -0.33,-0.22 -0.33,-1.04 -0.28,-2.41 0.06,-1.37 0.06,-1.26 -1.42,-3.01 -0.6,-0.7 -0.9,-1.83 -1.06,-3.04 -2.69,1.3 -5.64,2.49 -8.85,3.57 1.15,7.14 1.59,14.97 1.07,23.49 5.9,-1.98 11,-4.35 15.04,-7.03z"/>
    <path fill="black" d="M88.19 165.54c-2.27,-3.89 -3.99,-8.08 -5.23,-12.48 -6.62,-1 -12.83,-2.39 -18.39,-4.14 2.02,4.59 4.67,8.99 7.95,13.19 4.45,1.25 9.74,2.49 15.68,3.43z"/>
    <path fill="black" d="M105.08 39.4c-2.74,1.36 -7.55,3.9 -13.29,7.57 0.7,0.24 1.43,0.47 2.2,0.69 -0,-0.05 -0.01,-0.09 -0.02,-0.17 -0.06,-0.37 0.54,0 0.54,0 0,0 0.38,-0.4 0.49,-0.56 0.11,-0.16 0.49,-0.05 1.42,-0.71 0.93,-0.65 0.55,0.11 0.61,0l0.87 -0.06 0 0.6c0,0 0,0 -0.77,0.33 -0.76,0.33 0,0 -0.49,0.39 -0.49,0.39 -0.27,0.04 -0.87,0.54 -0.04,0.03 -0.06,0.04 -0.09,0.06 0.29,0.07 0.57,0.14 0.87,0.2 3.64,-4.03 6.66,-7.07 8.52,-8.88z"/>
    <path fill="black" d="M100.92 52.52c-0.04,0.09 -0.08,0.19 -0.12,0.28l0 0.51 0.11 0.71c0,0 0,0.38 0,0.54 0,0.17 -0.33,0.66 -0.33,0.66 0,0 -0.22,0.33 -0.11,0.49 0.11,0.16 0.66,0.49 0.66,0.49 0,0 -0.06,0.11 0.11,0.38 0.17,0.28 0.44,0.06 0.65,-0.06 0.22,-0.11 0.17,0.28 0.22,0.44 0.06,0.16 -0.06,1.37 -0.06,1.37 0,0 -0.17,0.22 0.28,0.06 0.44,-0.17 0.33,-0.06 0.65,-0.55 0.33,-0.49 0.49,-0.6 0.55,-1.09 0.05,-0.5 0.27,-0.33 0,-0.88 -0.28,-0.55 -0.71,-0.71 -0.82,-0.98 -0.11,-0.28 0,0.28 -0.11,-0.28 -0.11,-0.54 -0.87,0.39 -0.27,-0.98 0.6,-1.37 0.17,-1.09 0.6,-1.37 0.44,-0.27 1.31,-0.93 1.96,-0.93 0.65,0 1.5,0.06 1.84,0.28 0.07,0.05 0.14,0.09 0.22,0.15 0.03,-0.52 0.04,-1.02 0.06,-1.52 -0.27,-0 -0.54,-0.01 -0.82,-0.02 -0.01,0.08 -0.11,0.63 -0.31,0.63 -0.22,0 -1.48,-0.06 -1.7,-0.06 -0.22,0 -1.59,-0.06 -1.59,-0.06l-0.33 0.49 -0.16 0.71 -0.82 0.33 -0.37 0.24z"/>
    <path fill="black" d="M103.75 46.76c0.01,-0.11 -0.03,-0.22 -0.07,-0.34 -0.28,0.6 -0.56,1.22 -0.86,1.87 0.13,0.07 0.24,0.15 0.28,0.22 0.11,0.16 1.26,-0.5 1.26,-0.5 0,0 0,-0.54 -0.16,-0.57 -0.16,-0.03 -0.5,-0.19 -0.44,-0.69z"/>
    <path fill="black" d="M84.31 52.06c0.71,0 1.03,0.05 1.29,0 0.28,-0.06 0.49,-0.22 0.88,-0.22 0.38,0 0.82,0 0.82,0 0,0 0.55,-0.11 0.55,0.44 0,0.55 0.11,1.2 0.11,1.2 0,0 0.43,0.11 0.52,0.28 0.08,0.17 0.69,0.77 0.69,0.77l0.38 0.49c0,0 0.06,0.22 0.06,0.39 0,0.16 -0.49,0.49 -0.49,0.49 0,0 0,0.39 0.17,0.5 0.09,0.06 0.15,0.07 0.27,0.06 0.32,-0.39 0.63,-0.76 0.94,-1.14 -0.47,-0.43 -0.24,-0.35 -0.39,-0.67 -0.17,-0.33 0.05,-0.76 0,-0.93 -0.06,-0.16 0.65,-0.71 0.6,-0.93 -0.05,-0.22 -0.05,-0.44 -0.05,-0.44 0,0 -0.33,-0.38 -0.71,-0.55 -0.39,-0.17 -0.49,0.11 -0.82,0 -0.32,-0.12 0.33,-0.43 0.44,-0.59 0.11,-0.17 0.33,-0.17 0.71,-0.66 0.39,-0.49 0.49,-0.44 1.09,-0.93 0.6,-0.49 1.58,-0.49 2.07,-0.6 0,0 0.65,-0.06 0.87,0 0.22,0.06 -0.05,0.54 -0.38,1.15 -0.33,0.6 0,0 0,0.71 0,0.16 0.04,0.24 0.09,0.29 0.41,-0.48 0.81,-0.92 1.21,-1.37 -0.02,0 -0.03,-0 -0.05,-0.01 -0.71,-0.11 0,0 0.28,-0.38 0.13,-0.19 0.17,-0.27 0.25,-0.35 -1.78,-0.39 -3.41,-0.88 -4.89,-1.43 -2.07,1.34 -4.25,2.83 -6.49,4.46z"/>
    <path fill="black" d="M82.71 152.14c-1.62,-6.07 -2.37,-12.52 -2.5,-19.07 -7.5,-1.22 -14.37,-2.94 -20.37,-5.06 0.24,6.94 1.65,13.57 4.25,19.84 5.6,1.8 11.88,3.24 18.62,4.29z"/>
    <path fill="black" d="M73.43 163.27c1.39,1.7 2.89,3.37 4.49,5 0.14,0.14 0.13,0.35 0.04,0.52 5.21,2.42 10.77,4.2 16.59,5.25 -2.22,-2.33 -4.13,-4.85 -5.77,-7.52 -5.75,-0.89 -10.94,-2.05 -15.35,-3.25z"/>
    <path fill="black" d="M106.74 49.11c-0.42,0.05 -0.91,-0.06 -0.91,-0.06 0,0 -0.93,-0.33 -1.2,-0.17 -0.26,0.15 -1.38,0.02 -1.18,0.33 1.18,0.09 2.39,0.14 3.61,0.15 0.01,-0.16 0.02,-0.31 0.02,-0.47 -0.03,0.09 -0.06,0.18 -0.08,0.23 -0.02,-0.03 -0.07,-0.05 -0.26,-0.02z"/>
    <path fill="black" d="M89.91 166.69c1.74,2.72 3.78,5.27 6.15,7.61 3.48,0.55 7.05,0.84 10.68,0.84 0.74,0 1.48,-0.03 2.22,-0.05 -0.42,-2.13 -0.8,-4.49 -1.13,-7.07 -6.36,-0.01 -12.38,-0.54 -17.91,-1.33z"/>
    <path fill="black" d="M79.84 47.5c0.14,0.04 0.22,0.08 0.35,0.02 0.28,-0.11 0.28,0 0.61,-0.06 0.33,-0.06 0.43,-0.06 0.54,0.28 0.11,0.33 0.49,0.71 0.71,1.09 0.22,0.38 0.16,0.38 0.28,0.76 0.11,0.38 0.16,0.76 0.33,1.04 0.17,0.27 0.28,0.65 0.39,0.98 0.03,0.09 0.02,0.19 0.02,0.28 2.33,-1.71 4.59,-3.26 6.74,-4.68 -1.69,-0.71 -3.12,-1.51 -4.25,-2.4 -1.85,0.81 -3.76,1.7 -5.72,2.69z"/>
    <path fill="black" d="M115.11 150.37c-0.22,-0.66 -2.3,-1.15 -3.01,-1.2 -0.71,-0.06 -2.07,-0.6 -2.35,-1.04 -0.28,-0.44 -0.71,-0.82 -0.82,-1.09 -0.11,-0.28 -0.38,-0.22 -0.54,-0.66 -0.16,-0.44 -0.88,-0.55 -0.68,-0.87 0.19,-0.33 0.23,-0.98 -0.03,-1.31 -0.2,-0.24 -0.57,-0.89 -0.89,-1.39 0.15,3.89 0.34,7.65 0.58,11.21 0.14,0 0.28,0 0.41,0 2.41,0 4.8,-0.06 7.16,-0.16 0.17,-1.79 0.25,-3.24 0.17,-3.48z"/>
    <path fill="black" d="M69.93 64.11c-4.08,3.98 -8.22,8.63 -11.96,13.91 2.77,1.7 6.08,3.25 9.85,4.6 0.51,-0.9 0.59,-1.19 0.95,-1.7 0.39,-0.55 0.99,-1.37 1.26,-1.91 0.27,-0.55 0.76,-2.46 0.93,-2.84 0.16,-0.38 -0.11,-0.98 -0.06,-1.2 0.06,-0.22 0.06,-0.49 0,-0.77 -0.06,-0.28 -0.65,-1.09 -0.54,-1.47 0.11,-0.39 0.16,-0.88 0.33,-1.04 0.16,-0.16 -0.22,0.16 0.16,-0.16 0.38,-0.33 0.22,-1.43 0.22,-1.43 0,0 0.11,-0.38 0.27,-0.71 0.17,-0.33 0.44,-1.26 0.44,-1.26l0.16 -0.82c0,0 -0.33,-0.17 -0.16,-0.82 0.16,-0.65 -0.06,-0.98 0.16,-1.2 0.22,-0.22 0.22,-1.53 0.38,-1.75 0.17,-0.22 0.22,-0.49 0.28,-0.71 0.05,-0.22 -0.11,-0.7 -0.22,-1.02 -0.82,0.75 -1.64,1.52 -2.46,2.31z"/>
    <path fill="black" d="M64.49 160.5c3.74,2.94 7.79,5.51 12.1,7.63 -1.65,-1.71 -3.17,-3.47 -4.58,-5.26 -2.89,-0.81 -5.43,-1.63 -7.52,-2.37z"/>
    <path fill="black" d="M72.22 97.31c0.44,-0.65 0.4,-1.75 -0.05,-1.97 -0.44,-0.22 -1.21,0 -1.21,0l0.44 1.48c0,0 -0.06,0.6 0.06,0.82 0.11,0.22 0.11,0.44 0.16,0.6 0.05,0.16 0.33,1.09 0.33,1.09l0.17 0.93c0,0 0.28,1.2 0.38,1.37 0.11,0.16 0.11,0.93 0.11,0.93 0,0 0.11,0.66 0.38,0.87 0.28,0.22 0.38,0.49 0.38,0.49 0,0 0,0.33 0,0.49 0,0.16 -0.11,0.87 -0.11,0.87l-0.28 0c0,0 -0.49,-0.27 -0.49,-0.43 0,-0.17 -0.6,-1.04 -0.6,-1.26 0,-0.22 -0.17,-0.22 -0.22,-0.65 -0.05,-0.44 -0.22,-1.7 -0.16,-1.86 0.05,-0.17 -0.22,-0.33 -0.55,-0.49 -0.33,-0.16 -0.87,-0.55 -0.87,-0.55 0,0 0.11,-0.27 0,-0.49 -0.11,-0.22 0,-0.49 0,-0.49 0,0 -0.26,-0.11 -0.05,-0.33 0.21,-0.22 0.16,-0.71 0.21,-0.98 0.05,-0.28 0,-0.66 0,-0.66 0,0 -0.71,-0.33 -0.82,-0.87 -0.11,-0.55 -0.11,-3.55 -0.6,-4.1 -0.38,-0.42 -0.44,-0.52 -0.65,-0.67 -1.8,3.93 -3.39,7.96 -4.69,12.09 4.19,1.37 8.77,2.55 13.67,3.51 -0.02,-0.06 -0.01,-0.12 -0.03,-0.18 -0.28,-0.81 -2.13,-3.82 -2.13,-4.21 0,-0.38 -0.6,-0.49 -0.55,-0.87 0.06,-0.38 0,-0.99 0,-0.99 0,0 -2.68,-2.84 -2.24,-3.5z"/>
    <path fill="black" d="M86.53 104.19c-0.6,0.44 -0.76,0.33 -0.87,0.6 -0.11,0.28 -0.44,0.22 -0.33,0.76 0.11,0.55 0,0.88 0,1.43 0,0.54 0,1.15 0,1.31 0,0.07 0,0.08 0,0.1 3.59,0.49 7.31,0.87 11.12,1.12 0,0 0.01,0 0.01,0 2.6,0.17 5.24,0.29 7.92,0.34 -0.19,-0.1 -0.36,-0.2 -0.42,-0.3 -0.17,-0.28 -0.28,0 -0.28,0 0,0 -0.6,-0.55 -0.98,-0.76 -0.38,-0.22 -0.98,0.16 -1.42,0 -0.44,-0.16 -0.38,0.38 -0.71,0.49 -0.33,0.11 -0.33,0.28 -0.65,0.28 -0.33,0 -0.55,0 -0.55,0 0,0 0.22,-0.49 0.39,-0.89 0.16,-0.39 1.37,-0.59 1.91,-0.59 0.55,0 1.15,-0.11 1.59,0 0.44,0.11 0.98,0.59 0.98,0.59 0,0 0.73,0.37 1.22,0.59 0.02,-4.15 0.07,-8.29 0.13,-12.37 -0.26,0.13 -0.5,0.26 -0.65,0.47 -0.22,0.33 -0.71,0.65 -0.82,0.82 -0.11,0.17 -0.55,0.49 -0.6,0.71 -0.06,0.22 -0.33,0.27 -0.28,0.87 0.05,0.6 -0.06,1.37 0.05,1.53 0.11,0.16 0.17,0.65 0.22,0.98 0.05,0.33 0.27,1.04 0.38,1.26 0.11,0.22 0.49,0.71 0.49,0.71 0,0 -0.05,0.93 -0.27,1.26 -0.22,0.33 0.11,0.44 -0.55,0.55 -0.65,0.11 -1.47,-1.48 -1.64,-1.59 -0.17,-0.11 -0.33,0.05 -0.33,-0.6 0,-0.65 0,-0.65 0,-0.65 0,0 -0.17,-0.33 -0.22,-0.82 -0.06,-0.49 0.11,-0.93 -0.27,-0.93 -0.39,0 -0.39,0 -0.77,0 -0.38,0 -0.16,0.27 -0.82,-0.05 -0.65,-0.33 -0.88,-0.5 -1.15,-0.77 -0.28,-0.28 -0.55,-0.33 -1.15,-0.33 -0.6,0 -1.04,0 -1.37,0 -0.33,0 -1.04,-0.11 -1.04,0.06 0,0.16 0.38,0.38 0.33,0.55 -0.06,0.16 -0.22,0.38 -0.6,0.38 -0.38,0 -0.71,-0.06 -1.15,0 -0.44,0.05 0.19,0.6 -1.02,0 -1.21,-0.6 -1.32,-0.87 -1.93,-0.82 -0.6,0.05 0,-0.06 -0.98,0.27 -0.99,0.33 -2.85,1.31 -2.85,1.48 0,0.16 -0.27,0.11 -0.27,0.39 0,0.27 -0.06,0.43 0.05,0.6 0.11,0.16 0.71,0.54 0.11,0.98z"/>
    <path fill="black" d="M65.54 56.1c-5.53,3.96 -10.89,8.7 -15.55,14.32 1.42,2.57 3.89,4.97 7.23,7.13 3.78,-5.35 7.98,-10.06 12.11,-14.08 0.84,-0.82 1.69,-1.61 2.54,-2.4 -1.52,-0.83 -2.86,-1.72 -4,-2.66 -0.05,0.07 -0.11,0.13 -0.2,0.15 -0.22,0.06 -1.04,0.22 -1.04,0.22 0,0 -0.65,0.38 -0.93,0.54 -0.28,0.17 -0.93,0.17 -1.26,0.28 -0.33,0.11 -0.49,0.17 -0.93,0.22 -0.44,0.06 -1.58,-0.05 -1.58,-0.05 0,0 -0.33,-0.55 0,-0.55 0.33,0 0.44,0 0.82,-0.05 0.38,-0.06 0.33,-0.33 0.65,-0.33 0.33,0 0.82,-0.27 0.82,-0.27 0,0 0.55,-0.33 0.77,-0.33 0.22,0 0.33,-0.22 0.54,-0.33 0.05,-0.03 0.06,-0.03 0.07,-0.04 0,0 0.02,-0 0.02,-0 0.02,-0.01 0.06,-0.03 0.14,-0.07 0.33,-0.17 0.22,0.38 0.33,-0.17 0.09,-0.44 -0.03,-0.57 0.03,-0.85 -0.21,-0.22 -0.4,-0.45 -0.59,-0.68z"/>
    <path fill="black" d="M66.2 55.63c0.06,0.07 0.13,0.14 0.19,0.21 0.02,-0.13 0.06,-0.26 0.09,-0.4 -0.09,0.06 -0.19,0.12 -0.28,0.19z"/>
    <path fill="black" d="M74.95 50.15c0.01,-0.02 0.01,-0.03 0.02,-0.04 -0.22,0.12 -0.43,0.24 -0.64,0.36 0.03,0.03 0.07,0.04 0.13,0.02 0.22,-0.11 0.33,-0.11 0.5,-0.33z"/>
    <path fill="black" d="M136.69 64.12c0.6,0.85 1.2,1.71 1.78,2.6 3.01,4.56 5.97,9.92 8.5,16.08 4.09,-1.43 7.69,-3.07 10.66,-4.9 -0.54,-0.62 -1.3,-1.51 -1.43,-2.07 -0.08,-0.37 0.08,-0.52 0.44,-0.7 -1.56,-2.67 -3.31,-5.29 -5.25,-7.85 -0.04,0.05 -0.09,0.12 -0.13,0.21 -0.31,0.66 -0.02,0.22 -0.53,0.44 -0.51,0.22 -0.47,-0.18 -0.83,-0.55 -0.36,-0.36 -0.04,-0.73 -0.22,-0.94 -0.18,-0.22 -0.11,-0.22 -0.51,-0.51 -0.4,-0.29 -0.22,-0.51 -0.44,-0.81 -0.16,-0.22 0.06,-0.53 0.26,-0.84 -1.17,-1.4 -2.41,-2.78 -3.72,-4.13 -2.37,1.49 -5.26,2.83 -8.59,3.98z"/>
    <path fill="black" d="M153.22 66.07c0,0 0,0 -0.4,-0.1 -0.41,-0.09 -0.33,-0.12 -0.62,-0.38 -0.29,-0.26 -0.18,-0.36 -0.29,-0.48 -0.11,-0.12 -0.19,-0.46 -0.19,-0.57 -0.01,-0.11 -0.1,-0.44 -0.24,-0.59 -0.15,-0.15 -0.15,-0.25 -0.51,-0.33 -0.37,-0.07 -0.8,-0.07 -1.06,-0.22 -0.26,-0.15 -0.33,-0.55 -0.59,-0.73 -0.22,-0.15 -0.25,-0.09 -0.72,-0.22 0.82,0.94 1.64,1.93 2.44,2.95 0.26,0.11 0.29,0.2 0.34,0.43 0.62,0.79 1.23,1.61 1.84,2.45 0.02,-0.02 0.04,-0.05 0.04,-0.05 0,0 -0.11,-1.2 -0.03,-1.64 0.07,-0.44 0,-0.54 0,-0.54z"/>
    <path fill="black" d="M118.78 40.76c2.64,1.15 5.67,2.63 8.93,4.53 0.72,-0.41 1.36,-0.84 1.91,-1.29 -3.79,-1.26 -7.54,-2.35 -10.84,-3.24z"/>
    <path fill="black" d="M125.86 49.49c0.4,0.54 1.67,1.42 2.26,1.78 0.59,0.36 1.17,0.94 0.94,1.35 -0.22,0.4 -0.55,-0.11 -0.47,1.31 0,0.07 0,0.12 0,0.19 2.54,2.75 5.11,5.84 7.59,9.29 3.3,-1.11 6.16,-2.43 8.5,-3.88 -1.04,-1.06 -2.11,-2.1 -3.23,-3.12 -4.66,-4.24 -9.41,-7.54 -13.78,-10.13 -0.99,0.53 -2.09,1.01 -3.3,1.44 0.61,0.67 1.26,1.45 1.49,1.76zm6.85 6.12c0.15,-0.65 0.69,0.04 0.95,0 0.25,-0.04 0.29,0 0.29,0 0,0 0.44,-0.29 0.47,-0.4 0.04,-0.11 0.15,-0.37 0.4,-0.73 0,0 0.19,0 0.3,0 0.12,0 0.46,0.07 0.76,0.33 0.29,0.26 0.33,0.36 0.94,0.44 0.62,0.07 0.51,0.19 0.77,0.58 0.25,0.41 0.15,0.3 0,1.24 -0.15,0.94 -0.04,0.36 -0.77,1.13 -0.72,0.76 -0.36,0.33 -1.27,0.22 -0.91,-0.11 -0.8,-0.36 -1.2,-0.62 -0.4,-0.25 -1.28,-0.73 -1.64,-1.17 -0.36,-0.44 -0.15,-0.37 -0,-1.02z"/>
    <path fill="black" d="M121.58 166.34c0.4,-0.05 0.8,-0.08 1.19,-0.13 0.04,-0.14 0.08,-0.29 0.12,-0.43 -0.01,0 -0.02,0.01 -0.02,0.01 -0.22,0.05 -1.09,0.1 -1.2,0.27 -0.02,0.04 -0.06,0.15 -0.09,0.28z"/>
    <path fill="black" d="M112.82 88.02c-1.15,0.82 -1.58,0.17 -1.91,0.6 -0.02,0.02 -0.02,0.03 -0.04,0.05 6.03,-0.13 11.85,-0.62 17.33,-1.42 -0.38,-2.35 -0.8,-4.6 -1.26,-6.74 -0.15,0.02 -0.28,-0.09 -0.54,-0.09 -0.35,0 -0.85,0 -0.71,-0.22 0.13,-0.22 0.49,-0.49 0.33,-0.52 -0.16,-0.03 -0.38,0.16 -1.15,0.27 -0.76,0.11 -0.52,0.24 -1.39,0.19 -0.88,-0.06 -0.6,0.14 -1.45,0 -0.85,-0.14 0,0 -0.11,-0.3 -0.11,-0.3 0,-0.35 0,-0.46 0,-0.11 0.17,-0.41 0.25,-0.82 0.08,-0.41 0.19,-0.39 0.22,-0.6 0.04,-0.22 0.08,-0.38 0.02,-0.52 -0.06,-0.14 0.03,-0.44 0,-0.63 -0.02,-0.19 0.46,-0.46 0.91,-1.09 0,0 0.13,0.03 0.27,0 0.14,-0.03 0.03,0.17 0.03,0.33 0,0.17 0,0.44 0,0.65 0,0.22 0.14,0.49 0.25,0.6 0.11,0.11 0.19,0.14 0.19,0.14 0,0 0.14,0.03 0.36,-0.03 0.22,-0.06 0.49,0 1.28,0.16 0.79,0.16 0.11,0.14 0.35,0.41 0.19,0.21 0.22,0.2 0.43,0.41 -0.6,-2.61 -1.25,-5.06 -1.93,-7.33 -0.38,-1.3 -0.78,-2.55 -1.19,-3.76 -2.22,0.33 -4.52,0.59 -6.87,0.79 0.31,0.59 0.59,1.33 0.82,1.56 0.27,0.27 0.22,1.42 0.93,1.58 0.71,0.17 0.38,-0.06 1.04,0.22 0.66,0.27 1.48,0.65 1.64,0.71 0.17,0.06 0.17,-0.6 0.17,0.06 0,0.65 -0.11,0.55 0.44,0.76 0.55,0.22 0.82,0.22 1.09,0.38 0.28,0.17 0.33,0.5 0.39,0.82 0.05,0.33 -0.55,0.87 -0.65,1.04 -0.11,0.16 -0.38,0.11 -0.49,0.49 -0.11,0.39 -0.44,1.04 -0.71,1.37 -0.27,0.33 -0.11,0.44 -1.2,0.49 -1.09,0.05 -2.24,-0.06 -2.79,0.05 -0.54,0.11 -0.82,0 -1.2,0.28 -0.38,0.27 -0.93,0.38 -1.2,0.76 -0.27,0.38 -0.22,0.06 -0.76,0.85 -0.55,0.78 -0.39,0.46 -0.55,0.78 -0.16,0.33 -1.2,0.44 -0.16,0.33 1.04,-0.11 1.31,-0.28 1.58,-0.49 0.28,-0.22 0.17,-0.04 0.55,-0.62 0.38,-0.58 -0.55,-0.31 0.38,-0.58 0.93,-0.28 0.98,-0.33 1.58,-0.33 0.6,0 0.66,-0.28 0.93,0.05 0.28,0.33 0.44,0.12 0,0.85 -0.44,0.73 -0.98,0.63 -0.98,1.01 0,0.38 -0.6,0.16 0,0.38 0.6,0.22 0.17,-0.27 0.6,0.22 0.44,0.49 -0.55,0.22 0.44,0.49 0.98,0.28 0.33,-0.06 0.98,0.28 0.65,0.33 1.15,0.49 1.15,0.49 0,0 0,0.28 0.06,0.5 0.05,0.22 -1.31,1.25 -1.48,1.53 -0.16,0.27 -1.09,1.2 -1.69,1.31 -0.6,0.11 -0.71,0.65 -0.87,-0.11 -0.16,-0.77 0.76,-1.53 0.87,-1.81 0.11,-0.28 1.09,-1.31 0.06,-0.65 -1.04,0.65 -1.2,1.04 -1.37,1.15 -0.16,0.11 -0.38,0.32 -0.87,0.54 -0.49,0.22 -0.6,0.17 -0.93,0.44 -0.33,0.27 -0.65,0.49 -0.65,0.65 0,0.17 -0.22,0.6 -0.22,0.88 0,0.27 0.11,0.33 0,0.6 -0.11,0.28 0.6,-0.21 -0.55,0.61z"/>
    <path fill="black" d="M81.09 132.26c6.95,1.12 14.41,1.81 22.13,2.01 0.06,-0.27 0.14,-0.54 0.26,-0.79 0.44,-0.93 0.71,-2.35 1.09,-2.62 0.24,-0.18 0.64,-0.54 1,-0.81 -0.04,-2 -0.06,-4.03 -0.08,-6.06 -0.22,-0.1 -0.43,-0.19 -0.43,-0.19l-0.66 0.28 -0.76 0.6 -0.71 0.65c-0.44,-0.44 -1.37,-0.98 -1.37,-0.98 0,0 -0.88,0 -1.15,0.05 -0.28,0.06 -0.66,-1.42 -1.26,-1.42 -0.61,0 -0.87,0.66 -1.26,0 -0.39,-0.65 -0.71,-1.04 -0.71,-1.47 0,-0.44 -0.98,-2.35 -1.96,-2.62 -0.98,-0.28 -1.15,-0.06 -1.58,-0.33 -0.44,-0.27 -0.39,0.22 -1.09,-0.54 -0.71,-0.76 -1.97,-2.13 -2.73,-2.52 -0.76,-0.38 -1.48,0.28 -3.17,0 -1.02,-0.16 -2.91,-1.06 -4.28,-1.74 -0.86,6.12 -1.34,12.35 -1.28,18.5z"/>
    <path fill="black" d="M124.46 121.95c0.33,0 0.33,0 0.33,0 0,0 -0.33,0.33 -0.27,0.5 0.06,0.16 -0.55,-0.33 0.06,0.16 0.6,0.49 0.93,0.33 1.2,0.33 0.27,0 0,-0.22 0.71,0.05 0.71,0.28 1.2,0.39 1.48,0.77 0.28,0.39 0.28,0.22 0.28,0.71 0,0.48 0.22,-0.17 1.15,0.22 0.14,0.06 0.24,0.09 0.35,0.13 0.37,-5.46 0.5,-10.64 0.41,-15.52 -6.75,0.91 -13.93,1.41 -21.33,1.45 0.42,0.13 0.9,0.13 1.61,0.33 0.98,0.28 0.28,0.38 0.28,0.38 0,0 -0.55,0.33 -1.15,0.57 -0.6,0.24 -0.6,-0.08 -1.26,-0.03 -0.65,0.06 -0.6,0.06 -1.52,-0.44 -0.92,-0.49 0.26,-0.33 -0.03,-0.55 -0.16,-0.13 -0.1,-0.19 -0.04,-0.28 -0.12,0 -0.24,0 -0.37,-0 0,0.8 -0,1.61 -0,2.41 0.16,-0.17 0.82,0.27 1.39,0 0.46,-0.22 1.17,0.27 1.17,0.54 0,0.27 0,0 -0.6,0.44 -0.6,0.44 -0.38,0.06 -0.82,0 -0.44,-0.06 0,0 -0.72,-0.19 -0.21,-0.06 -0.33,-0.09 -0.42,-0.13 -0.01,2.82 0,5.63 0.03,8.43 0.18,-0.04 0.33,-0.04 0.39,0.04 0.29,0.33 -0.15,1.09 0.29,1.53 0.44,0.44 0.44,0.44 0.44,0.44l0.71 0.22c0,0 0.6,-1.31 0.76,-1.42 0.17,-0.11 0,0.05 0.39,-0.49 0.38,-0.55 0.38,-0.55 0.82,-0.66 0.44,-0.11 0.11,0.22 0.93,-0.38 0.82,-0.6 1.48,-1.04 1.7,-1.09 0.22,-0.06 1.04,-0.66 1.09,-0.49 0.05,0.16 -0.38,0.33 -0.44,0.71 -0.05,0.38 -0.05,-0.05 -0.05,0.38 0,0.44 -0.49,1.69 -0.17,1.86 0.33,0.17 0.88,-0.06 0.88,-0.06 0,0 0.05,-0.49 0,-0.65 -0.06,-0.16 -0.17,-0.54 0.22,-0.77 0.39,-0.22 0.11,0.17 0.39,-0.22 0.28,-0.38 0.22,-0.82 0.76,-0.76 0.55,0.06 0.22,0.17 0.82,0.39 0.6,0.21 0.93,0.43 0.93,0.43 0,0 0.71,0.16 1.09,0.16 0.38,0 0.28,0 0.71,0 0.44,0 0.99,0 0.99,0 0,0 1.58,0 2.02,-0.16 0.44,-0.17 0.22,-0.28 0.71,-0.28 0.49,0 0.88,0.33 1.09,0.55 0.21,0.22 0.31,0.43 0.65,0.43zm-7.49 -9.06c-0.22,-0.15 -0.22,0.32 -0.71,0.32 -0.49,0 -1.04,0.06 -1.91,0.44 -0.87,0.38 -0.5,0.11 -1.37,0.23 -0.87,0.12 -0.22,0.04 -0.87,-0.02 -0.65,-0.05 -0.98,0.06 -1.58,0 -0.6,-0.05 -0.22,-0.38 0,-0.76 0.22,-0.39 1.04,-0.33 1.09,-0.54 0.04,-0.17 0.51,-0.06 0.67,-0.01 -0.2,-0.07 -0.67,-0.42 -0.67,-0.42 0,0 0.28,-0.23 1.37,-0.28l0.8 0.28c0,0 0.74,-0 1.06,0 0.33,0 0.6,-0 1.53,0 0.93,0 0.98,0.21 0.98,0.77 0,0.56 -0.16,0.15 -0.38,0zm3.71 0.21c-0.16,0 -0.27,0.22 -0.27,0.22 0,0 0,0 -0.33,0.28 -0.33,0.27 0,0 -0.28,0.11 -0.27,0.11 0,0 -0.5,0.02 -0.5,0.02 -0.37,-0.07 -0.37,-0.3 0,-0.22 -0.06,-0.22 0,-0.33 0.05,-0.11 0.38,-0.17 0.76,-0.21 0,0 0.82,0.21 0.98,0 0.17,-0.2 0.17,0.21 0,0.21z"/>
    <path fill="black" d="M162.33 92.99c0.22,-1.04 0.76,-1.64 0.76,-2.13 0,-0.45 0.13,-1.17 0.07,-1.79 -0.93,-2.59 -2,-5.16 -3.21,-7.7 -0.08,-0.01 -0.16,-0.03 -0.24,-0.07 -0.39,-0.22 -0.6,-0.6 -0.77,-1.26 -0.13,-0.54 -0.4,-0.96 -0.72,-1.4 -3.04,1.89 -6.7,3.59 -10.89,5.05 2.33,5.83 4.26,12.38 5.49,19.64 3.23,-1.09 6.21,-2.31 8.9,-3.61 -0.11,-1.54 -0.05,-3.12 -0.05,-4.15 0,-2.07 0.44,-1.53 0.66,-2.57z"/>
    <path fill="black" d="M99.63 49.91c-0.17,-0.17 -0.31,-0.12 -0.28,-0.24 -0.51,-0.07 -1.02,-0.15 -1.52,-0.23 -0.02,0.01 -0.03,0 -0.04,-0 -0.04,-0.01 -0.07,-0.02 -0.1,-0.02 -0.07,0 -0.18,0.02 -0.39,0.07 -0.78,0.21 -0.08,0.02 -0.89,0.25 -0.38,0.42 -0.76,0.83 -1.14,1.28 0.06,0 0.11,-0 0.17,0 0.87,0.11 0.71,0 0.71,0.33 0,0.33 0,0.44 -0.11,0.76 -0.11,0.33 -0.06,0.44 -0.16,1.11 -0.11,0.67 0.11,0.2 0.22,0.69 0.11,0.49 0.71,0.82 0.87,1.37 0.17,0.54 0,0 -0.49,0.39 -0.5,0.38 0,0 -0.6,0.15 -0.6,0.15 -0.71,-0.32 -1.26,-0.43 -0.55,-0.11 -0.06,-0.55 -0.44,-0.77 -0.39,-0.22 -0.44,0.17 -1.31,0.44 -0.87,0.27 -0.76,0.6 -1.65,0.71l-0.01 0c-0.16,0.2 -0.33,0.4 -0.49,0.6 0.17,-0.03 0.29,-0.05 0.29,-0.05 0,0 0.38,0 0.38,0.22 0,0.22 0,0.22 0,0.22 0,0 1.2,-0.33 1.37,-0.44 0.17,-0.11 0.55,-0.87 0.82,-0.5 0.27,0.39 0.33,0.5 0.65,0.66 0.33,0.17 0.17,0 0.65,0.28 0.5,0.27 0.93,0.38 1.2,0.49 0.28,0.11 0.11,0.17 0.6,0.06 0.49,-0.11 0.17,-0.27 0.49,-0.11 0.33,0.17 0.33,0.71 0.33,0.71 0,0 -0.12,0.24 0.07,0.22 0.43,-1.04 0.85,-2.06 1.27,-3.04 -0.08,-0.06 -0.12,-0.02 0.13,-0.3 0.71,-1.67 1.41,-3.26 2.06,-4.72 -0.03,0.02 -0.05,0.04 -0.09,0.07 -0.33,0.28 -0.22,0.06 -0.71,0 -0.49,-0.06 0,0 -0.43,-0.06 -0.44,-0.06 0,0 -0.19,-0.18zm0.13 1.54c-0.16,0.33 0,0 -0.22,0.38 -0.22,0.39 0,0 -0.17,0.57 -0.16,0.57 0.11,0.19 0,0.63 -0.11,0.44 0,0 -0.44,0.22 -0.44,0.22 0,0 -0.28,0.22 -0.27,0.22 0,0 -0.54,0.11 -0.25,0.05 -0.33,0.13 -0.35,0.17 0.01,-0.03 0.02,-0.08 0.02,-0.17 0,-0.38 0,0 -0.11,-0.36 -0.11,-0.36 -0.22,-0.51 0,-1.06 0.22,-0.55 0,0 0.22,-0.17 0.22,-0.16 0.76,-0.22 1.04,-0.49 0.28,-0.28 0.4,-0.33 0.4,-0.33 0,0 0.59,-0.06 0.42,0.27z"/>
    <path fill="black" d="M44.09 118.85c3.8,2.94 8.85,5.57 14.85,7.79 -0.01,-0.89 -0.01,-1.79 0.02,-2.7 0.21,-6.72 1.48,-13.39 3.46,-19.89 -5.68,-1.93 -10.61,-4.22 -14.55,-6.78 -2.31,6.59 -3.72,13.8 -3.78,21.58z"/>
    <path fill="black" d="M62.67 103.26c1.32,-4.19 2.95,-8.29 4.78,-12.28 -0.08,-0.09 -0.13,-0.22 -0.15,-0.5 -0.06,-0.66 -0.11,-2.68 0,-3.55 0.11,-0.88 -0.06,-3.06 -0.06,-3.06 0,0 -0.06,-0.04 0.18,-0.51 -3.78,-1.37 -7.11,-2.94 -9.92,-4.67 -3.68,5.3 -6.94,11.23 -9.32,17.76 3.88,2.58 8.79,4.87 14.49,6.81z"/>
    <path fill="black" d="M68.41 57.82c0.19,0.15 0.38,0.3 0.58,0.45 0.04,-0.25 0.09,-0.54 0.28,-0.63 0.28,-0.12 0.66,-0.4 0.5,-0.4 -0.13,0 -0.98,0.39 -1.35,0.57z"/>
    <path fill="black" d="M70.03 58.56c-0.07,0 -0.32,0.05 -0.56,0.07 0.7,0.51 1.47,1 2.3,1.47 -0.05,-0.41 -0.15,-0.89 -0.15,-0.89 0,0 -0.16,-1.86 -0.22,-1.53 -0.06,0.33 -0.71,0.6 -0.71,0.6 0,0 -0.49,0.27 -0.66,0.27z"/>
    <path fill="black" d="M109.05 92.11c-0.71,-0.05 -0.38,0.11 -0.71,-0.05 -0.33,-0.17 -0.61,1.75 -0.63,2.19 -0.03,0.44 0.57,0.33 0,0.98 -0.57,0.65 -0.14,0.38 -0.57,0.65 -0.26,0.17 -0.46,0.31 -0.66,0.46 -0.07,4.28 -0.12,8.63 -0.15,13 0.07,-0.01 0.11,-0.02 0.21,-0.03 0.77,-0.05 0.55,0.22 0.87,0.5 0.03,0.02 0.05,0.04 0.07,0.06 0.1,0 0.2,0 0.3,0 7.77,0 15.28,-0.51 22.33,-1.46 -0.17,-7.46 -0.83,-14.22 -1.77,-20.28 -5.64,0.81 -11.66,1.3 -17.93,1.4 -0.16,0.49 -0.28,0.76 -0.38,1.03 -0.11,0.27 -0.44,0.33 -0.71,0.93 -0.28,0.6 0.44,0.65 -0.28,0.6z"/>
    <path fill="black" d="M102.43 49.13c0.03,0 0.05,0.01 0.08,0.01 -0.02,-0.01 -0.04,-0.02 -0.07,-0.03 -0,0.01 -0.01,0.02 -0.01,0.02z"/>
    <path fill="black" d="M81.55 113.34c-0.46,-0.24 -0.75,-0.4 -0.75,-0.4l-1.09 -0.38 -1.31 -0.93c0,0 -1.2,-0.71 -1.26,-1.91 -0.03,-0.7 0.06,-1.27 0.09,-1.78 -5,-0.98 -9.7,-2.18 -13.98,-3.59 -1.96,6.42 -3.22,13 -3.42,19.63 -0.04,1 -0.04,2 -0.02,2.98 6,2.15 12.9,3.91 20.4,5.16 -0.05,-6.24 0.46,-12.57 1.34,-18.77z"/>
    <path fill="black" d="M101.75 50.65c0.24,-0.14 0.43,-0.23 0.69,-0.23 0.31,0 0.43,0.04 0.43,-0.35 -0.28,-0.02 -0.55,-0.05 -0.83,-0.08 -0.09,0.22 -0.19,0.43 -0.29,0.66z"/>
    <path fill="black" d="M70.88 52.54c0.41,-0.13 0.52,-0.21 0.84,-0.26 0.38,-0.06 0.22,0.33 0.38,-0.06 0.05,-0.11 0.03,-0.27 -0,-0.44 -0.41,0.25 -0.81,0.5 -1.22,0.76z"/>
    <path fill="black" d="M128.55 45.8c4.3,2.57 8.94,5.82 13.5,9.96 1.12,1.02 2.26,2.12 3.39,3.28 1.19,-0.8 2.2,-1.64 3.06,-2.51 -0.52,-0.3 -1.32,-0.64 -2.56,-0.98 -1.8,-0.49 -1.97,-2.78 -1.97,-2.78 0,0 -2.84,-3.44 -3.33,-3.83 -0.49,-0.38 -0.93,-0.71 -1.47,-0.93 -0.29,-0.11 -0.68,-0.48 -1.09,-0.91 -2.4,-0.99 -4.94,-1.93 -7.48,-2.78 -0.58,0.52 -1.27,1.01 -2.04,1.47z"/>
    <path fill="black" d="M72.02 50.81c0.02,-0.02 0,-0.05 0.03,-0.07 0.33,-0.22 0.38,-0.33 0.71,-0.44 0.32,-0.11 0.53,-0.31 0.74,-0.37 1,-0.58 2,-1.14 2.98,-1.67 0.19,-0.23 0.08,-0.21 0.32,-0.25 0.1,-0.02 0.19,-0.04 0.26,-0.06 2.66,-1.41 5.26,-2.67 7.75,-3.78 -0.64,-0.61 -1.14,-1.24 -1.49,-1.9 -1.37,0.5 -2.71,1.05 -4.04,1.63 -0.02,0.04 -0.02,0.07 -0.06,0.11 -0.25,0.33 -0.41,0.33 -0.71,0.76 -0.3,0.44 -0.63,0.49 -0.87,0.85 -0.25,0.35 -0.35,0.44 -0.57,0.65 -0.22,0.22 -0.49,0.28 -1.01,0.69 -0.52,0.41 -0.79,0.35 -1.23,0.85 -0.44,0.49 -0.14,0.38 -0.74,0.71 -0.6,0.33 -0.96,0.55 -1.42,0.76 -0.46,0.22 -0.17,-0.13 -1.07,0.55 -0.9,0.69 -1.42,1.07 -1.67,1.53 -0.25,0.46 -0.49,0.66 -0.25,-0.13 0.25,-0.79 0.49,-1.01 0.85,-1.34 0.35,-0.33 0.93,-1.04 1.01,-1.26 0.08,-0.22 0.6,-0.49 0,-0.46 -0.26,0.01 -0.41,0.02 -0.53,0.04 -2.24,1.38 -4.39,2.89 -6.46,4.51 0.25,0.74 0.61,1.48 1.1,2.19 2.11,-1.48 4.23,-2.84 6.35,-4.11z"/>
    <path fill="black" d="M48.85 70.11c-0.3,0.48 -0.61,0.96 -0.9,1.44 0.33,-0.42 0.67,-0.82 1,-1.23 -0.03,-0.07 -0.06,-0.14 -0.1,-0.21z"/>
    <path fill="black" d="M99.11 46.77c-0.21,0.41 -0.28,0.71 -0.28,0.71 0,0 0.06,0.54 0,1.02 -0.01,0.08 -0.02,0.13 -0.04,0.19 0.35,0.05 0.72,0.1 1.08,0.15 0.11,-0.17 -0.07,-0.04 -0.09,-0.17 -0.03,-0.17 0.41,-0.55 0.71,-0.61 0.31,-0.06 0.46,0 0.46,0l0.22 0.28c0,0 0,0 -0.05,0.63 -0,0.01 0,0.02 0,0.03 0.11,0.01 0.23,0.02 0.34,0.04 0.03,-0.04 0.05,-0.06 0.05,-0.06 0,0 0.01,0.01 0.02,0.02 0.25,-0.56 0.5,-1.12 0.74,-1.64 -0.09,-0.04 -0.2,-0.09 -0.39,-0.21 -0.44,-0.28 0,0 -0.21,-0.03 -0.21,-0.03 -0.17,0.14 -0.44,0.14 -0.28,0 0,0 -0.33,-0.17 -0.33,-0.16 0,0 -0.22,0.03 -0.22,0.02 -0.22,-0.57 -0.11,-0.9 0.11,-0.33 0,0 0.22,-0.27 0,0 0.44,-0.11 0.82,-0.01 0.38,0.11 0,0 0.31,0.01 0.25,0 0.46,0.17 0.83,0.37 1.28,-2.76 2.35,-4.96 3.09,-6.45 -1.51,1.46 -3.88,3.82 -6.74,6.91z"/>
    <path fill="black" d="M90.74 46.59c6.69,-4.31 12.19,-7.14 14.81,-8.41 -0.36,0 -0.71,0.02 -1.07,0.03 -3.07,0.77 -9.82,2.67 -17.98,6.18 1.14,0.81 2.57,1.55 4.24,2.2z"/>
    <path fill="black" d="M85.73 43.79c5.78,-2.51 10.87,-4.23 14.54,-5.31 -5.59,0.53 -10.97,1.73 -16.09,3.52 0.36,0.62 0.89,1.22 1.56,1.79z"/>
    <path fill="black" d="M65.02 55.41c-0.49,-0.69 -0.88,-1.39 -1.16,-2.11 -5.61,4.52 -10.49,9.89 -14.44,15.93 0.05,0.11 0.09,0.22 0.15,0.34 4.65,-5.55 9.97,-10.23 15.46,-14.16z"/>
    <path fill="black" d="M38.75 114.84c0.96,8.04 3.33,15.66 6.84,22.61 -1.64,-6.34 -2.37,-12.39 -2.37,-18.13 -1.78,-1.43 -3.27,-2.92 -4.46,-4.48z"/>
    <path fill="black" d="M58.96 127.68c-5.95,-2.17 -10.98,-4.76 -14.85,-7.67 0.06,6.23 0.99,12.83 3.03,19.78 4.13,2.98 9.55,5.57 15.87,7.69 -2.49,-6.27 -3.85,-12.87 -4.04,-19.8z"/>
    <path fill="black" d="M47.42 95.95c2.41,-6.52 5.66,-12.43 9.33,-17.72 -3.32,-2.15 -5.83,-4.53 -7.35,-7.09 -1.7,2.11 -3.3,4.33 -4.78,6.69 -1.68,3.61 -3.06,7.38 -4.1,11.3 1.52,2.43 3.87,4.72 6.89,6.83z"/>
    <path fill="black" d="M43.21 118.15c0.14,-7.7 1.58,-14.84 3.91,-21.39 -2.94,-2.01 -5.27,-4.2 -6.88,-6.52 -1.3,5.26 -2,10.75 -2,16.41 0,2.15 0.11,4.27 0.31,6.37 1.15,1.79 2.72,3.5 4.67,5.13z"/>
    <path fill="black" d="M109.81 54.02c0.33,0.28 0.82,0.38 1.2,0.65 0.38,0.28 0.44,2.3 0.54,2.46 0.11,0.16 1.2,1.15 1.48,1.31 0.28,0.17 1.04,-0.16 1.26,0.44 0.22,0.6 0.44,1.53 0.44,1.69 0,0.17 0.22,0.77 -0.33,0.28 -0.55,-0.49 -0.82,-0.87 -1.04,-0.87 -0.22,0 -1.04,-0.17 -0.93,0.16 0.11,0.33 -0.22,0.22 0.65,0.93 0.87,0.71 1.75,1.04 1.75,1.04 0,0 0.44,0.38 -0.28,0.6 -0.71,0.22 -1.31,0.22 -1.8,0.17 -0.49,-0.06 -0.55,0.11 0,0.33 0.54,0.22 0.93,0.28 1.15,0.55 0.22,0.27 0.77,0.6 0,0.76 -0.76,0.17 0,-0.27 -1.09,0.22 -1.09,0.49 -1.42,0.27 -1.8,-0.22 -0.38,-0.49 -0.77,-0.82 -1.37,-1.37 -0.6,-0.54 -1.15,-0.82 -1.15,-0.82 0,0 -0.44,0.49 -0.79,0.66 -0.11,0.05 -0.23,0.08 -0.34,0.09 -0.03,0.83 -0.06,1.69 -0.09,2.56 0.13,-0.43 0.29,-0.71 0.43,-0.89 0.24,-0.33 -0.14,-0.6 0.68,-0.49 0.82,0.11 1.2,0.11 1.53,0.22 0.33,0.11 0.76,0.22 0.93,0.49 0.16,0.27 0.27,0.27 0.65,0.44 0.39,0.16 0.33,-0.11 0.44,0.44 0.11,0.54 -0.28,0.65 0.16,1.09 0.23,0.23 0.47,0.4 0.7,0.53 0.78,-0.04 1.56,-0.07 2.33,-0.13 0.01,-0.02 0.02,-0.05 0.01,-0.07 -0.08,-0.22 -0.46,0.33 -0.08,-0.22 0.38,-0.55 0.06,-0.88 0.38,-0.55 0.21,0.21 0.37,0.48 0.55,0.78 2.43,-0.19 4.8,-0.45 7.07,-0.79 -0.7,-2.05 -1.42,-3.99 -2.16,-5.82 -0.09,-0.06 -0.18,-0.11 -0.29,-0.17 -0.62,-0.29 -0.76,-0.58 -1.54,-1.24 -0.77,-0.65 -0.17,-1.68 -0.1,-2.3 0.03,-0.21 0.05,-0.43 0.07,-0.63 -0.09,-0.2 -0.19,-0.41 -0.28,-0.61 -0.22,0.22 -0.57,0.65 -1.16,0.73 -0.82,0.11 -0.17,-0.26 -0.53,-0.84 -0.36,-0.58 0.04,-0.87 0.15,-1.13 0.11,-0.26 0.47,-0.58 0.36,-0.66 -0.11,-0.07 -0.51,-0.29 -1.02,-0.29 -0.51,0 -0.83,0.11 -0.91,-0.94 -0.07,-1.06 -0.62,-1.13 -1.09,-1.53 -0.29,-0.25 -0.7,-0.67 -1.1,-1.07 -1.8,0.17 -3.66,0.27 -5.57,0.27 -0.03,0.68 -0.06,1.38 -0.09,2.1 0.29,0.23 0.62,0.6 0.92,0.84 0.33,0.28 0.76,0.55 1.09,0.82z"/>
    <path fill="black" d="M111.94 41.37c0.26,-0.11 0.87,0.15 1.89,0.8 0.4,0.26 0.58,0.35 0.67,0.37 -1.78,-1.33 -3.27,-2.35 -4.4,-3.08 0.44,0.56 0.96,1.27 1.53,2.07 0.09,-0.05 0.2,-0.11 0.31,-0.15z"/>
    <path fill="black" d="M105.93 43.48c0.32,-0.16 1,-0.68 1.44,-0.75 0.1,-2.06 0.18,-3.54 0.22,-4.36 -0.41,0.79 -1.49,2.91 -2.98,6.06 0.69,-0.54 1.07,-0.82 1.33,-0.95z"/>
    <path fill="black" d="M116.97 42.61c0.91,0.62 1.02,0.8 1.53,1.09 0.51,0.29 0.18,0.07 0.66,0.48 0.47,0.4 0.8,0.58 1.2,0.72 0.4,0.15 0.84,0.04 1.75,1.09 0.91,1.06 0.55,0.41 1.09,0.66 0.11,0.06 0.29,0.2 0.48,0.38 1.13,-0.38 2.16,-0.81 3.09,-1.27 -6.76,-3.87 -12.48,-5.96 -15.45,-6.89 -0.26,-0.07 -0.56,-0.13 -0.8,-0.19 1.28,0.83 3.04,2.04 5.13,3.63 0.31,-0.06 0.78,-0.06 1.31,0.3z"/>
    <path fill="black" d="M135.98 44.73c-1.36,-0.65 -2.75,-1.24 -4.15,-1.79 -0.17,0.23 -0.34,0.46 -0.55,0.69 1.76,0.61 3.52,1.24 5.22,1.91 -0.21,-0.26 -0.39,-0.55 -0.52,-0.81z"/>
    <path fill="black" d="M130.98 42.61c-5.52,-2.1 -11.37,-3.51 -17.46,-4.11 4.26,1.05 10.53,2.72 16.83,4.83 0.23,-0.24 0.44,-0.48 0.63,-0.72z"/>
    <path fill="black" d="M110.38 49.32c0.74,-0.03 1.47,-0.08 2.2,-0.13 -0.31,-0.3 -0.2,-0.41 -0.63,-0.5 -0.43,-0.09 -1.02,0.33 -1.57,0.63z"/>
    <path fill="black" d="M107.71 61.35c0.84,0 0.84,0 1.17,-0.05 0.33,-0.06 0.06,-0.6 0.11,-0.93 0.06,-0.33 0.16,-0.65 0.44,-0.87 0.28,-0.22 0.44,-0.22 0.44,-0.66 0,-0.44 -0.82,-1.15 -0.82,-1.15 0,0 -0.33,-0.38 -0.5,-0.38 -0.16,0 -0.05,0.11 -0.27,-0.49 -0.22,-0.6 -0.33,-0.99 -0.57,-1.09 -0.01,-0.01 -0.04,-0.02 -0.05,-0.03 -0.07,1.79 -0.15,3.68 -0.22,5.67 0.07,-0.01 0.17,-0.02 0.28,-0.02z"/>
    <path fill="black" d="M63.44 148.55c-6.24,-2.04 -11.61,-4.53 -15.83,-7.38 4.04,6.89 9.24,13.02 15.34,18.11 0.11,-0.09 0.26,-0.16 0.41,-0.1 2.06,0.75 4.66,1.63 7.71,2.52 -3.16,-4.19 -5.71,-8.58 -7.64,-13.15z"/>
    <path fill="black" d="M109.28 48.58c0.03,-0.62 -0.22,-0.29 -0.33,-0.54 -0.11,-0.26 -0.29,-0.7 -0.26,-0.98 0.04,-0.3 0.44,-0.62 0.55,-0.69 0.11,-0.08 0.54,-0.48 0.62,-0.66 0.07,-0.18 -0.04,-0.26 -0.19,-0.4 -0.14,-0.15 -0.04,-0.95 0.26,-1.13 0.29,-0.19 0,-0.48 0,-0.48 0,0 0.11,-0.33 0.15,-0.48 0.04,-0.15 0.69,-0.33 0.8,-0.44 0.08,-0.08 0.24,-0.2 0.39,-0.28 -1.22,-1.75 -2.21,-3 -2.83,-3.72 -0.04,0.8 -0.11,2.05 -0.19,3.66 0.06,-0 0.12,-0.01 0.19,0.01 0.38,0.11 0.88,0.22 0.88,0.55 0,0.33 0.05,0.76 0,1.04 -0.06,0.28 -0.44,1.26 -0.6,1.37 -0.13,0.09 -0.46,0.28 -0.62,0.44 -0.05,1.09 -0.11,2.27 -0.17,3.56 0.5,0 1,-0.02 1.49,-0.03 -0.12,-0.19 -0.16,-0.48 -0.14,-0.78z"/>
    <path fill="black" d="M106.66 33.59c-40.3,0 -73.07,32.78 -73.07,73.07 0,40.3 32.78,73.07 73.08,73.07 40.3,0 73.08,-32.78 73.08,-73.07 0,-40.29 -32.78,-73.07 -73.08,-73.07zm0 143.18c-38.66,0 -70.11,-31.44 -70.11,-70.1 0,-38.65 31.45,-70.1 70.11,-70.1 38.66,0 70.11,31.45 70.11,70.1 0,38.66 -31.45,70.1 -70.11,70.1z"/>
   </g>
  </g>
 </g>
</svg>
