<?xml version="1.0" encoding="UTF-8"?>
<!DOCTYPE svg PUBLIC "-//W3C//DTD SVG 1.1//EN" "http://www.w3.org/Graphics/SVG/1.1/DTD/svg11.dtd">
<!-- Creator: CorelDRAW 2018 (64-Bit) -->
<svg xmlns="http://www.w3.org/2000/svg" xml:space="preserve" width="0.206661in" height="0.213323in" version="1.1" shape-rendering="geometricPrecision" text-rendering="geometricPrecision" image-rendering="optimizeQuality" fill-rule="evenodd" clip-rule="evenodd"
viewBox="0 0 206.66 213.32"
 xmlns:xlink="http://www.w3.org/1999/xlink">
 <g id="Layer_x0020_1">
  <metadata id="CorelCorpID_0Corel-Layer"/>
  <path fill="#00AFEF" stroke="#373435" stroke-width="6.94" stroke-miterlimit="2.61313" d="M52.02 36.18c-9.43,-3.49 -2.7,-14.17 -2.67,-14.34 0,-0.01 0.01,-0.03 0.01,-0.04 0.41,-1.93 0.61,-3.76 0.63,-5.51 -0.05,-4.37 -1.78,-7.12 -4.43,-11.29l-41.41 0 0 116.73 70.04 0c0.11,-0.15 0.41,-2.23 0.54,-5 -0.2,-6.58 -0.91,-12.76 -2.68,-14.4 -12.98,-12.04 -2.23,-20.98 -7.48,-26.14 -1.16,-1.14 -9.65,-9.85 -9.88,-9.89 -1.42,-6.83 4.72,-27.38 -2.68,-30.11z"/>
  <path fill="none" stroke="#373435" stroke-width="13.33" stroke-miterlimit="2.61313" d="M128.74 91.2c2.37,4.85 3.36,10.24 1.95,16.84 -0.04,0.17 -6.76,10.85 2.67,14.34 7.4,2.74 1.26,23.28 2.68,30.11 0.23,0.05 8.72,8.75 9.88,9.89 5.25,5.16 -5.5,14.1 7.48,26.14 2.22,2.06 2.76,11.24 2.74,19.41"/>
  <path fill="none" stroke="#373435" stroke-width="6.94" stroke-miterlimit="2.61313" d="M126.91 91.2c3.61,5.68 5.52,8.73 3.79,16.84 -0.04,0.17 -6.76,10.85 2.67,14.34 7.4,2.74 1.26,23.28 2.68,30.11 0.23,0.05 8.72,8.75 9.88,9.89 5.25,5.16 -5.5,14.1 7.48,26.14 4.15,3.85 2.45,18.98 2.14,19.41"/>
  <path fill="#FEFEFE" stroke="#373435" stroke-width="6.94" stroke-miterlimit="2.61313" d="M47.4 5c1.66,3.4 2.65,7.07 2.6,11.23 0,0.02 0,0.04 0,0.06 -0,0.58 -0.03,1.17 -0.06,1.77 -0.09,1.12 -0.28,2.35 -0.57,3.74 -0,0.01 -0.01,0.03 -0.01,0.04 -0.02,0.08 -1.49,2.45 -2.1,5.31 -0.69,3.27 -0.25,7.17 4.77,9.03 7.4,2.74 1.26,23.28 2.68,30.11 0.23,0.04 8.72,8.75 9.88,9.89 5.25,5.16 -5.5,14.1 7.48,26.14 2.65,2.45 2.91,9.51 2.68,14.4 0.05,1.66 0.07,3.35 0.07,5l46.09 0 0 -116.73 -73.5 0z"/>
  <path fill="none" stroke="#373435" stroke-width="10" stroke-miterlimit="2.61313" d="M47.4 5c2.37,4.84 3.36,10.24 1.95,16.84 -0.04,0.17 -6.76,10.85 2.67,14.34 7.4,2.74 1.26,23.28 2.68,30.11 0.23,0.04 8.72,8.75 9.88,9.89 5.25,5.16 -5.5,14.1 7.48,26.14 2.22,2.06 2.76,11.24 2.75,19.4"/>
  <path fill="none" stroke="#373435" stroke-width="3.33" stroke-miterlimit="2.61313" d="M45.57 5c3.61,5.68 5.52,8.73 3.78,16.84 -0.04,0.17 -6.76,10.85 2.67,14.34 7.4,2.74 1.26,23.28 2.68,30.11 0.23,0.04 8.72,8.75 9.88,9.89 5.25,5.16 -5.5,14.1 7.48,26.14 4.15,3.85 2.45,18.98 2.14,19.4"/>
  <path fill="#FEFEFE" stroke="#373435" stroke-width="6.67" stroke-miterlimit="2.61313" d="M83.33 91.59l0 116.74 70.04 0c0.11,-0.16 0.41,-2.23 0.54,-5 -0.2,-6.58 -0.91,-12.76 -2.68,-14.4 -12.98,-12.04 -2.23,-20.98 -7.48,-26.14 -1.17,-1.14 -9.65,-9.85 -9.88,-9.89 -1.42,-6.83 4.72,-27.38 -2.68,-30.11 -9.43,-3.49 -2.7,-14.17 -2.67,-14.34 0,-0.01 0.01,-0.03 0.01,-0.04 0.41,-1.93 0.61,-3.76 0.64,-5.51 -0.05,-4.37 -1.78,-7.12 -4.43,-11.29l-41.4 0z"/>
  <path fill="#00AFEF" stroke="#373435" stroke-width="6.67" stroke-miterlimit="2.61313" d="M133.36 122.39c7.4,2.74 1.26,23.28 2.68,30.11 0.23,0.05 8.72,8.75 9.88,9.89 5.25,5.16 -5.5,14.1 7.48,26.14 2.65,2.45 2.91,9.51 2.68,14.4 0.05,1.66 0.07,3.35 0.07,5l46.09 0 0 -116.74 -73.5 0c1.66,3.4 2.64,7.07 2.6,11.23 0,0.02 0,0.04 0,0.06 -0.01,0.58 -0.04,1.17 -0.06,1.77 -0.09,1.13 -0.28,2.36 -0.57,3.74 0,0.02 -0,0.03 -0.01,0.04 -0.02,0.08 -1.45,2.38 -2.07,5.19 -0.73,3.3 -0.35,7.28 4.74,9.16z"/>
  <path id="Shape" fill="black" stroke="black" stroke-width="6.67" stroke-miterlimit="2.61313" d="M74.56 193.59c1.63,0 2.94,1.43 2.94,3.2 0,1.77 -1.31,3.2 -2.94,3.2 -21.06,0 -38.2,-18.66 -38.2,-41.6l0 -11.47 -6.74 7.34c-0.57,0.62 -7.2,7.3 -7.95,7.3 -0.75,0 0.57,-6.05 0,-6.67 -1.15,-1.25 2.65,-3.9 3.8,-5.15l11.76 -12.8c0.27,-0.3 0.6,-0.53 0.96,-0.69 0.72,-0.32 1.53,-0.32 2.24,0 0.36,0.16 0.69,0.4 0.96,0.69l11.75 12.8c1.15,1.25 6.35,8.07 5.2,9.32 -1.15,1.25 -8.21,-3.55 -9.36,-4.8l-6.74 -7.34 0 11.47c0,19.41 14.5,35.2 32.33,35.2l0 0z"/>
  <path id="Shape_0" fill="black" stroke="black" stroke-width="6.67" stroke-miterlimit="2.61313" d="M132.78 22.91c-1.63,0 -2.94,-1.4 -2.94,-3.13 0,-1.73 1.31,-3.13 2.94,-3.13 21.06,0 38.2,18.23 38.2,40.63l0 11.2 6.74 -7.17c0.57,-0.61 3.03,-3.76 3.78,-3.76 0.75,0 5.26,-2.57 5.83,-1.97 1.15,1.22 -4.31,8.93 -5.46,10.15l-11.76 12.5c-0.27,0.29 -0.6,0.52 -0.96,0.68 -0.72,0.31 -1.53,0.31 -2.24,0 -0.36,-0.16 -0.69,-0.39 -0.96,-0.68l-11.75 -12.5c-1.15,-1.22 -6.36,-9.9 -5.21,-11.13 1.15,-1.22 8.21,5.48 9.36,6.7l6.74 7.17 0 -11.2c0,-18.95 -14.5,-34.37 -32.33,-34.37l0 0z"/>
 </g>
</svg>
