<?xml version="1.0" encoding="UTF-8"?>
<!DOCTYPE svg PUBLIC "-//W3C//DTD SVG 1.1//EN" "http://www.w3.org/Graphics/SVG/1.1/DTD/svg11.dtd">
<!-- Creator: CorelDRAW 2018 (64-Bit) -->
<svg xmlns="http://www.w3.org/2000/svg" xml:space="preserve" width="0.213323in" height="0.213323in" version="1.1" shape-rendering="geometricPrecision" text-rendering="geometricPrecision" image-rendering="optimizeQuality" fill-rule="evenodd" clip-rule="evenodd"
viewBox="0 0 213.32 213.32"
 xmlns:xlink="http://www.w3.org/1999/xlink">
 <g id="Layer_x0020_1">
  <metadata id="CorelCorpID_0Corel-Layer"/>
  <g id="_2242777415344">
   <rect fill="#E6E7E8" stroke="#373435" stroke-width="3.33" stroke-miterlimit="2.61313" x="73.02" y="174.41" width="65.82" height="37.25"/>
   <line fill="none" stroke="#373435" stroke-width="6.67" stroke-miterlimit="2.61313" x1="72.85" y1="178.86" x2="139.73" y2= "178.86" />
   <line fill="none" stroke="#373435" stroke-width="6.67" stroke-miterlimit="2.61313" x1="73.18" y1="184.45" x2="140.06" y2= "184.45" />
   <rect fill="#00AFEF" x="74.34" y="174.86" width="63.7" height="9.01"/>
  </g>
  <rect fill="none" stroke="#373435" stroke-width="3.33" stroke-miterlimit="2.61313" x="71.66" y="141.66" width="70" height="70"/>
  <rect fill="none" stroke="#373435" stroke-width="3.33" stroke-miterlimit="2.61313" x="71.66" y="71.66" width="70" height="70"/>
  <rect fill="none" stroke="#373435" stroke-width="3.33" stroke-miterlimit="2.61313" x="71.66" y="1.66" width="70" height="70"/>
  <rect fill="none" stroke="#373435" stroke-width="3.33" stroke-miterlimit="2.61313" x="141.66" y="71.66" width="70" height="70"/>
  <rect fill="none" stroke="#373435" stroke-width="3.33" stroke-miterlimit="2.61313" x="1.66" y="71.66" width="70" height="70"/>
  <g id="_2242777402448">
   <rect fill="#E6E7E8" stroke="#373435" stroke-width="3.33" stroke-miterlimit="2.61313" x="73.8" y="1.66" width="65.82" height="37.25"/>
   <line fill="none" stroke="#373435" stroke-width="6.67" stroke-miterlimit="2.61313" x1="73.63" y1="6.11" x2="140.52" y2= "6.11" />
   <line fill="none" stroke="#373435" stroke-width="6.67" stroke-miterlimit="2.61313" x1="73.96" y1="11.7" x2="140.85" y2= "11.7" />
   <rect fill="#00AFEF" x="75.13" y="2.11" width="63.7" height="9.01"/>
  </g>
  <g id="_2242777397328">
   <rect fill="#FEFEFE" x="139.64" y="70" width="70" height="70"/>
   <rect fill="none" stroke="#373435" stroke-width="3.33" stroke-miterlimit="2.61313" x="141.66" y="71.66" width="70" height="70"/>
   <rect fill="#D2D3D5" x="173.43" y="83.33" width="36.56" height="56.5"/>
   <g>
    <rect fill="#00AFEF" x="176.93" y="74" width="31.75" height="9.16"/>
    <line fill="none" stroke="#373435" stroke-width="3.33" stroke-miterlimit="2.61313" x1="175" y1="71.5" x2="175" y2= "141.5" />
    <line fill="none" stroke="#373435" stroke-width="3.33" stroke-miterlimit="2.61313" x1="175" y1="83.96" x2="211.57" y2= "83.96" />
   </g>
  </g>
  <g id="_2242777391632">
   <rect fill="#FEFEFE" x="3.69" y="70" width="70" height="70"/>
   <rect fill="none" stroke="#373435" stroke-width="3.33" stroke-miterlimit="2.61313" x="1.66" y="71.66" width="70" height="70"/>
   <rect fill="#D2D3D5" x="3.33" y="83.33" width="36.56" height="56.5"/>
   <g>
    <rect fill="#00AFEF" x="4.64" y="74" width="31.75" height="9.16"/>
    <line fill="none" stroke="#373435" stroke-width="3.33" stroke-miterlimit="2.61313" x1="38.32" y1="71.5" x2="38.32" y2= "141.5" />
    <line fill="none" stroke="#373435" stroke-width="3.33" stroke-miterlimit="2.61313" x1="38.32" y1="83.96" x2="1.76" y2= "83.96" />
   </g>
  </g>
 </g>
</svg>
