<?xml version="1.0" encoding="UTF-8"?>
<!DOCTYPE svg PUBLIC "-//W3C//DTD SVG 1.1//EN" "http://www.w3.org/Graphics/SVG/1.1/DTD/svg11.dtd">
<!-- Creator: CorelDRAW 2018 (64-Bit) -->
<svg xmlns="http://www.w3.org/2000/svg" xml:space="preserve" width="0.213323in" height="0.213323in" version="1.1" shape-rendering="geometricPrecision" text-rendering="geometricPrecision" image-rendering="optimizeQuality" fill-rule="evenodd" clip-rule="evenodd"
viewBox="0 0 213.32 213.32"
 xmlns:xlink="http://www.w3.org/1999/xlink">
 <g id="Layer_x0020_1">
  <metadata id="CorelCorpID_0Corel-Layer"/>
  <g id="_2242597472144">
   <rect fill="#E6E7E8" stroke="#373435" stroke-width="6.67" stroke-miterlimit="2.61313" x="2.42" y="34.33" width="176.64" height="176.64"/>
   <line fill="none" stroke="#373435" stroke-width="6.67" stroke-miterlimit="2.61313" x1="131.91" y1="32.38" x2="131.91" y2= "211.87" />
   <line fill="none" stroke="#373435" stroke-width="6.67" stroke-miterlimit="2.61313" x1="25.92" y1="32.38" x2="25.92" y2= "211.87" />
   <line fill="none" stroke="#373435" stroke-width="6.67" stroke-miterlimit="2.61313" x1="78.91" y1="32.38" x2="78.91" y2= "211.87" />
   <g>
    <line fill="none" stroke="#373435" stroke-width="6.67" stroke-miterlimit="2.61313" x1="2.86" y1="108.43" x2="182.35" y2= "108.43" />
    <line fill="none" stroke="#373435" stroke-width="6.67" stroke-miterlimit="2.61313" x1="1.97" y1="55.43" x2="181.46" y2= "55.43" />
    <line fill="none" stroke="#373435" stroke-width="6.67" stroke-miterlimit="2.61313" x1="2.86" y1="81.94" x2="182.35" y2= "81.94" />
    <line fill="none" stroke="#373435" stroke-width="6.67" stroke-miterlimit="2.61313" x1="2.86" y1="187.93" x2="182.35" y2= "187.93" />
    <line fill="none" stroke="#373435" stroke-width="6.67" stroke-miterlimit="2.61313" x1="2.86" y1="161.43" x2="182.35" y2= "161.43" />
    <line fill="none" stroke="#373435" stroke-width="6.67" stroke-miterlimit="2.61313" x1="2.86" y1="134.93" x2="182.35" y2= "134.93" />
   </g>
   <rect fill="#00AFEF" x="5.98" y="36.47" width="170.95" height="42.74"/>
  </g>
  <g id="_2242597472496">
   <ellipse fill="black" stroke="#FEFEFE" stroke-width="10" stroke-miterlimit="2.61313" cx="136.66" cy="73.33" rx="66.67" ry="66.66"/>
   <path fill="#FEFEFE" fill-rule="nonzero" stroke="#373435" stroke-width="6.94" stroke-miterlimit="2.61313" d="M114.96 118.1l0 -47.32 -22.21 0 44.43 -47.32 44.42 47.32 -22.21 0 0 47.32 -44.43 0zm0 -23.66m-11.11 -23.66m11.11 -23.66m44.42 0m11.11 23.66m-11.1 23.66m-22.21 23.66"/>
  </g>
 </g>
</svg>
