<?xml version="1.0" encoding="UTF-8"?>
<!DOCTYPE svg PUBLIC "-//W3C//DTD SVG 1.1//EN" "http://www.w3.org/Graphics/SVG/1.1/DTD/svg11.dtd">
<!-- Creator: CorelDRAW 2018 (64-Bit) -->
<svg xmlns="http://www.w3.org/2000/svg" xml:space="preserve" width="0.206661in" height="0.213323in" version="1.1" shape-rendering="geometricPrecision" text-rendering="geometricPrecision" image-rendering="optimizeQuality" fill-rule="evenodd" clip-rule="evenodd"
viewBox="0 0 206.66 213.32"
 xmlns:xlink="http://www.w3.org/1999/xlink">
 <g id="Layer_x0020_1">
  <metadata id="CorelCorpID_0Corel-Layer"/>
  <g id="_1267846766064">
   <rect fill="#E6E7E8" stroke="#373435" stroke-width="6.67" stroke-miterlimit="2.61313" x="9.47" y="12.05" width="121.89" height="123.39"/>
   <line fill="none" stroke="#373435" stroke-width="6.67" stroke-miterlimit="2.61313" x1="98.82" y1="10.68" x2="98.82" y2= "136.06" />
   <line fill="none" stroke="#373435" stroke-width="6.67" stroke-miterlimit="2.61313" x1="25.69" y1="10.68" x2="25.69" y2= "136.06" />
   <line fill="none" stroke="#373435" stroke-width="6.67" stroke-miterlimit="2.61313" x1="62.26" y1="10.68" x2="62.26" y2= "136.06" />
   <line fill="none" stroke="#373435" stroke-width="6.67" stroke-miterlimit="2.61313" x1="9.78" y1="63.81" x2="133.63" y2= "63.81" />
   <line fill="none" stroke="#373435" stroke-width="6.67" stroke-miterlimit="2.61313" x1="9.17" y1="26.78" x2="133.02" y2= "26.78" />
   <line fill="none" stroke="#373435" stroke-width="6.67" stroke-miterlimit="2.61313" x1="9.78" y1="45.3" x2="133.63" y2= "45.3" />
   <line fill="none" stroke="#373435" stroke-width="6.67" stroke-miterlimit="2.61313" x1="9.78" y1="119.33" x2="133.63" y2= "119.33" />
   <line fill="none" stroke="#373435" stroke-width="6.67" stroke-miterlimit="2.61313" x1="9.78" y1="100.82" x2="133.63" y2= "100.82" />
   <line fill="none" stroke="#373435" stroke-width="6.67" stroke-miterlimit="2.61313" x1="9.78" y1="82.31" x2="133.63" y2= "82.31" />
   <rect fill="#00AFEF" x="11.93" y="13.54" width="117.95" height="29.85"/>
   <polygon fill="#FEFEFE" fill-opacity="0.658824" points="5.83,9.16 135,9.16 135,138.33 5.83,138.33 "/>
  </g>
  <path id="Shape" fill="black" stroke="black" stroke-width="3.33" stroke-miterlimit="2.61313" d="M141.11 36.96c-1.59,0.06 -2.94,-1.19 -3,-2.79 -0.06,-1.6 1.19,-2.94 2.78,-3 20.73,-0.76 38.21,15.49 38.97,36.22l0.38 10.37 6.39 -6.87c1.09,-1.17 2.92,-1.24 4.09,-0.15 1.17,1.09 1.24,2.91 0.15,4.09l-11.14 11.99c-0.26,0.28 -0.57,0.5 -0.92,0.66 -0.35,0.16 -0.72,0.25 -1.1,0.26 -0.37,0.01 -0.75,-0.05 -1.11,-0.18 -0.36,-0.14 -0.69,-0.33 -0.97,-0.59l-11.99 -11.15c-1.17,-1.09 -1.24,-2.92 -0.15,-4.09 1.09,-1.17 2.92,-1.24 4.09,-0.15l6.87 6.39 -0.38 -10.37c-0.64,-17.54 -15.44,-31.29 -32.98,-30.65l0 0z"/>
  <path id="Shape_0" fill="black" stroke="black" stroke-width="3.33" stroke-miterlimit="2.61313" d="M51.82 194.28c1.56,0.05 2.81,1.37 2.79,2.95 -0.02,1.58 -1.31,2.81 -2.88,2.76 -20.33,-0.67 -36.62,-17.86 -36.3,-38.33l0.15 -10.24 -6.6 6.34c-0.56,0.54 -1.29,0.8 -2.02,0.77 -0.72,-0.02 -1.44,-0.33 -1.99,-0.91 -1.09,-1.15 -1.06,-2.96 0.06,-4.04l11.52 -11.06c0.26,-0.26 0.58,-0.46 0.93,-0.59 0.69,-0.27 1.48,-0.24 2.17,0.07 0.34,0.16 0.65,0.37 0.91,0.65l11.17 11.8c1.09,1.15 1.07,2.96 -0.06,4.04 -1.13,1.08 -2.92,1.02 -4.01,-0.13l-6.41 -6.76 -0.16 10.24c-0.26,17.32 13.52,31.87 30.72,32.43l0 0z"/>
  <g id="binoculars-icon.svg">
   <g>
    <path fill="black" d="M112.91 117.31c-12.24,-9.11 -24.35,-11.11 -36.86,-7.64 2.74,-6.99 6.85,-11.58 11.7,-13.73 6.85,-3.06 18.07,-0.89 22.49,5.64 2.26,3.33 3.39,8.27 2.68,15.72l0 0zm40.98 50.38c-0.33,-1.48 0.54,-2.96 1.93,-3.31 1.39,-0.35 2.78,0.57 3.12,2.05 0.67,3 1.83,5.33 3.37,7 1.58,1.7 3.61,2.8 6.02,3.31 1.41,0.29 2.31,1.73 2.04,3.22 -0.27,1.5 -1.63,2.46 -3.04,2.17 -3.43,-0.72 -6.38,-2.33 -8.7,-4.85 -2.23,-2.41 -3.85,-5.58 -4.74,-9.58l0 0zm-87.05 0c-0.33,-1.48 0.54,-2.96 1.93,-3.31 1.39,-0.35 2.79,0.57 3.12,2.05 0.67,3 1.83,5.33 3.37,7 1.58,1.7 3.61,2.8 6.02,3.31 1.41,0.29 2.31,1.73 2.04,3.22 -0.27,1.5 -1.63,2.46 -3.03,2.17 -3.44,-0.72 -6.38,-2.33 -8.71,-4.85 -2.23,-2.41 -3.85,-5.58 -4.74,-9.58l0 0zm59.41 -10.06c3.48,0 6.31,2.92 6.31,6.52 0,3.59 -2.82,6.52 -6.31,6.52 -3.48,0 -6.31,-2.92 -6.31,-6.52 0,-3.59 2.83,-6.52 6.31,-6.52l0 0zm-43.09 -17.37c12.44,0 22.53,10.41 22.53,23.28 0,12.84 -10.09,23.27 -22.53,23.27 -12.44,0 -22.53,-10.41 -22.53,-23.27 -0,-12.86 10.07,-23.28 22.53,-23.28l0 0zm87.05 0c12.44,0 22.53,10.41 22.53,23.28 0,12.84 -10.09,23.27 -22.53,23.27 -12.44,0 -22.53,-10.41 -22.53,-23.27 0,-12.86 10.07,-23.28 22.53,-23.28l0 0zm-30.27 -22.96c12.24,-9.1 24.34,-11.11 36.85,-7.64 -2.74,-6.99 -6.86,-11.58 -11.7,-13.73 -6.85,-3.06 -18.07,-0.89 -22.47,5.64 -2.27,3.33 -3.4,8.27 -2.68,15.73l0 0zm43.86 0.26c-4.26,-4.65 -11.15,-6.75 -20.69,-6.31 -10.81,0.57 -22.23,5.37 -25.9,16.24 -3.07,-7.16 -18.52,-7.16 -21.58,0 -3.67,-10.88 -15.09,-15.69 -25.9,-16.24 -9.54,-0.44 -16.42,1.67 -20.69,6.31 -6,8.54 -17.86,30.85 -18.86,41.75 -4.05,44.24 55.68,55.35 65.26,9.66 5.44,10.24 16.51,10.24 21.94,0 9.58,45.7 69.31,34.59 65.26,-9.66 -0.99,-10.9 -12.86,-33.21 -18.84,-41.75l0 0z"/>
   </g>
  </g>
 </g>
</svg>
