<?xml version="1.0" encoding="UTF-8"?>
<!DOCTYPE svg PUBLIC "-//W3C//DTD SVG 1.1//EN" "http://www.w3.org/Graphics/SVG/1.1/DTD/svg11.dtd">
<!-- Creator: CorelDRAW 2018 (64-Bit) -->
<svg xmlns="http://www.w3.org/2000/svg" xml:space="preserve" width="0.213323in" height="0.213323in" version="1.1" shape-rendering="geometricPrecision" text-rendering="geometricPrecision" image-rendering="optimizeQuality" fill-rule="evenodd" clip-rule="evenodd"
viewBox="0 0 213.32 213.32"
 xmlns:xlink="http://www.w3.org/1999/xlink">
 <g id="Layer_x0020_1">
  <metadata id="CorelCorpID_0Corel-Layer"/>
  <path id="Shape" fill="black" stroke="black" stroke-width="3.33" stroke-miterlimit="2.61313" d="M76.43 174.19c1.63,0 2.94,1.67 2.94,3.74 0,2.07 -1.31,3.74 -2.94,3.74 -21.06,0 -38.2,-21.79 -38.2,-48.57l0 -13.4 -6.74 8.57c-0.57,0.73 -1.33,1.09 -2.08,1.09 -0.75,0 -1.5,-0.37 -2.08,-1.09 -1.15,-1.46 -1.15,-3.82 0,-5.28l11.76 -14.94c0.27,-0.34 0.6,-0.62 0.96,-0.81 0.72,-0.37 1.53,-0.37 2.24,0 0.36,0.19 0.69,0.46 0.96,0.81l11.75 14.94c1.15,1.46 1.15,3.82 0,5.28 -1.15,1.46 -3,1.46 -4.15,0l-6.74 -8.57 0 13.4c0,22.66 14.5,41.1 32.33,41.1l0 0z"/>
  <rect fill="#00AFEF" x="2.94" y="3.32" width="111.47" height="28.81"/>
  <rect fill="#E6E7E8" x="2.94" y="30.47" width="93.33" height="45"/>
  <path id="Shape_0" fill="black" d="M6.33 1.66l111.94 0c2.57,0 4.67,2.09 4.67,4.67l0 83.96c0,2.57 -2.09,4.67 -4.67,4.67l-111.94 0c-2.57,0 -4.67,-2.09 -4.67,-4.67l0 -83.96c0,-2.57 2.09,-4.67 4.67,-4.67l0 0zm69.96 55.97l0 -18.66 -27.99 0 0 18.66 27.99 0 0 0zm-27.99 9.33l0 18.66 27.99 0 0 -18.66 -27.99 0 0 0zm65.3 -27.99l-27.98 0 0 18.66 27.98 0 0 -18.66 0 0zm-74.63 0l-27.99 0 0 18.66 27.99 0 0 -18.66 0 0zm-27.99 -27.98l0 18.66 102.62 0 0 -18.66 -102.62 0 0 0zm102.62 55.97l-27.98 0 0 18.66 27.98 0 0 -18.66 0 0zm-74.63 18.66l0 -18.66 -27.99 0 0 18.66 27.99 0 0 0z"/>
  <g id="_2777094732208">
   <rect fill="#FBB25F" x="94.78" y="125.64" width="109.12" height="24.71"/>
   <rect fill="#E6E7E8" x="96.84" y="152.73" width="109.12" height="55.27"/>
   <path id="Shape_1" fill="black" d="M207.04 210.63l-110.77 0c-2.55,0 -4.62,-2.06 -4.62,-4.61l0 -83.08c0,-2.55 2.07,-4.61 4.62,-4.61l110.77 0c2.55,0 4.62,2.06 4.62,4.61l0 83.08c0,2.55 -2.07,4.61 -4.62,4.61l0 0zm-69.23 -55.39l0 18.46 27.69 0 0 -18.46 -27.69 0 0 0zm-36.93 0l0 18.46 27.69 0 0 -18.46 -27.69 0 0 0zm36.93 27.69l0 18.46 27.69 0 0 -18.46 -27.69 0 0 0zm36.92 -9.23l27.69 0 0 -18.46 -27.69 0 0 18.46 0 0zm27.69 9.23l-27.69 0 0 18.46 27.69 0 0 -18.46 0 0zm-73.85 18.46l0 -18.46 -27.69 0 0 18.46 27.69 0 0 0zm-27.69 -73.85l0 18.46 101.54 0 0 -18.46 -101.54 0 0 0z"/>
  </g>
  <path id="Shape_2" fill="black" stroke="black" stroke-width="3.33" stroke-miterlimit="2.61313" d="M135.04 41.84c-1.63,0 -2.94,-1.67 -2.94,-3.74 0,-2.07 1.31,-3.74 2.94,-3.74 21.06,0 38.2,21.79 38.2,48.57l0 13.4 6.74 -8.57c0.57,-0.73 1.33,-1.09 2.08,-1.09 0.75,0 1.5,0.37 2.08,1.09 1.15,1.46 1.15,3.82 0,5.28l-11.76 14.94c-0.27,0.34 -0.6,0.62 -0.96,0.81 -0.72,0.37 -1.53,0.37 -2.24,0 -0.36,-0.19 -0.69,-0.46 -0.96,-0.81l-11.75 -14.94c-1.15,-1.46 -1.15,-3.82 0,-5.28 1.15,-1.46 3,-1.46 4.15,0l6.74 8.57 0 -13.4c0,-22.66 -14.5,-41.1 -32.33,-41.1l0 0z"/>
 </g>
</svg>
