<?xml version="1.0" encoding="UTF-8"?>
<!DOCTYPE svg PUBLIC "-//W3C//DTD SVG 1.1//EN" "http://www.w3.org/Graphics/SVG/1.1/DTD/svg11.dtd">
<!-- Creator: CorelDRAW 2018 (64-Bit) -->
<svg xmlns="http://www.w3.org/2000/svg" xml:space="preserve" width="0.213323in" height="0.213323in" version="1.1" shape-rendering="geometricPrecision" text-rendering="geometricPrecision" image-rendering="optimizeQuality" fill-rule="evenodd" clip-rule="evenodd"
viewBox="0 0 213.32 213.32"
 xmlns:xlink="http://www.w3.org/1999/xlink">
 <g id="Layer_x0020_1">
  <metadata id="CorelCorpID_0Corel-Layer"/>
  <g id="_2776879753120">
   <rect fill="#00AFEF" x="3.09" y="2.67" width="142.94" height="37.5"/>
   <path id="Shape" fill="black" d="M7.43 1.67l138.46 0c3.19,0 5.77,2.58 5.77,5.77l0 103.85c0,3.19 -2.58,5.77 -5.77,5.77l-138.46 0c-3.19,0 -5.77,-2.58 -5.77,-5.77l0 -103.85c0,-3.19 2.59,-5.77 5.77,-5.77l0 0zm86.54 69.23l0 -23.08 -34.62 0 0 23.08 34.62 0 0 0zm-34.62 11.54l0 23.07 34.62 0 0 -23.07 -34.62 0 0 0zm80.78 -34.62l-34.62 0 0 23.08 34.62 0 0 -23.08 0 0zm-92.31 0l-34.62 0 0 23.08 34.62 0 0 -23.08 0 0zm-34.62 -34.61l0 23.07 126.93 0 0 -23.07 -126.93 0 0 0zm126.93 69.23l-34.62 0 0 23.07 34.62 0 0 -23.07 0 0zm-92.31 23.07l0 -23.07 -34.62 0 0 23.07 34.62 0 0 0z"/>
  </g>
  <g id="_2776879753312">
   <rect fill="#FBB25F" x="67.23" y="105.42" width="136.4" height="30.88"/>
   <rect fill="#E6E7E8" x="69.8" y="139.28" width="136.4" height="69.08"/>
   <path id="Shape_0" fill="black" d="M207.56 211.66l-138.46 0c-3.18,0 -5.77,-2.58 -5.77,-5.77l0 -103.84c0,-3.19 2.59,-5.77 5.77,-5.77l138.46 0c3.19,0 5.77,2.58 5.77,5.77l0 103.84c0,3.19 -2.58,5.77 -5.77,5.77l0 0zm-86.54 -69.23l0 23.08 34.61 0 0 -23.08 -34.61 0 0 0zm-46.15 0l0 23.08 34.61 0 0 -23.08 -34.61 0 0 0zm46.15 34.61l0 23.08 34.61 0 0 -23.08 -34.61 0 0 0zm46.15 -11.54l34.61 0 0 -23.08 -34.61 0 0 23.08 0 0zm34.61 11.54l-34.61 0 0 23.08 34.61 0 0 -23.08 0 0zm-92.3 23.08l0 -23.08 -34.61 0 0 23.08 34.61 0 0 0zm-34.61 -92.31l0 23.08 126.92 0 0 -23.08 -126.92 0 0 0z"/>
  </g>
  <path id="Shape_1" fill="black" stroke="black" stroke-width="3.33" stroke-miterlimit="2.61313" d="M159.82 40.14c-1.38,0 -2.5,-1.09 -2.5,-2.45 0,-1.36 1.12,-2.46 2.5,-2.46 17.92,0 32.5,14.32 32.5,31.91l0 8.8 5.73 -5.63c0.49,-0.48 1.13,-0.72 1.77,-0.72 0.64,0 1.28,0.24 1.77,0.72 0.98,0.96 0.98,2.51 0,3.47l-10 9.82c-0.23,0.22 -0.51,0.41 -0.81,0.53 -0.61,0.25 -1.3,0.25 -1.91,0 -0.3,-0.12 -0.58,-0.3 -0.81,-0.53l-10 -9.82c-0.98,-0.96 -0.98,-2.51 0,-3.47 0.98,-0.96 2.56,-0.96 3.54,0l5.73 5.63 0 -8.8c0,-14.89 -12.34,-27 -27.5,-27l0 0z"/>
  <g id="_2776879749728">
   <ellipse fill="#FEFEFE" stroke="#373435" stroke-width="6.94" stroke-miterlimit="2.61313" cx="61.66" cy="149.47" rx="50" ry="50.83"/>
   <line fill="none" stroke="#373435" stroke-width="10" stroke-miterlimit="2.61313" x1="31.66" y1="148.63" x2="93.33" y2= "148.63" />
   <line fill="none" stroke="#373435" stroke-width="10" stroke-miterlimit="2.61313" x1="62.5" y1="179.47" x2="62.5" y2= "117.8" />
  </g>
 </g>
</svg>
