<?xml version="1.0" encoding="UTF-8"?>
<!DOCTYPE svg PUBLIC "-//W3C//DTD SVG 1.1//EN" "http://www.w3.org/Graphics/SVG/1.1/DTD/svg11.dtd">
<!-- Creator: CorelDRAW 2018 (64-Bit) -->
<svg xmlns="http://www.w3.org/2000/svg" xml:space="preserve" width="0.213323in" height="0.213323in" version="1.1" shape-rendering="geometricPrecision" text-rendering="geometricPrecision" image-rendering="optimizeQuality" fill-rule="evenodd" clip-rule="evenodd"
viewBox="0 0 213.32 213.32"
 xmlns:xlink="http://www.w3.org/1999/xlink">
 <g id="Layer_x0020_1">
  <metadata id="CorelCorpID_0Corel-Layer"/>
  <path id="Shape" fill="black" d="M187.87 68.74c-0.33,1.29 1.03,2.5 3.04,2.71 2.01,0.21 3.91,-0.66 4.24,-1.94 -0.21,-6.22 -0.75,-8.06 -2.65,-12.04 -5.75,-12.07 -16.99,-22.21 -36.27,-24.24l-13.62 -0.31 9.71 -4.46c0.83,-0.38 1.34,-0.93 1.49,-1.53 0.15,-0.6 -0.05,-1.23 -0.65,-1.76 -1.19,-1.06 -3.48,-1.3 -5.14,-0.54l-16.95 7.78c-0.39,0.18 -0.72,0.41 -0.98,0.68 -0.52,0.53 -0.68,1.17 -0.46,1.78 0.11,0.3 0.31,0.59 0.59,0.84l12.15 10.83c1.19,1.06 3.48,1.3 5.14,0.54 1.66,-0.76 2.04,-2.23 0.85,-3.29l-6.96 -6.21 16.2 1.79c22.06,2.32 29.11,14.02 30.26,29.38l0 0z"/>
  <rect fill="#00AFEF" x="2.94" y="3.32" width="111.47" height="28.81"/>
  <rect fill="#E6E7E8" x="2.94" y="30.47" width="93.33" height="45"/>
  <path id="Shape_0" fill="black" d="M6.33 1.66l111.94 0c2.57,0 4.67,2.09 4.67,4.67l0 83.96c0,2.57 -2.09,4.67 -4.67,4.67l-111.94 0c-2.57,0 -4.67,-2.09 -4.67,-4.67l0 -83.96c0,-2.57 2.09,-4.67 4.67,-4.67l0 0zm69.96 55.97l0 -18.66 -27.99 0 0 18.66 27.99 0 0 0zm-27.99 9.33l0 18.66 27.99 0 0 -18.66 -27.99 0 0 0zm65.3 -27.99l-27.98 0 0 18.66 27.98 0 0 -18.66 0 0zm-74.63 0l-27.99 0 0 18.66 27.99 0 0 -18.66 0 0zm-27.99 -27.98l0 18.66 102.62 0 0 -18.66 -102.62 0 0 0zm102.62 55.97l-27.98 0 0 18.66 27.98 0 0 -18.66 0 0zm-74.63 18.66l0 -18.66 -27.99 0 0 18.66 27.99 0 0 0z"/>
  <g id="_2777096100528">
   <rect fill="#FBB25F" x="94.78" y="125.64" width="109.12" height="24.71"/>
   <rect fill="#E6E7E8" x="96.84" y="152.73" width="109.12" height="55.27"/>
   <path id="Shape_1" fill="black" d="M207.04 210.63l-110.77 0c-2.55,0 -4.62,-2.06 -4.62,-4.61l0 -83.08c0,-2.55 2.07,-4.61 4.62,-4.61l110.77 0c2.55,0 4.62,2.06 4.62,4.61l0 83.08c0,2.55 -2.07,4.61 -4.62,4.61l0 0zm-69.23 -55.39l0 18.46 27.69 0 0 -18.46 -27.69 0 0 0zm-36.93 0l0 18.46 27.69 0 0 -18.46 -27.69 0 0 0zm36.93 27.69l0 18.46 27.69 0 0 -18.46 -27.69 0 0 0zm36.92 -9.23l27.69 0 0 -18.46 -27.69 0 0 18.46 0 0zm27.69 9.23l-27.69 0 0 18.46 27.69 0 0 -18.46 0 0zm-73.85 18.46l0 -18.46 -27.69 0 0 18.46 27.69 0 0 0zm-27.69 -73.85l0 18.46 101.54 0 0 -18.46 -101.54 0 0 0z"/>
  </g>
  <ellipse fill="#FEFEFE" stroke="#373435" stroke-width="6.94" stroke-miterlimit="2.61313" cx="55" cy="142.49" rx="50" ry="50.83"/>
  <line fill="none" stroke="#282829" stroke-width="10" stroke-miterlimit="2.61313" x1="55.83" y1="177.01" x2="55.83" y2= "106.3" />
  <line fill="none" stroke="#282829" stroke-width="10" stroke-miterlimit="2.61313" x1="91.19" y1="141.65" x2="20.48" y2= "141.65" />
  <path id="Shape_2" fill="black" d="M133.12 69c-1.02,0.66 -2.51,-0.08 -3.34,-1.66 -0.83,-1.57 -0.69,-3.39 0.32,-4.04 5.49,-1.7 7.27,-1.82 11.35,-1.48 12.38,1.04 24.85,7.14 32.85,22.25l4.68 11.02 0.75 -9.27c0.06,-0.79 0.38,-1.37 0.85,-1.68 0.47,-0.31 1.09,-0.33 1.74,-0.01 1.31,0.65 2.26,2.45 2.13,4.03l-1.3 16.17c-0.03,0.37 -0.12,0.72 -0.27,1 -0.29,0.58 -0.8,0.91 -1.4,0.91 -0.3,0 -0.61,-0.08 -0.92,-0.23l-13.37 -6.64c-1.31,-0.65 -2.26,-2.45 -2.14,-4.03 0.13,-1.58 1.29,-2.33 2.6,-1.69l7.67 3.8 -6.8 -12.67c-9.15,-17.29 -21.63,-19.5 -35.39,-15.8l0 0z"/>
 </g>
</svg>
