<?xml version="1.0" encoding="UTF-8"?>
<!DOCTYPE svg PUBLIC "-//W3C//DTD SVG 1.1//EN" "http://www.w3.org/Graphics/SVG/1.1/DTD/svg11.dtd">
<!-- Creator: CorelDRAW 2018 (64-Bit) -->
<svg xmlns="http://www.w3.org/2000/svg" xml:space="preserve" width="0.213323in" height="0.213323in" version="1.1" shape-rendering="geometricPrecision" text-rendering="geometricPrecision" image-rendering="optimizeQuality" fill-rule="evenodd" clip-rule="evenodd"
viewBox="0 0 213.32 213.32"
 xmlns:xlink="http://www.w3.org/1999/xlink">
 <g id="Layer_x0020_1">
  <metadata id="CorelCorpID_0Corel-Layer"/>
  <g id="_2242774501632">
   <g>
    <path fill="#6DCFF6" stroke="#373435" stroke-width="13.33" stroke-miterlimit="2.61313" d="M89.17 60.26c-16.09,-5.95 -4.61,-24.19 -4.55,-24.48 0,-0.02 0.01,-0.05 0.02,-0.07 0.7,-3.3 1.04,-6.43 1.08,-9.4 -0.09,-7.45 -3.04,-12.15 -7.56,-19.26l-70.67 0 0 199.24 119.54 0c0.19,-0.26 0.69,-3.81 0.92,-8.54 -0.35,-11.22 -1.55,-21.78 -4.57,-24.58 -22.15,-20.56 -3.81,-35.81 -12.76,-44.61 -1.98,-1.95 -16.47,-16.81 -16.86,-16.89 -2.43,-11.67 8.06,-46.72 -4.58,-51.4z"/>
    <path fill="#6DCFF6" stroke="#373435" stroke-width="13.33" stroke-miterlimit="2.61313" d="M81.28 7.04c2.83,5.8 4.51,12.06 4.43,19.16 0,0.04 0,0.07 0,0.1 -0.01,0.99 -0.06,2 -0.11,3.02 -0.16,1.92 -0.48,4.02 -0.98,6.38 -0,0.02 -0.01,0.05 -0.02,0.07 -0.03,0.14 -2.55,4.19 -3.59,9.07 -1.18,5.58 -0.43,12.24 8.14,15.41 12.63,4.67 2.15,39.73 4.58,51.4 0.39,0.08 14.88,14.94 16.86,16.89 8.96,8.8 -9.39,24.06 12.76,44.61 4.52,4.19 4.97,16.23 4.57,24.58 0.09,2.84 0.12,5.73 0.11,8.54l78.66 0 0 -199.24 -125.44 0z"/>
   </g>
   <path fill="#6DCFF6" stroke="#373435" stroke-width="13.33" stroke-miterlimit="2.61313" d="M85.72 26.2c-0.11,-7.4 -3.06,-12.08 -7.57,-19.16l-70.66 0 0 199.24 119.54 0c0.19,-0.26 0.69,-3.81 0.92,-8.54 -0.35,-11.22 -1.55,-21.78 -4.57,-24.58 -22.15,-20.56 -3.81,-35.81 -12.76,-44.61 -1.98,-1.95 -16.47,-16.81 -16.87,-16.89 -2.43,-11.67 8.06,-46.73 -4.57,-51.4 -16.09,-5.95 -4.62,-24.19 -4.56,-24.47 0.01,-0.03 0.01,-0.06 0.02,-0.08 0.7,-3.3 1.05,-6.43 1.09,-9.4 0,-0.04 -0,-0.07 -0,-0.11z"/>
   <path fill="#6DCFF6" stroke="#373435" stroke-width="13.33" stroke-miterlimit="2.61313" d="M81.28 7.04c2.83,5.8 4.51,12.06 4.43,19.16 0,0.04 0,0.07 0,0.11 -0.01,0.99 -0.06,1.99 -0.11,3.02 -0.16,1.92 -0.48,4.02 -0.98,6.38 -0,0.02 -0.01,0.05 -0.02,0.08 -0.06,0.29 -11.53,18.52 4.56,24.47 12.63,4.67 2.15,39.73 4.57,51.4 0.4,0.07 14.88,14.94 16.87,16.89 8.96,8.8 -9.39,24.06 12.76,44.61 4.52,4.19 4.97,16.23 4.57,24.58 0.09,2.84 0.12,5.73 0.11,8.54l78.66 0 0 -199.24 -125.44 0z"/>
   <path fill="none" stroke="#373435" stroke-width="13.33" stroke-miterlimit="2.61313" d="M95.43 107.44c2.37,-4.17 3.11,-4.67 5.04,-7.42 3.86,-5.51 40.31,-12.58 49.64,-17.8 5.26,-2.94 20.52,-4.27 25.9,-1.18 0.35,0.2 11.27,2.6 15.8,5.41 0.15,0.09 8.95,2.16 11.8,3.08 0.8,0.26 -3.89,1.55 3.89,1.56"/>
  </g>
 </g>
</svg>
