<?xml version="1.0" encoding="UTF-8"?>
<!DOCTYPE svg PUBLIC "-//W3C//DTD SVG 1.1//EN" "http://www.w3.org/Graphics/SVG/1.1/DTD/svg11.dtd">
<!-- Creator: CorelDRAW 2018 (64-Bit) -->
<svg xmlns="http://www.w3.org/2000/svg" xml:space="preserve" width="0.213331in" height="0.213331in" version="1.1" shape-rendering="geometricPrecision" text-rendering="geometricPrecision" image-rendering="optimizeQuality" fill-rule="evenodd" clip-rule="evenodd"
viewBox="0 0 213.33 213.33"
 xmlns:xlink="http://www.w3.org/1999/xlink">
 <g id="Layer_x0020_1">
  <metadata id="CorelCorpID_0Corel-Layer"/>
  <path fill="#00AFEF" stroke="#373435" stroke-width="10" stroke-miterlimit="2.61313" d="M55.51 38.81c-9.62,-3.56 -2.76,-14.46 -2.72,-14.64 0,-0.01 0.01,-0.03 0.01,-0.04 0.42,-1.97 0.63,-3.84 0.65,-5.62 -0.05,-4.46 -1.82,-7.27 -4.52,-11.52l-42.26 0 0 119.14 71.48 0c0.11,-0.16 0.41,-2.28 0.55,-5.11 -0.21,-6.71 -0.93,-13.02 -2.74,-14.7 -13.24,-12.29 -2.27,-21.41 -7.63,-26.68 -1.19,-1.17 -9.85,-10.05 -10.08,-10.1 -1.45,-6.97 4.81,-27.94 -2.74,-30.73z"/>
  <path fill="#FEFEFE" stroke="#373435" stroke-width="10" stroke-miterlimit="2.61313" d="M50.8 6.99c1.69,3.46 2.7,7.21 2.65,11.46 0,0.02 0,0.04 0,0.06 -0,0.59 -0.04,1.19 -0.06,1.81 -0.09,1.15 -0.28,2.41 -0.59,3.81 0,0.01 -0,0.03 -0.01,0.04 -0.02,0.08 -1.52,2.5 -2.15,5.43 -0.7,3.34 -0.25,7.32 4.87,9.21 7.55,2.79 1.28,23.76 2.74,30.73 0.24,0.05 8.9,8.93 10.08,10.1 5.36,5.27 -5.61,14.39 7.63,26.68 2.7,2.5 2.98,9.7 2.74,14.7 0.05,1.7 0.07,3.43 0.07,5.11l47.04 0 0 -119.14 -75.01 0z"/>
  <rect fill="none" stroke="#373435" stroke-width="10" stroke-miterlimit="2.61313" x="6.67" y="6.99" width="119.14" height="119.14"/>
  <path fill="none" stroke="#373435" stroke-width="10" stroke-miterlimit="2.61313" d="M50.8 6.99c2.41,4.94 3.43,10.46 1.99,17.19 -0.04,0.18 -6.9,11.08 2.72,14.64 7.55,2.79 1.28,23.76 2.74,30.73 0.24,0.05 8.9,8.93 10.08,10.1 5.36,5.27 -5.61,14.39 7.63,26.68 2.27,2.1 2.82,11.48 2.8,19.8"/>
  <path fill="none" stroke="#373435" stroke-width="10" stroke-miterlimit="2.61313" d="M48.92 6.99c3.69,5.8 5.63,8.91 3.87,17.19 -0.04,0.17 -6.9,11.08 2.72,14.64 7.55,2.79 1.28,23.76 2.74,30.73 0.24,0.05 8.9,8.93 10.08,10.1 5.36,5.27 -5.61,14.39 7.63,26.68 4.24,3.93 2.5,19.37 2.19,19.8"/>
  <rect fill="#E6E7E8" stroke="#373435" stroke-width="10" stroke-miterlimit="2.61313" x="68.62" y="104.68" width="138.05" height="101.66"/>
  <line fill="none" stroke="#373435" stroke-width="10" stroke-miterlimit="2.61313" x1="206.67" y1="152.97" x2="68.61" y2= "152.97" />
  <line fill="none" stroke="#373435" stroke-width="10" stroke-miterlimit="2.61313" x1="206.67" y1="165.99" x2="68.61" y2= "165.99" />
  <line fill="none" stroke="#373435" stroke-width="6.67" stroke-miterlimit="2.61313" x1="206.67" y1="126.91" x2="68.61" y2= "126.91" />
  <rect fill="#00AFEF" x="73.33" y="152.97" width="126.67" height="10.36"/>
  <line fill="none" stroke="#373435" stroke-width="6.67" stroke-miterlimit="2.61313" x1="206.67" y1="179.02" x2="68.61" y2= "179.02" />
  <line fill="none" stroke="#373435" stroke-width="6.67" stroke-miterlimit="2.61313" x1="206.67" y1="192.04" x2="68.61" y2= "192.04" />
  <line fill="none" stroke="#373435" stroke-width="6.67" stroke-miterlimit="2.61313" x1="206.67" y1="139.94" x2="68.61" y2= "139.94" />
  <line fill="none" stroke="#373435" stroke-width="10" stroke-miterlimit="2.61313" x1="111.5" y1="126.91" x2="111.5" y2= "206.34" />
  <line fill="none" stroke="#373435" stroke-width="10" stroke-miterlimit="2.61313" x1="140.89" y1="126.91" x2="140.89" y2= "206.34" />
 </g>
</svg>
