<?xml version="1.0" encoding="UTF-8"?>
<!DOCTYPE svg PUBLIC "-//W3C//DTD SVG 1.1//EN" "http://www.w3.org/Graphics/SVG/1.1/DTD/svg11.dtd">
<!-- Creator: CorelDRAW 2018 (64-Bit) -->
<svg xmlns="http://www.w3.org/2000/svg" xml:space="preserve" width="0.213323in" height="0.213323in" version="1.1" shape-rendering="geometricPrecision" text-rendering="geometricPrecision" image-rendering="optimizeQuality" fill-rule="evenodd" clip-rule="evenodd"
viewBox="0 0 213.32 213.32"
 xmlns:xlink="http://www.w3.org/1999/xlink">
 <g id="Layer_x0020_1">
  <metadata id="CorelCorpID_0Corel-Layer"/>
  <g id="_2242774486560">
   <rect fill="#E6E7E8" stroke="#373435" stroke-width="6.67" stroke-miterlimit="2.61313" x="3.33" y="3.32" width="206.67" height="206.67"/>
   <rect fill="#BDBFC1" x="28.32" y="57.24" width="179.17" height="150.97"/>
  </g>
  <line fill="none" stroke="#373435" stroke-width="6.67" stroke-miterlimit="2.61313" x1="153.99" y1="1.87" x2="153.99" y2= "211.87" />
  <line fill="none" stroke="#373435" stroke-width="6.67" stroke-miterlimit="2.61313" x1="29.99" y1="1.87" x2="29.99" y2= "211.87" />
  <line fill="none" stroke="#373435" stroke-width="6.67" stroke-miterlimit="2.61313" x1="91.99" y1="1.87" x2="91.99" y2= "211.87" />
  <g id="_2242774481600">
   <line fill="none" stroke="#373435" stroke-width="6.67" stroke-miterlimit="2.61313" x1="3.01" y1="90.85" x2="213.01" y2= "90.85" />
   <line fill="none" stroke="#373435" stroke-width="6.67" stroke-miterlimit="2.61313" x1="1.97" y1="28.85" x2="211.97" y2= "28.85" />
   <line fill="none" stroke="#373435" stroke-width="6.67" stroke-miterlimit="2.61313" x1="3.01" y1="59.85" x2="213.01" y2= "59.85" />
   <line fill="none" stroke="#373435" stroke-width="6.67" stroke-miterlimit="2.61313" x1="3.01" y1="183.85" x2="213.01" y2= "183.85" />
   <line fill="none" stroke="#373435" stroke-width="6.67" stroke-miterlimit="2.61313" x1="3.01" y1="152.85" x2="213.01" y2= "152.85" />
   <line fill="none" stroke="#373435" stroke-width="6.67" stroke-miterlimit="2.61313" x1="3.01" y1="121.85" x2="213.01" y2= "121.85" />
  </g>
  <rect fill="#00AFEF" x="6.66" y="6.66" width="200" height="50"/>
  <line fill="none" stroke="#373435" stroke-width="3.33" stroke-miterlimit="2.61313" x1="51.66" y1="75" x2="75" y2= "75" />
  <line fill="none" stroke="#373435" stroke-width="3.33" stroke-miterlimit="2.61313" x1="51.66" y1="168.33" x2="75" y2= "168.33" />
  <line fill="none" stroke="#373435" stroke-width="3.33" stroke-miterlimit="2.61313" x1="111.66" y1="75" x2="135" y2= "75" />
  <line fill="none" stroke="#373435" stroke-width="3.33" stroke-miterlimit="2.61313" x1="170.92" y1="75" x2="194.26" y2= "75" />
  <line fill="none" stroke="#373435" stroke-width="3.33" stroke-miterlimit="2.61313" x1="51.66" y1="141.66" x2="75" y2= "141.66" />
  <line fill="none" stroke="#373435" stroke-width="3.33" stroke-miterlimit="2.61313" x1="51.66" y1="198.33" x2="75" y2= "198.33" />
  <line fill="none" stroke="#373435" stroke-width="3.33" stroke-miterlimit="2.61313" x1="51.66" y1="108.33" x2="75" y2= "108.33" />
  <line fill="none" stroke="#373435" stroke-width="3.33" stroke-miterlimit="2.61313" x1="111.66" y1="168.33" x2="135" y2= "168.33" />
  <line fill="none" stroke="#373435" stroke-width="3.33" stroke-miterlimit="2.61313" x1="111.66" y1="141.66" x2="135" y2= "141.66" />
  <line fill="none" stroke="#373435" stroke-width="3.33" stroke-miterlimit="2.61313" x1="111.66" y1="198.33" x2="135" y2= "198.33" />
  <line fill="none" stroke="#373435" stroke-width="3.33" stroke-miterlimit="2.61313" x1="111.66" y1="108.33" x2="135" y2= "108.33" />
  <line fill="none" stroke="#373435" stroke-width="3.33" stroke-miterlimit="2.61313" x1="170.92" y1="138.32" x2="194.26" y2= "138.32" />
  <line fill="none" stroke="#373435" stroke-width="3.33" stroke-miterlimit="2.61313" x1="170.92" y1="198.32" x2="194.26" y2= "198.32" />
  <line fill="none" stroke="#373435" stroke-width="3.33" stroke-miterlimit="2.61313" x1="170.92" y1="171.65" x2="194.26" y2= "171.65" />
  <line fill="none" stroke="#373435" stroke-width="3.33" stroke-miterlimit="2.61313" x1="170.92" y1="108.32" x2="194.26" y2= "108.32" />
 </g>
</svg>
