<?xml version="1.0" encoding="UTF-8"?>
<!DOCTYPE svg PUBLIC "-//W3C//DTD SVG 1.1//EN" "http://www.w3.org/Graphics/SVG/1.1/DTD/svg11.dtd">
<!-- Creator: CorelDRAW 2018 (64-Bit) -->
<svg xmlns="http://www.w3.org/2000/svg" xml:space="preserve" width="0.213323in" height="0.213323in" version="1.1" shape-rendering="geometricPrecision" text-rendering="geometricPrecision" image-rendering="optimizeQuality" fill-rule="evenodd" clip-rule="evenodd"
viewBox="0 0 213.32 213.32"
 xmlns:xlink="http://www.w3.org/1999/xlink">
 <g id="Layer_x0020_1">
  <metadata id="CorelCorpID_0Corel-Layer"/>
  <g id="_2242598437168">
   <rect fill="#E6E7E8" stroke="#373435" stroke-width="6.67" stroke-miterlimit="2.61313" x="2.34" y="3.48" width="144.96" height="144.96"/>
   <line fill="none" stroke="#373435" stroke-width="6.67" stroke-miterlimit="2.61313" x1="108.6" y1="1.87" x2="108.6" y2= "149.17" />
   <line fill="none" stroke="#373435" stroke-width="6.67" stroke-miterlimit="2.61313" x1="21.62" y1="1.87" x2="21.62" y2= "149.17" />
   <line fill="none" stroke="#373435" stroke-width="6.67" stroke-miterlimit="2.61313" x1="65.11" y1="1.87" x2="65.11" y2= "149.17" />
   <g>
    <line fill="none" stroke="#373435" stroke-width="6.67" stroke-miterlimit="2.61313" x1="2.7" y1="64.28" x2="150" y2= "64.28" />
    <line fill="none" stroke="#373435" stroke-width="6.67" stroke-miterlimit="2.61313" x1="1.97" y1="20.79" x2="149.27" y2= "20.79" />
    <line fill="none" stroke="#373435" stroke-width="6.67" stroke-miterlimit="2.61313" x1="2.7" y1="42.54" x2="150" y2= "42.54" />
    <line fill="none" stroke="#373435" stroke-width="6.67" stroke-miterlimit="2.61313" x1="2.7" y1="129.52" x2="150" y2= "129.52" />
    <line fill="none" stroke="#373435" stroke-width="6.67" stroke-miterlimit="2.61313" x1="2.7" y1="107.77" x2="150" y2= "107.77" />
    <line fill="none" stroke="#373435" stroke-width="6.67" stroke-miterlimit="2.61313" x1="2.7" y1="86.03" x2="150" y2= "86.03" />
   </g>
   <rect fill="#00AFEF" x="5.26" y="5.23" width="140.28" height="35.07"/>
  </g>
  <rect fill="none" stroke="#FEFEFE" stroke-width="13.33" stroke-miterlimit="2.61313" x="55" y="81.66" width="158.33" height="131.67" rx="10.11" ry="10.11"/>
  <rect fill="#E6E7E8" stroke="#373435" stroke-width="6.67" stroke-miterlimit="2.61313" x="62.34" y="90.13" width="144.96" height="117.14"/>
  <line fill="none" stroke="#373435" stroke-width="6.67" stroke-miterlimit="2.61313" x1="89.99" y1="91.88" x2="89.99" y2= "207.27" />
  <line fill="none" stroke="#373435" stroke-width="6.67" stroke-miterlimit="2.61313" x1="148.32" y1="88.52" x2="148.32" y2= "207.27" />
  <line fill="none" stroke="#373435" stroke-width="6.67" stroke-miterlimit="2.61313" x1="61.97" y1="107.44" x2="209.27" y2= "107.44" />
  <line fill="none" stroke="#373435" stroke-width="6.67" stroke-miterlimit="2.61313" x1="62.7" y1="129.19" x2="210" y2= "129.19" />
  <line fill="none" stroke="#373435" stroke-width="6.67" stroke-miterlimit="2.61313" x1="62.7" y1="172.68" x2="210" y2= "172.68" />
  <rect fill="#ECBB59" x="65.26" y="91.88" width="140.28" height="35.07"/>
 </g>
</svg>
