<?xml version="1.0" encoding="UTF-8"?>
<!DOCTYPE svg PUBLIC "-//W3C//DTD SVG 1.1//EN" "http://www.w3.org/Graphics/SVG/1.1/DTD/svg11.dtd">
<!-- Creator: CorelDRAW 2018 (64-Bit) -->
<svg xmlns="http://www.w3.org/2000/svg" xml:space="preserve" width="0.213331in" height="0.213323in" version="1.1" shape-rendering="geometricPrecision" text-rendering="geometricPrecision" image-rendering="optimizeQuality" fill-rule="evenodd" clip-rule="evenodd"
viewBox="0 0 213.33 213.32"
 xmlns:xlink="http://www.w3.org/1999/xlink">
 <g id="Layer_x0020_1">
  <metadata id="CorelCorpID_0Corel-Layer"/>
  <path fill="#00AFEF" stroke="#373435" stroke-width="10" stroke-miterlimit="2.61313" d="M125.24 43.85c-11.15,-4.12 -3.2,-16.75 -3.15,-16.95 0,-0.02 0.01,-0.04 0.01,-0.05 0.48,-2.29 0.72,-4.45 0.75,-6.51 -0.06,-5.17 -2.11,-8.42 -5.24,-13.35l-48.95 0 0 138.01 82.81 0c0.13,-0.18 0.48,-2.64 0.64,-5.91 -0.24,-7.78 -1.07,-15.09 -3.17,-17.03 -15.34,-14.24 -2.63,-24.81 -8.84,-30.91 -1.38,-1.35 -11.41,-11.65 -11.69,-11.7 -1.68,-8.08 5.58,-32.37 -3.17,-35.61z"/>
  <path fill="#FEFEFE" stroke="#373435" stroke-width="10" stroke-miterlimit="2.61313" d="M119.77 6.98c1.96,4.02 3.13,8.35 3.07,13.28 0,0.02 0,0.04 0,0.07 -0.01,0.68 -0.04,1.38 -0.08,2.09 -0.11,1.33 -0.33,2.78 -0.67,4.42 -0,0.02 -0.01,0.04 -0.01,0.05 -0.02,0.09 -1.77,2.9 -2.48,6.28 -0.82,3.87 -0.3,8.48 5.64,10.67 8.75,3.24 1.49,27.52 3.17,35.61 0.28,0.05 10.31,10.35 11.69,11.7 6.2,6.1 -6.5,16.67 8.84,30.91 3.13,2.9 3.44,11.24 3.17,17.03 0.06,1.96 0.08,3.96 0.08,5.91l54.49 0 0 -138.01 -86.89 0z"/>
  <rect fill="none" stroke="#373435" stroke-width="10" stroke-miterlimit="2.61313" x="68.65" y="6.98" width="138.01" height="138.01"/>
  <path fill="none" stroke="#373435" stroke-width="10" stroke-miterlimit="2.61313" d="M119.77 6.98c2.8,5.73 3.98,12.11 2.31,19.91 -0.04,0.2 -7.99,12.83 3.15,16.95 8.75,3.24 1.49,27.52 3.17,35.61 0.28,0.05 10.31,10.35 11.69,11.7 6.2,6.1 -6.5,16.67 8.84,30.91 2.63,2.43 3.27,13.3 3.25,22.94"/>
  <path fill="none" stroke="#373435" stroke-width="10" stroke-miterlimit="2.61313" d="M117.61 6.98c4.27,6.72 6.52,10.32 4.48,19.91 -0.04,0.2 -7.99,12.83 3.15,16.95 8.75,3.24 1.49,27.52 3.17,35.61 0.28,0.05 10.31,10.35 11.69,11.7 6.2,6.1 -6.5,16.67 8.84,30.91 4.9,4.55 2.9,22.44 2.53,22.94"/>
  <g id="_1609857582336">
   <path fill="#FEFEFE" d="M67.59 190.64c16.36,0 31.18,-6.63 41.9,-17.36 10.72,-10.72 17.36,-25.54 17.36,-41.9 0,-32.73 -26.53,-59.26 -59.26,-59.26 -32.73,0 -59.26,26.53 -59.26,59.26 0,32.73 26.53,59.26 59.26,59.26z"/>
   <g id="Zoom_In.svg">
    <g>
     <circle fill="none" stroke="black" stroke-width="13.33" stroke-linecap="round" stroke-linejoin="round" stroke-miterlimit="2.61313" cx="67.59" cy="131.38" r="59.26"/>
     <path fill="none" stroke="black" stroke-width="13.33" stroke-linecap="round" stroke-linejoin="round" stroke-miterlimit="2.61313" d="M141.67 205.46l-32.22 -32.22m-41.85 -64.07l0 44.44m-22.22 -22.22l44.44 0"/>
    </g>
   </g>
  </g>
 </g>
</svg>
