<?xml version="1.0" encoding="UTF-8"?>
<!DOCTYPE svg PUBLIC "-//W3C//DTD SVG 1.1//EN" "http://www.w3.org/Graphics/SVG/1.1/DTD/svg11.dtd">
<!-- Creator: CorelDRAW 2018 (64-Bit) -->
<svg xmlns="http://www.w3.org/2000/svg" xml:space="preserve" width="0.426661in" height="0.426661in" version="1.1" shape-rendering="geometricPrecision" text-rendering="geometricPrecision" image-rendering="optimizeQuality" fill-rule="evenodd" clip-rule="evenodd"
viewBox="0 0 426.66 426.66"
 xmlns:xlink="http://www.w3.org/1999/xlink">
 <g id="Layer_x0020_1">
  <metadata id="CorelCorpID_0Corel-Layer"/>
  <g id="layers-svgrepo-com_x0020__x0028_1_x0029_.svg">
   <g>
    <g>
     <g>
      <path fill="black" d="M51.97 374.69l166.4 0 0 -161.36 -166.4 0 0 161.36zm10.08 -151.27l146.23 0 0 141.19 -146.23 0 0 -141.19z"/>
      <polygon fill="black" points="102.4,157.86 102.4,208.29 112.48,208.29 112.48,167.95 258.63,168.03 258.71,314.18 223.41,314.18 223.41,324.26 268.8,324.26 268.71,157.95 "/>
      <polygon fill="black" points="157.86,152.82 167.95,152.82 167.95,112.48 309.13,112.48 309.13,258.71 273.84,258.71 273.84,268.8 319.22,268.8 319.22,102.4 157.86,102.4 "/>
      <polygon fill="black" points="208.29,51.97 208.29,97.35 218.37,97.35 218.37,62.06 364.6,62.06 364.6,208.29 324.26,208.29 324.26,218.37 374.69,218.37 374.69,51.97 "/>
     </g>
    </g>
   </g>
  </g>
 </g>
</svg>
