<?xml version="1.0" encoding="UTF-8"?>
<!DOCTYPE svg PUBLIC "-//W3C//DTD SVG 1.1//EN" "http://www.w3.org/Graphics/SVG/1.1/DTD/svg11.dtd">
<!-- Creator: CorelDRAW 2018 (64-Bit) -->
<svg xmlns="http://www.w3.org/2000/svg" xml:space="preserve" width="0.426661in" height="0.426661in" version="1.1" shape-rendering="geometricPrecision" text-rendering="geometricPrecision" image-rendering="optimizeQuality" fill-rule="evenodd" clip-rule="evenodd"
viewBox="0 0 426.66 426.66"
 xmlns:xlink="http://www.w3.org/1999/xlink"
 enable-background="new 0 0 100 100">
 <g id="Layer_x0020_1">
  <metadata id="CorelCorpID_0Corel-Layer"/>
  <g id="noun-world-globe-828978.svg">
   <g>
    <path fill="black" d="M304.66 207.15c-2.46,-14.64 -6.35,-27.82 -11.04,-39.56 -10.3,3.46 -22.06,6.24 -34.85,8.17 1.9,12.23 3.21,25.85 3.57,40.88 15.5,-2.17 29.8,-5.4 42.32,-9.49z"/>
    <path fill="black" d="M293.84 119.81c-0.2,-0.81 0.57,-1.04 0.77,-1.3 0.22,-0.3 0.44,0.44 0.89,0.73 0.44,0.29 0.8,0.06 1.1,0 0.73,-0.14 0.44,0.29 0.44,0.29l0.96 0.52c0,0 0,0 0.66,1.1 0.66,1.1 0.44,0.51 0.74,0.88 0.3,0.37 0,0 1.03,0.89 1.02,0.88 0,0 0.37,0.15 0.37,0.15 0.73,0.37 1.69,0.81 0.96,0.44 0.88,0.37 1.67,0.59 0.79,0.22 0.97,0.44 1.63,0.89 0.66,0.44 0.66,0.14 1.03,0.22 0.37,0.07 0.67,0.21 1.25,0.44 0.59,0.22 0.96,0.51 1.62,1.25 0.66,0.73 0.44,0.44 0.66,1.4 0.21,0.95 0.15,1.1 0,1.39 -0.15,0.29 -0.73,0.81 -0.73,0.81 0,0 -0.07,0.44 -0.44,1.39 -0.37,0.95 0,0 -0.44,1.18 -0.44,1.17 0.22,0.73 0,1.4 -0.2,0.62 -0.74,1.09 -1.36,1.45 2.84,3.96 5.6,8.22 8.25,12.74 0.47,-0.24 0.96,-0.52 1.56,-0.91 2.75,-1.87 3.19,-1.76 3.74,-2.53 0.56,-0.77 0.22,-2.31 -0.88,-3.19 -1.11,-0.89 -5.18,-1.87 -7.27,-2.31 -2.09,-0.44 -1.66,-0.22 -2.53,-1.32 -0.89,-1.1 0.55,-1.76 1.46,-3.64 0.91,-1.87 -0.37,-3.3 -0.04,-5.51 0.33,-2.2 -1.98,-4.29 -1.98,-7.6 0,-3.3 -0.21,-1.54 -1.21,-4.07 -0.99,-2.53 -0.66,-1.87 -2.98,-3.3 -2.31,-1.43 -2.2,-2.09 -4.18,-1.54 -1.72,0.48 -1.79,0.7 -2.28,0.25 -1.78,1.82 -3.91,3.57 -6.36,5.23 0.37,0.39 0.76,0.82 1.16,1.24z"/>
    <path fill="black" d="M272.06 128.16c-7.01,2.3 -14.86,4.18 -23.34,5.55 0.8,2.4 1.58,4.84 2.33,7.38 1.59,5.39 3.13,11.26 4.53,17.61 0.1,0.18 0.13,0.32 0.09,0.45 1.02,4.67 1.96,9.59 2.8,14.78 12.6,-1.94 24.24,-4.71 34.43,-8.14 -5.04,-12.24 -10.92,-22.89 -16.89,-31.94 -1.3,-1.96 -2.63,-3.84 -3.95,-5.7z"/>
    <path fill="black" d="M215.42 335.24c-0.93,-7.5 -1.69,-15.82 -2.31,-24.76 -15.82,-0.1 -31.2,-1.26 -45.64,-3.36 2.59,8.93 6.16,17.39 10.89,25.22 11.4,1.72 23.87,2.85 37.06,2.9z"/>
    <path fill="black" d="M223.5 335.09c2.38,-10.25 2.74,-9.85 4,-11.42 0.75,-0.94 1.72,-7.64 2.33,-13.45 -4.7,0.19 -9.44,0.31 -14.25,0.31 -0.24,0 -0.47,-0.01 -0.71,-0.01 0.61,8.92 1.39,17.23 2.32,24.7 2.09,-0.01 4.2,-0.08 6.31,-0.14z"/>
    <path fill="black" d="M300.43 299.21c-5.88,1.77 -12.08,3.35 -18.57,4.73 -3.96,1.58 -8.5,3.43 -8.99,4.43 -0.77,1.54 -1.32,0.99 -1.11,2.75 0.22,1.77 3.97,0.89 -0.44,3.53 -4.41,2.65 -4.07,2.31 -5.4,4.18 -1.32,1.87 -0.99,1.55 -2.31,2.87 -1.31,1.32 -0.44,0.66 -1.98,1.87 -1.54,1.21 -0.44,0.56 -1.54,1.21 -1.11,0.66 -1.11,0.34 -2.43,0.66 -1.32,0.33 -1.43,0.44 -2.53,0.44 -1.1,0 -0.66,0.66 -1.98,-0.22 -1.32,-0.89 -0.21,-2.54 -1.54,-1.44 -1.31,1.11 3.97,3.53 2.43,4.85 -1.54,1.33 -1.21,1.33 -2.43,1.76 -1.21,0.44 -1.54,1 -2.42,1.11 -0.33,0.04 -0.8,0.11 -1.27,0.19 -0.08,0.33 -0.16,0.65 -0.24,0.98 15.07,-2 30.49,-5.45 46.09,-10.23 2.63,-8.11 4.84,-16 6.66,-23.66z"/>
    <path fill="black" d="M304.94 208.85c-12.63,4.12 -27.01,7.37 -42.57,9.56 0.19,10.01 -0.06,20.66 -0.83,31.89 0.22,0.01 0.44,0 0.64,0 0.66,0 9.26,-0.55 10.69,6.18 1.1,1.98 0.99,3.41 0.99,3.41l-1.98 1.77c0,0 1.76,-1 3.64,-0.22 1.87,0.77 3.08,0.88 3.85,0.99 0.75,0.11 0.79,0.01 2.13,0.42 9.09,-1.84 17.63,-4.06 25.49,-6.62 1.11,-17.18 0.24,-32.98 -2.04,-47.38z"/>
    <path fill="black" d="M215.43 140.72c-0.57,-1.54 -0.44,-1.74 -1.14,-2.12 -0.07,2.08 -0.14,4.2 -0.21,6.35 0.82,-0.36 1.54,-0.77 1.35,-1.59 -0.28,-1.21 0.61,-1 0,-2.65z"/>
    <path fill="black" d="M213.47 259.02c0.58,-0.22 0.47,-7.5 0.47,-7.5l-1.11 -0.54c0,0 -0.04,-0.14 -0.1,-0.33 0.04,2.98 0.07,5.94 0.13,8.89 0.17,-0.19 0.29,-0.4 0.61,-0.52z"/>
    <path fill="black" d="M306.85 258.09c-6.56,2.1 -13.58,3.97 -20.98,5.59 0.3,0.89 -1.26,0.74 0.65,0.94 2.09,0.22 0.44,-0.44 3.53,-0.22 3.08,0.22 2.09,-0.99 4.95,-0.44 2.86,0.56 3.42,0.67 4.63,1.77 1.21,1.1 1.76,0.21 2.65,1.1 0.88,0.88 1.09,2.09 0.88,3.41 -0.22,1.32 -0.78,2.76 -1.87,3.97 -1.1,1.2 -1.1,0.76 -2.53,2.97 -1.43,2.2 -3.09,2.98 -4.3,5.29 -1.2,2.31 -0.55,7.16 -0.44,7.93 0.11,0.77 0,0.32 -0.33,1.54 -0.33,1.21 -1.54,2.64 -1.87,3.42 -0.33,0.77 -1.32,1.32 -2.97,3.85 -0.56,0.84 -0.58,1.22 -0.49,1.44 4.33,-1.05 8.5,-2.19 12.53,-3.43 3.17,-13.76 5.08,-26.8 5.97,-39.13z"/>
    <path fill="black" d="M247.54 125.85c-1.2,-0.44 -1.31,-0.74 -2.13,-1.46 0.93,2.46 1.85,5.01 2.76,7.66 8.32,-1.31 16.02,-3.13 22.9,-5.33 -4.64,-6.4 -9.42,-12.13 -14.14,-17.3 -0.28,0.24 -0.62,0.5 -0.94,1.24 -0.81,1.83 0,2.13 0,3.53 0,1.39 -0.95,1.18 -1.83,1.98 -0.88,0.81 -1.4,0.73 -0.37,2.57 1.02,1.83 2.13,5.94 2.42,7.56 0.3,1.61 0,0.81 0,2.2 0,1.4 0,0.51 -0.52,0.88 -0.51,0.37 -0.74,0.15 -1.4,0 -0.66,-0.14 -1.17,-1.32 -2.43,-1.32 -1.24,0 -1.83,0.08 -2.65,-0.58 -0.8,-0.66 -0.29,-1.11 -1.68,-1.62z"/>
    <path fill="black" d="M193.9 135.98c0.11,1.1 0.22,1.76 0.88,1.98 0.67,0.22 1.44,0.66 2.42,1.21 0.99,0.55 1.77,0.77 2.54,1.65 0.78,0.88 -0.44,1.1 1,1.76 1.43,0.66 1.54,0.56 2.64,0.88 1.11,0.33 1.43,0 2.53,0.78 1.11,0.78 1.55,0.66 1.65,2.09 0.11,1.43 -0.33,1.43 -0.1,2.86 0.22,1.43 0.88,3.53 1.54,3.64 0.67,0.11 1.11,0.67 1.99,-0.44 0.88,-1.1 0.88,-0.11 1,-2.09 0.1,-1.98 -0.67,-1.43 -0.44,-2.75 0.17,-0.99 0.27,-1.37 0.77,-1.72 0.11,-3.26 0.21,-6.44 0.31,-9.55 -6.54,-0.09 -12.89,-0.46 -19.01,-1.07 0.13,0.19 0.25,0.43 0.28,0.78z"/>
    <path fill="black" d="M206.9 281.59c-1,-0.33 -1.87,-1.22 -1.87,-1.88 0,-0.67 -0.44,-2.65 0,-3.19 0.44,-0.55 1.09,-2.2 1.54,-2.31 0.45,-0.1 0.44,0.76 0.44,-0.1 0,-0.89 -0.89,-1.77 -0.89,-2.1 0,-0.13 0,-0.64 0.04,-1.28 -15.54,-0.39 -30.47,-1.74 -44.37,-3.91 0.25,13.25 1.81,26.24 5.15,38.45 14.53,2.15 30.07,3.34 46.06,3.46 -0.52,-7.76 -0.91,-15.96 -1.23,-24.47 -1.58,-1.07 -4.15,-2.44 -4.86,-2.67z"/>
    <path fill="black" d="M198.53 112.96c0.33,-0.55 0.44,0.22 0.33,-0.55 -0.04,-0.3 -0.2,-0.45 -0.38,-0.61 -0.34,0.81 -0.69,1.63 -1.03,2.46 0.62,-0.54 0.74,-0.76 1.07,-1.3z"/>
    <path fill="black" d="M185.75 224.32c1.21,-2.09 0.99,-2.54 1.87,-2.98 0.67,-0.33 0.26,-0.47 0.99,-0.82 -6.04,-0.47 -11.96,-1.1 -17.73,-1.88 0.26,0.37 0.6,0.77 0.99,1.16 0.89,0.88 1.21,1.32 1.65,2.42 0.44,1.11 -0.77,0.11 0.44,1.11 1.21,0.98 3.09,1.21 3.64,1.43 0.55,0.22 0.89,0.33 1.76,0.44 0.88,0.1 1.76,0.1 3.19,0.1 1.43,0 2.09,-0.1 2.65,-0.55 0.55,-0.44 -0.67,1.66 0.55,-0.44z"/>
    <path fill="black" d="M200.29 241.61c0.22,0.33 0.1,0.54 0.44,0.99 0.33,0.44 0.99,1.43 0.99,1.43 0,0 0.66,0.55 1.1,0.99 0.44,0.44 1.98,1.32 2.76,1.43 0.76,0.11 1.43,0.22 2.53,0 0.54,-0.1 1.7,-0.67 2.82,-1.13 -0.06,-7.89 -0.08,-15.83 -0.04,-23.78 -5.95,-0.07 -11.82,-0.31 -17.59,-0.68 -0.02,0.08 -0.04,0.16 -0.06,0.26 -0.11,0.55 -0.33,0.78 -0.65,1.54 -0.34,0.77 -0.22,0.67 -0.56,1.43 -0.33,0.78 -0.66,1.32 -0.88,1.98 -0.22,0.66 -0.56,1.65 -0.67,2.2 -0.11,0.55 -1.43,3.2 -0.33,3.2 1.1,0 6.06,0 6.93,0.22 0.89,0.22 3.86,4.18 3.97,4.63 0.11,0.44 -0.66,1.1 -0.66,1.88 0,0.77 -0.33,3.08 -0.1,3.41z"/>
    <path fill="black" d="M198.75 159c-0.66,-0.37 -0.66,-0.37 -0.66,-0.37 -1.77,1.15 -3.08,2.14 -3.53,2.14 -0.44,0 -3.85,1.1 -3.85,1.1 0,0 0,0.33 0.99,0.55 0.99,0.22 0.33,0.11 1.54,0 1.21,-0.11 -0.11,-0.22 1.21,-0.11 1.32,0.11 1.21,0.67 1.87,0.89 0.66,0.22 0.66,0.99 1.77,1.1 1.09,0.11 -2.65,0.66 1.09,0.11 3.75,-0.55 3.53,0 3.75,-0.55 0.22,-0.56 -2.64,-2.43 -3.19,-3.31 -0.55,-0.89 -1.21,-0.89 -1.1,-1.21 0.11,-0.33 0.77,0.04 0.11,-0.33z"/>
    <path fill="black" d="M295.81 322.24c1.27,-0.41 2.53,-0.78 3.8,-1.19 11.92,-9.55 22.21,-21.02 30.43,-33.96 -7.92,4.41 -17.27,8.25 -27.67,11.5 -1.79,7.65 -3.98,15.54 -6.57,23.64z"/>
    <path fill="black" d="M213.6 109.95c-0.04,0.02 -0.1,0 -0.13,0.04 -0.3,0.44 -0.63,0.22 -1.29,0.55 -0.67,0.33 -0.89,-0.33 -1.21,0.44 -0.33,0.78 -0.33,1.32 -0.33,1.32 0,0 0,0.33 0.11,1 0.11,0.66 -0.33,0.78 -0.22,1.54 0.11,0.77 0.77,0.67 0.55,1.76 -0.22,1.1 -0.33,1.21 -0.88,1.66 -0.55,0.44 -1.21,0.77 -2.2,1.32 -0.99,0.55 -1.65,0.55 -1.98,0.55 -0.33,0 -0.67,-0.99 -1.1,-0.22 -0.44,0.77 -0.44,0.77 -0.44,0.77 0,0 0.33,0.56 -1.11,0.56 -1.43,0 -0.67,-0.33 -0.56,0.88 0.11,1.21 1.44,0.56 0.11,1.21 -1.32,0.66 0,0 -1.32,0.66 -1.32,0.66 -2.2,0.11 -2.76,1.32 -0.55,1.21 -0.33,1.1 -1.21,1.32 -0.88,0.22 0.11,-0.99 -2.2,0.77 -2.31,1.77 -2.65,1.32 -2.98,2.54 -0.33,1.21 -0.88,1.87 -0.88,2.97 0,0.16 0.01,0.23 0.02,0.33 6.73,0.75 13.78,1.19 21.06,1.29 0.3,-8.95 0.62,-17.21 0.93,-24.57zm-4.06 16.45c-0.11,0.99 0,0 -1.21,1.1 -1.21,1.1 0,0 -1.66,0.77 -1.65,0.77 -0.56,0.22 -0.98,0 -0.44,-0.22 0.44,-0.89 0,-1.32 -0.44,-0.44 -1,-0.22 -1.9,-1.31 -0.9,-1.1 0.13,-0.55 0,-1.21 -0.13,-0.66 0.57,-0.33 0.69,-0.99 0.11,-0.66 1.2,-1.32 1.2,-1.32 0,0 0,0 0.98,0 0.99,0 0.78,0.55 1.33,1.21 0.55,0.66 0.77,0.77 1.54,1.54 0.78,0.76 0.11,0.54 0,1.53z"/>
    <path fill="black" d="M340.69 266.88c4.22,-9.99 7.28,-20.58 9.06,-31.59 -2.56,2.44 -5.52,4.81 -8.82,7.04 0.28,7.82 0.22,15.99 -0.24,24.55z"/>
    <path fill="black" d="M350.19 223.22c-1.55,1.99 -3.31,4.3 -6.39,6.17 -2.63,1.6 -1.53,0.48 -3.72,-0.57 0.34,3.72 0.58,7.55 0.75,11.47 3.58,-2.52 6.7,-5.15 9.33,-7.9 0.49,-3.51 0.85,-7.05 1.07,-10.63 -0.31,0.46 -0.65,0.95 -1.04,1.46z"/>
    <path fill="black" d="M294.46 324.51c-0.01,0 -0.01,-0.01 -0.02,-0.01 -16,4.92 -31.8,8.45 -47.26,10.46 -1.13,4.29 -2.35,8.63 -3.63,13.04 19.18,-4.28 36.87,-12.53 52.14,-23.89 -0.24,0.07 -0.48,0.15 -0.71,0.22 -0.15,0.11 -0.33,0.18 -0.52,0.18z"/>
    <path fill="black" d="M308.67 257.49c-0.86,12.34 -2.74,25.38 -5.85,39.14 11.2,-3.57 21.08,-7.87 29.25,-12.79 2.4,-4.01 4.58,-8.16 6.57,-12.41 0.61,-8.8 0.85,-18.18 0.53,-27.93 -8.3,5.34 -18.62,10.06 -30.5,14z"/>
    <path fill="black" d="M242.76 335.44c-0.35,0.81 -0.82,1.51 -1.5,1.56 -1.54,0.11 -2.31,-0.77 -2.98,-0.44 -0.66,0.33 -1.54,0.66 -1.54,1.33 0,0.66 -0.33,1.75 -0.55,2.19 -0.22,0.44 -0.89,0.77 -1.43,0.99 -0.55,0.22 -1.21,0 -1.32,0.44 -0.11,0.44 -0.55,1.65 -0.55,1.65 0,0 0.22,0.11 0,0.77 -0.22,0.67 -0.89,1.11 -1.32,1.76 -0.44,0.66 -1.77,1.99 -1.77,1.99 0,0 -0.44,0.44 -0.77,0.99 -0.33,0.54 -0.33,0.66 -0.89,0.98 -0.55,0.34 -2.65,0.34 -2.97,0.67 -0.33,0.33 -2.09,0.56 -2.09,0.56 0,0 -2.76,-1.87 0,-13.98 0.01,-0.01 0.01,-0.02 0.01,-0.04 -1.9,0.06 -3.8,0.13 -5.68,0.13 0.69,5.19 1.44,9.94 2.31,14.21 7.45,-0.34 14.76,-1.26 21.86,-2.73 1.32,-4.49 2.56,-8.92 3.71,-13.29 -0.84,0.1 -1.69,0.17 -2.53,0.27z"/>
    <path fill="black" d="M325.84 165.5c0.22,-0.33 4.85,-4.07 5.07,-4.41 0.22,-0.33 1.21,-3.63 1.21,-3.63 0,0 2.43,-2.97 2.85,-3.52 0.44,-0.56 2.98,0.99 2.98,0.99l0.56 0.03c-1.88,-4.03 -3.96,-7.95 -6.21,-11.76 -1.56,2.32 -3.52,4.58 -5.86,6.74 0.21,1.37 0.56,1.83 0.72,2.89 0.22,1.43 1.31,2.43 1.87,4.3 0.55,1.87 0.99,2.65 0,3.85 -0.99,1.21 -1.99,1.66 -2.31,1.39 -0.33,-0.27 -2.31,-0.06 -3.75,-0.17 -0.17,-0.01 -0.29,0 -0.43,0.01 0.88,1.86 1.73,3.76 2.57,5.7 0.15,-1.16 0.53,-2.11 0.72,-2.41z"/>
    <path fill="black" d="M326.26 147.62c1.91,-1.87 3.53,-3.8 4.83,-5.79 -1,-0.57 -2.86,-1.52 -4.26,-1.44 -1.98,0.11 -1.98,2.43 -1.54,3.41 0.41,0.93 0.82,1.31 0.96,3.81z"/>
    <path fill="black" d="M339.11 241.48c-0.18,-4.38 -0.48,-8.83 -0.92,-13.31 -3.63,-1.02 -2.91,-1.59 -3.86,-2.85 -0.99,-1.32 -0.89,-2.31 -1.54,-3.19 -0.66,-0.88 -2.09,-3.52 -2.75,-3.96 -0.66,-0.44 -0.66,-2.09 -0.56,-4.84 0.11,-2.76 0.11,-2.54 -2.86,-6.06 -1.2,-1.43 -1.81,-3.69 -2.14,-6.14 -5.41,2.61 -11.37,5.02 -17.84,7.19 2.31,14.39 3.2,30.17 2.15,47.33 11.89,-4 22.16,-8.76 30.31,-14.16z"/>
    <path fill="black" d="M176.09 331.99c-4.57,-7.83 -8.03,-16.28 -10.54,-25.16 -13.34,-2.02 -25.86,-4.82 -37.07,-8.34 4.06,9.26 9.41,18.13 16.02,26.58 8.96,2.52 19.64,5.02 31.59,6.92z"/>
    <path fill="black" d="M210.13 77.75c-5.54,2.74 -15.21,7.86 -26.79,15.26 1.41,0.49 2.87,0.95 4.43,1.38 -0.01,-0.1 -0.01,-0.19 -0.03,-0.34 -0.11,-0.76 1.1,0 1.1,0 0,0 0.77,-0.8 0.99,-1.12 0.22,-0.33 0.99,-0.11 2.87,-1.43 1.87,-1.32 1.1,0.22 1.22,0l1.75 -0.11 0 1.21c0,0 0,0 -1.54,0.67 -1.54,0.66 0,0 -0.99,0.8 -0.99,0.79 -0.55,0.09 -1.76,1.07 -0.08,0.06 -0.11,0.07 -0.18,0.13 0.58,0.13 1.16,0.28 1.76,0.4 7.33,-8.12 13.43,-14.25 17.18,-17.89z"/>
    <path fill="black" d="M201.75 104.21c-0.08,0.19 -0.17,0.39 -0.24,0.57l0 1.02 0.22 1.43c0,0 0,0.77 0,1.1 0,0.33 -0.67,1.32 -0.67,1.32 0,0 -0.44,0.66 -0.22,0.99 0.22,0.33 1.32,0.99 1.32,0.99 0,0 -0.11,0.22 0.22,0.77 0.33,0.56 0.88,0.11 1.31,-0.11 0.44,-0.21 0.33,0.56 0.44,0.89 0.11,0.33 -0.11,2.76 -0.11,2.76 0,0 -0.33,0.44 0.55,0.11 0.88,-0.33 0.66,-0.11 1.31,-1.11 0.67,-0.99 1,-1.21 1.11,-2.2 0.11,-0.99 0.55,-0.66 0,-1.77 -0.55,-1.1 -1.43,-1.43 -1.65,-1.98 -0.22,-0.56 0,0.55 -0.22,-0.56 -0.22,-1.1 -1.76,0.78 -0.55,-1.98 1.21,-2.76 0.33,-2.2 1.21,-2.76 0.88,-0.55 2.65,-1.87 3.96,-1.87 1.31,0 3.02,0.11 3.71,0.56 0.16,0.09 0.29,0.19 0.44,0.29 0.06,-1.05 0.09,-2.06 0.13,-3.07 -0.55,-0.01 -1.09,-0.02 -1.65,-0.03 -0.02,0.16 -0.24,1.27 -0.64,1.27 -0.44,0 -2.98,-0.11 -3.42,-0.11 -0.44,0 -3.19,-0.11 -3.19,-0.11l-0.66 0.99 -0.33 1.43 -1.65 0.66 -0.74 0.49z"/>
    <path fill="black" d="M207.45 92.59c0.02,-0.22 -0.06,-0.44 -0.15,-0.68 -0.56,1.2 -1.14,2.46 -1.74,3.78 0.25,0.15 0.48,0.3 0.56,0.43 0.22,0.33 2.54,-1 2.54,-1 0,0 0,-1.1 -0.33,-1.15 -0.33,-0.06 -1,-0.38 -0.88,-1.38z"/>
    <path fill="black" d="M168.28 103.27c1.43,0.01 2.08,0.1 2.59,0 0.56,-0.11 0.99,-0.44 1.77,-0.44 0.77,0 1.65,0 1.65,0 0,0 1.1,-0.22 1.1,0.88 0,1.1 0.22,2.42 0.22,2.42 0,0 0.87,0.22 1.04,0.56 0.17,0.33 1.38,1.54 1.38,1.54l0.77 0.99c0,0 0.11,0.44 0.11,0.78 0,0.33 -0.99,0.98 -0.99,0.98 0,0 0,0.78 0.33,1 0.19,0.13 0.29,0.14 0.55,0.13 0.64,-0.78 1.27,-1.54 1.91,-2.31 -0.94,-0.87 -0.48,-0.71 -0.8,-1.35 -0.33,-0.66 0.11,-1.54 0,-1.87 -0.11,-0.33 1.31,-1.43 1.21,-1.87 -0.11,-0.44 -0.11,-0.89 -0.11,-0.89 0,0 -0.67,-0.77 -1.43,-1.11 -0.78,-0.35 -1,0.23 -1.66,0 -0.65,-0.24 0.67,-0.87 0.89,-1.2 0.22,-0.33 0.66,-0.33 1.43,-1.32 0.78,-0.99 0.99,-0.88 2.21,-1.87 1.21,-0.99 3.19,-0.99 4.18,-1.21 0,0 1.32,-0.11 1.76,0 0.45,0.11 -0.11,1.1 -0.77,2.31 -0.67,1.21 0,0 0,1.43 0,0.31 0.07,0.48 0.19,0.57 0.83,-0.96 1.63,-1.84 2.44,-2.76 -0.03,-0 -0.06,-0.01 -0.09,-0.02 -1.43,-0.22 0,0 0.55,-0.78 0.27,-0.38 0.35,-0.54 0.51,-0.7 -3.59,-0.79 -6.88,-1.77 -9.87,-2.89 -4.17,2.71 -8.57,5.72 -13.07,8.99z"/>
    <path fill="black" d="M165.05 304.98c-3.26,-12.24 -4.78,-25.24 -5.03,-38.45 -15.11,-2.46 -28.97,-5.92 -41.06,-10.19 0.48,13.99 3.33,27.36 8.57,39.99 11.28,3.64 23.94,6.54 37.52,8.65z"/>
    <path fill="black" d="M146.33 327.41c2.81,3.44 5.82,6.8 9.06,10.09 0.28,0.29 0.27,0.7 0.07,1.04 10.5,4.88 21.71,8.47 33.44,10.58 -4.47,-4.69 -8.31,-9.77 -11.62,-15.15 -11.59,-1.79 -22.06,-4.13 -30.95,-6.56z"/>
    <path fill="black" d="M213.47 97.33c-0.84,0.11 -1.84,-0.11 -1.84,-0.11 0,0 -1.87,-0.67 -2.42,-0.33 -0.51,0.31 -2.78,0.04 -2.37,0.67 2.38,0.18 4.81,0.28 7.29,0.3 0.01,-0.32 0.03,-0.63 0.04,-0.94 -0.06,0.19 -0.12,0.37 -0.16,0.47 -0.04,-0.06 -0.15,-0.11 -0.53,-0.06z"/>
    <path fill="black" d="M179.56 334.31c3.5,5.49 7.63,10.62 12.39,15.34 7.02,1.11 14.21,1.69 21.53,1.69 1.5,0 2.98,-0.06 4.47,-0.1 -0.85,-4.28 -1.61,-9.04 -2.29,-14.24 -12.81,-0.02 -24.95,-1.08 -36.09,-2.69z"/>
    <path fill="black" d="M159.26 94.09c0.28,0.07 0.43,0.16 0.71,0.05 0.56,-0.22 0.56,0 1.22,-0.11 0.66,-0.11 0.88,-0.11 1.09,0.56 0.22,0.66 1,1.43 1.43,2.2 0.44,0.78 0.33,0.78 0.56,1.54 0.22,0.77 0.33,1.54 0.66,2.09 0.33,0.56 0.55,1.31 0.77,1.98 0.06,0.19 0.04,0.37 0.05,0.55 4.69,-3.45 9.24,-6.58 13.59,-9.43 -3.41,-1.43 -6.3,-3.05 -8.56,-4.84 -3.73,1.63 -7.58,3.43 -11.52,5.41z"/>
    <path fill="black" d="M230.36 301.43c-0.44,-1.33 -4.63,-2.32 -6.06,-2.43 -1.43,-0.12 -4.18,-1.22 -4.74,-2.09 -0.56,-0.89 -1.43,-1.66 -1.65,-2.2 -0.22,-0.56 -0.77,-0.44 -1.1,-1.32 -0.33,-0.89 -1.77,-1.11 -1.37,-1.76 0.39,-0.67 0.47,-1.99 -0.06,-2.64 -0.4,-0.48 -1.16,-1.8 -1.8,-2.81 0.31,7.84 0.69,15.41 1.17,22.59 0.28,0 0.56,0.01 0.83,0.01 4.86,0 9.67,-0.12 14.43,-0.31 0.34,-3.6 0.5,-6.54 0.35,-7.02z"/>
    <path fill="black" d="M139.29 127.57c-8.23,8.02 -16.58,17.39 -24.11,28.03 5.59,3.43 12.26,6.54 19.85,9.27 1.03,-1.81 1.2,-2.4 1.93,-3.44 0.77,-1.1 1.98,-2.75 2.53,-3.86 0.55,-1.1 1.54,-4.95 1.87,-5.73 0.33,-0.77 -0.22,-1.98 -0.11,-2.42 0.11,-0.44 0.11,-0.99 0,-1.54 -0.11,-0.56 -1.32,-2.2 -1.1,-2.97 0.22,-0.78 0.33,-1.76 0.66,-2.09 0.33,-0.33 -0.44,0.33 0.33,-0.33 0.77,-0.66 0.44,-2.87 0.44,-2.87 0,0 0.22,-0.77 0.56,-1.43 0.33,-0.66 0.88,-2.54 0.88,-2.54l0.33 -1.65c0,0 -0.66,-0.33 -0.33,-1.65 0.33,-1.32 -0.11,-1.98 0.33,-2.42 0.44,-0.44 0.44,-3.09 0.77,-3.53 0.33,-0.44 0.44,-0.99 0.56,-1.43 0.1,-0.43 -0.21,-1.4 -0.43,-2.06 -1.66,1.52 -3.31,3.07 -4.95,4.66z"/>
    <path fill="black" d="M128.32 321.83c7.54,5.93 15.7,11.11 24.39,15.38 -3.32,-3.45 -6.39,-6.99 -9.24,-10.61 -5.83,-1.65 -10.93,-3.29 -15.15,-4.78z"/>
    <path fill="black" d="M143.9 194.47c0.87,-1.32 0.8,-3.53 -0.1,-3.97 -0.9,-0.44 -2.44,0 -2.44,0l0.88 2.98c0,0 -0.11,1.21 0.11,1.65 0.22,0.44 0.22,0.88 0.33,1.21 0.11,0.33 0.66,2.2 0.66,2.2l0.33 1.87c0,0 0.55,2.42 0.77,2.76 0.22,0.33 0.22,1.87 0.22,1.87 0,0 0.22,1.33 0.77,1.77 0.55,0.44 0.78,0.99 0.78,0.99 0,0 0,0.66 0,0.99 0,0.33 -0.22,1.76 -0.22,1.76l-0.55 0c0,0 -0.99,-0.55 -0.99,-0.88 0,-0.33 -1.21,-2.09 -1.21,-2.54 0,-0.44 -0.33,-0.44 -0.44,-1.32 -0.11,-0.88 -0.44,-3.42 -0.33,-3.74 0.11,-0.33 -0.44,-0.67 -1.1,-0.99 -0.67,-0.33 -1.77,-1.11 -1.77,-1.11 0,0 0.22,-0.55 0,-0.99 -0.22,-0.44 0,-0.99 0,-0.99 0,0 -0.52,-0.22 -0.09,-0.67 0.43,-0.44 0.31,-1.43 0.43,-1.98 0.1,-0.55 0,-1.32 0,-1.32 0,0 -1.44,-0.66 -1.66,-1.76 -0.22,-1.11 -0.22,-7.16 -1.21,-8.26 -0.76,-0.85 -0.88,-1.05 -1.3,-1.34 -3.62,7.92 -6.83,16.06 -9.44,24.36 8.43,2.77 17.68,5.15 27.55,7.08 -0.03,-0.11 -0.02,-0.24 -0.06,-0.35 -0.56,-1.65 -4.3,-7.71 -4.3,-8.48 0,-0.77 -1.21,-0.99 -1.1,-1.76 0.11,-0.77 -0,-1.98 -0,-1.98 0,0 -5.4,-5.73 -4.51,-7.06z"/>
    <path fill="black" d="M172.75 208.35c-1.21,0.89 -1.54,0.67 -1.76,1.21 -0.22,0.56 -0.88,0.44 -0.66,1.54 0.22,1.1 0,1.76 0,2.87 0,1.09 0,2.31 0,2.64 0,0.13 0,0.17 0,0.21 7.24,0.98 14.73,1.74 22.41,2.25 0.01,0 0.02,0 0.03,0 5.25,0.35 10.56,0.58 15.97,0.68 -0.39,-0.2 -0.73,-0.41 -0.85,-0.6 -0.33,-0.55 -0.56,0 -0.56,0 0,0 -1.21,-1.1 -1.98,-1.54 -0.77,-0.43 -1.98,0.32 -2.87,0 -0.88,-0.32 -0.77,0.77 -1.43,0.99 -0.66,0.21 -0.66,0.55 -1.32,0.55 -0.65,0 -1.1,0 -1.1,0 0,0 0.44,-0.99 0.78,-1.79 0.33,-0.79 2.76,-1.18 3.85,-1.18 1.11,0 2.31,-0.22 3.2,0 0.87,0.21 1.98,1.18 1.98,1.18 0,0 1.47,0.76 2.46,1.2 0.04,-8.37 0.14,-16.71 0.27,-24.93 -0.53,0.27 -1.01,0.53 -1.3,0.95 -0.44,0.66 -1.43,1.31 -1.65,1.65 -0.22,0.33 -1.1,1 -1.21,1.43 -0.11,0.44 -0.67,0.55 -0.56,1.76 0.11,1.21 -0.12,2.75 0.11,3.09 0.22,0.33 0.33,1.31 0.44,1.98 0.11,0.67 0.55,2.1 0.77,2.54 0.22,0.44 0.99,1.43 0.99,1.43 0,0 -0.11,1.88 -0.55,2.53 -0.44,0.67 0.22,0.89 -1.1,1.11 -1.32,0.22 -2.97,-2.98 -3.3,-3.2 -0.33,-0.22 -0.66,0.11 -0.66,-1.21 0,-1.32 0,-1.32 0,-1.32 0,0 -0.33,-0.66 -0.44,-1.65 -0.11,-0.99 0.22,-1.87 -0.56,-1.87 -0.77,0 -0.77,0 -1.54,0 -0.77,0 -0.33,0.55 -1.65,-0.11 -1.32,-0.67 -1.77,-0.99 -2.31,-1.55 -0.55,-0.55 -1.11,-0.66 -2.31,-0.66 -1.21,0 -2.09,0 -2.76,0 -0.66,0 -2.09,-0.22 -2.09,0.11 0,0.33 0.77,0.77 0.66,1.1 -0.11,0.33 -0.44,0.77 -1.21,0.77 -0.77,0 -1.43,-0.11 -2.31,0 -0.88,0.11 0.37,1.21 -2.06,0 -2.44,-1.21 -2.67,-1.76 -3.88,-1.65 -1.21,0.11 0,-0.11 -1.98,0.55 -1.98,0.66 -5.73,2.65 -5.73,2.98 0,0.33 -0.56,0.21 -0.56,0.77 0,0.56 -0.11,0.88 0.11,1.21 0.22,0.31 1.43,1.09 0.22,1.97z"/>
    <path fill="black" d="M130.44 111.42c-11.15,7.98 -21.95,17.53 -31.34,28.86 2.87,5.18 7.85,10.02 14.58,14.37 7.63,-10.78 16.08,-20.26 24.41,-28.38 1.7,-1.65 3.41,-3.26 5.13,-4.83 -3.06,-1.68 -5.77,-3.48 -8.07,-5.37 -0.1,0.14 -0.23,0.26 -0.4,0.3 -0.44,0.11 -2.09,0.44 -2.09,0.44 0,0 -1.32,0.77 -1.87,1.1 -0.56,0.33 -1.88,0.33 -2.54,0.55 -0.66,0.22 -0.99,0.33 -1.87,0.44 -0.88,0.11 -3.19,-0.11 -3.19,-0.11 0,0 -0.66,-1.11 0,-1.11 0.66,0 0.89,0 1.65,-0.11 0.77,-0.11 0.67,-0.66 1.31,-0.66 0.67,0 1.66,-0.56 1.66,-0.56 0,0 1.1,-0.66 1.55,-0.66 0.44,0 0.66,-0.44 1.09,-0.66 0.1,-0.05 0.12,-0.06 0.14,-0.07 0.01,-0 0.03,-0.02 0.03,-0.02 0.04,-0.02 0.12,-0.06 0.28,-0.13 0.66,-0.33 0.44,0.77 0.66,-0.33 0.18,-0.89 -0.05,-1.15 0.07,-1.72 -0.42,-0.45 -0.81,-0.91 -1.19,-1.37z"/>
    <path fill="black" d="M131.77 110.46c0.12,0.15 0.25,0.29 0.37,0.43 0.05,-0.27 0.11,-0.53 0.19,-0.81 -0.18,0.13 -0.38,0.25 -0.56,0.38z"/>
    <path fill="black" d="M149.4 99.42c0.02,-0.04 0.03,-0.06 0.04,-0.09 -0.43,0.24 -0.86,0.47 -1.3,0.72 0.06,0.06 0.15,0.08 0.26,0.03 0.45,-0.22 0.67,-0.22 1,-0.66z"/>
    <path fill="black" d="M273.85 127.58c1.2,1.71 2.41,3.44 3.59,5.24 6.07,9.19 12.04,19.98 17.14,32.4 8.24,-2.88 15.49,-6.19 21.48,-9.87 -1.08,-1.26 -2.62,-3.05 -2.88,-4.18 -0.17,-0.74 0.17,-1.04 0.89,-1.41 -3.16,-5.38 -6.68,-10.67 -10.58,-15.81 -0.08,0.1 -0.18,0.23 -0.26,0.42 -0.62,1.32 -0.04,0.44 -1.07,0.88 -1.02,0.44 -0.95,-0.37 -1.68,-1.1 -0.73,-0.73 -0.07,-1.47 -0.44,-1.91 -0.36,-0.44 -0.22,-0.44 -1.03,-1.03 -0.81,-0.59 -0.44,-1.03 -0.88,-1.63 -0.33,-0.45 0.11,-1.07 0.51,-1.69 -2.36,-2.82 -4.87,-5.61 -7.49,-8.33 -4.79,3.01 -10.6,5.72 -17.3,8.02z"/>
    <path fill="black" d="M307.17 131.51c0,0 0,0 -0.81,-0.2 -0.81,-0.19 -0.66,-0.24 -1.25,-0.76 -0.59,-0.51 -0.37,-0.73 -0.59,-0.97 -0.22,-0.24 -0.37,-0.93 -0.39,-1.16 -0.02,-0.22 -0.2,-0.88 -0.49,-1.18 -0.3,-0.3 -0.3,-0.51 -1.03,-0.66 -0.74,-0.15 -1.61,-0.15 -2.13,-0.44 -0.51,-0.3 -0.66,-1.11 -1.18,-1.47 -0.44,-0.31 -0.51,-0.17 -1.46,-0.44 1.65,1.9 3.3,3.89 4.93,5.95 0.53,0.22 0.58,0.41 0.69,0.87 1.24,1.59 2.48,3.25 3.7,4.94 0.04,-0.05 0.07,-0.09 0.07,-0.09 0,0 -0.22,-2.42 -0.06,-3.31 0.15,-0.88 0.01,-1.09 0.01,-1.09z"/>
    <path fill="black" d="M237.74 80.5c5.32,2.31 11.41,5.3 18,9.13 1.46,-0.81 2.73,-1.69 3.85,-2.59 -7.64,-2.54 -15.2,-4.74 -21.85,-6.54z"/>
    <path fill="black" d="M252.02 98.1c0.81,1.1 3.38,2.86 4.56,3.6 1.18,0.73 2.35,1.91 1.91,2.71 -0.44,0.81 -1.11,-0.22 -0.95,2.65 0,0.15 0,0.25 0,0.39 5.11,5.54 10.29,11.78 15.3,18.72 6.66,-2.25 12.42,-4.89 17.13,-7.83 -2.09,-2.13 -4.24,-4.23 -6.5,-6.29 -9.39,-8.54 -18.96,-15.2 -27.78,-20.41 -1.99,1.06 -4.21,2.04 -6.65,2.91 1.23,1.35 2.54,2.93 2.99,3.56zm13.81 12.33c0.3,-1.32 1.39,0.07 1.91,0 0.51,-0.07 0.59,0 0.59,0 0,0 0.88,-0.58 0.95,-0.8 0.07,-0.22 0.29,-0.74 0.81,-1.47 0,0 0.37,0 0.61,0 0.24,0 0.93,0.15 1.52,0.66 0.59,0.52 0.67,0.73 1.91,0.89 1.25,0.15 1.03,0.37 1.55,1.17 0.51,0.82 0.3,0.59 0,2.5 -0.3,1.91 -0.07,0.73 -1.55,2.28 -1.46,1.54 -0.73,0.67 -2.56,0.44 -1.84,-0.22 -1.62,-0.73 -2.43,-1.25 -0.8,-0.51 -2.57,-1.47 -3.3,-2.35 -0.73,-0.89 -0.3,-0.74 0,-2.06z"/>
    <path fill="black" d="M243.38 333.6c0.81,-0.09 1.6,-0.16 2.41,-0.26 0.07,-0.29 0.15,-0.57 0.23,-0.87 -0.01,0.01 -0.03,0.01 -0.03,0.01 -0.44,0.1 -2.2,0.21 -2.42,0.55 -0.05,0.07 -0.12,0.29 -0.19,0.57z"/>
    <path fill="black" d="M225.73 175.75c-2.31,1.65 -3.19,0.33 -3.85,1.21 -0.04,0.04 -0.04,0.06 -0.07,0.1 12.15,-0.26 23.89,-1.25 34.93,-2.87 -0.77,-4.74 -1.63,-9.27 -2.55,-13.58 -0.31,0.04 -0.57,-0.19 -1.09,-0.19 -0.72,0 -1.71,0 -1.43,-0.45 0.27,-0.45 0.99,-0.98 0.66,-1.04 -0.33,-0.06 -0.77,0.33 -2.31,0.55 -1.54,0.22 -1.04,0.5 -2.81,0.39 -1.76,-0.11 -1.21,0.28 -2.92,0 -1.71,-0.28 0,0 -0.22,-0.61 -0.22,-0.6 0,-0.71 0,-0.93 0,-0.21 0.33,-0.82 0.5,-1.65 0.16,-0.83 0.38,-0.77 0.44,-1.22 0.08,-0.44 0.16,-0.77 0.04,-1.04 -0.11,-0.28 0.06,-0.88 0,-1.27 -0.05,-0.39 0.94,-0.93 1.82,-2.2 0,0 0.27,0.06 0.55,0 0.28,-0.06 0.06,0.33 0.06,0.66 0,0.33 0,0.89 0,1.32 0,0.43 0.28,0.99 0.5,1.21 0.22,0.22 0.38,0.28 0.38,0.28 0,0 0.28,0.06 0.72,-0.06 0.44,-0.11 0.99,0 2.59,0.33 1.59,0.33 0.22,0.28 0.71,0.83 0.39,0.42 0.44,0.4 0.86,0.81 -1.22,-5.26 -2.52,-10.2 -3.88,-14.76 -0.78,-2.61 -1.58,-5.14 -2.4,-7.59 -4.46,0.68 -9.1,1.21 -13.85,1.59 0.63,1.19 1.19,2.68 1.66,3.15 0.55,0.55 0.44,2.87 1.87,3.19 1.43,0.33 0.77,-0.11 2.09,0.44 1.32,0.55 2.98,1.32 3.3,1.43 0.33,0.11 0.33,-1.21 0.33,0.11 0,1.31 -0.22,1.1 0.87,1.54 1.11,0.44 1.66,0.44 2.2,0.77 0.55,0.33 0.66,0.99 0.78,1.65 0.11,0.66 -1.1,1.76 -1.32,2.09 -0.22,0.33 -0.77,0.22 -0.99,0.99 -0.22,0.78 -0.89,2.09 -1.43,2.76 -0.55,0.67 -0.22,0.89 -2.42,0.99 -2.2,0.11 -4.52,-0.11 -5.62,0.11 -1.1,0.22 -1.65,0 -2.43,0.56 -0.77,0.55 -1.87,0.77 -2.43,1.54 -0.55,0.77 -0.44,0.13 -1.54,1.72 -1.11,1.58 -0.78,0.93 -1.11,1.58 -0.33,0.67 -2.42,0.89 -0.33,0.67 2.09,-0.22 2.65,-0.56 3.19,-1 0.56,-0.44 0.33,-0.09 1.11,-1.26 0.77,-1.17 -1.11,-0.61 0.77,-1.17 1.87,-0.55 1.98,-0.66 3.19,-0.66 1.21,0 1.33,-0.56 1.88,0.11 0.56,0.66 0.89,0.24 0,1.72 -0.88,1.47 -1.98,1.26 -1.98,2.03 0,0.77 -1.21,0.33 0,0.77 1.21,0.44 0.33,-0.55 1.21,0.44 0.88,0.98 -1.11,0.44 0.88,0.98 1.98,0.56 0.66,-0.11 1.98,0.56 1.32,0.66 2.31,0.99 2.31,0.99 0,0 0,0.55 0.11,0.99 0.11,0.44 -2.65,2.53 -2.98,3.08 -0.33,0.55 -2.2,2.43 -3.42,2.65 -1.21,0.22 -1.43,1.31 -1.76,-0.22 -0.33,-1.55 1.54,-3.08 1.76,-3.63 0.22,-0.56 2.2,-2.65 0.12,-1.32 -2.09,1.32 -2.42,2.09 -2.76,2.31 -0.33,0.22 -0.77,0.66 -1.76,1.09 -0.99,0.44 -1.21,0.33 -1.88,0.88 -0.66,0.56 -1.32,0.99 -1.32,1.32 0,0.33 -0.44,1.21 -0.44,1.77 0,0.55 0.22,0.66 0,1.21 -0.22,0.57 1.21,-0.42 -1.1,1.24z"/>
    <path fill="black" d="M161.77 264.92c14.02,2.26 29.05,3.65 44.61,4.06 0.12,-0.54 0.28,-1.08 0.52,-1.59 0.88,-1.87 1.43,-4.73 2.2,-5.29 0.49,-0.35 1.3,-1.09 2.02,-1.63 -0.07,-4.04 -0.13,-8.11 -0.17,-12.22 -0.45,-0.2 -0.87,-0.37 -0.87,-0.37l-1.32 0.56 -1.54 1.22 -1.43 1.32c-0.88,-0.89 -2.75,-1.98 -2.75,-1.98 0,0 -1.77,0 -2.31,0.1 -0.55,0.12 -1.32,-2.87 -2.54,-2.87 -1.21,0 -1.76,1.33 -2.53,0 -0.78,-1.31 -1.43,-2.09 -1.43,-2.97 0,-0.89 -1.98,-4.74 -3.96,-5.28 -1.98,-0.56 -2.31,-0.13 -3.19,-0.67 -0.89,-0.55 -0.78,0.44 -2.2,-1.09 -1.43,-1.54 -3.96,-4.3 -5.51,-5.07 -1.54,-0.77 -2.97,0.56 -6.39,0 -2.06,-0.33 -5.87,-2.13 -8.62,-3.51 -1.73,12.33 -2.7,24.89 -2.58,37.28z"/>
    <path fill="black" d="M249.19 244.14c0.66,0 0.66,0 0.66,0 0,0 -0.66,0.67 -0.55,1 0.11,0.33 -1.1,-0.66 0.11,0.33 1.21,0.98 1.87,0.66 2.42,0.66 0.55,0 0,-0.44 1.43,0.1 1.43,0.56 2.42,0.78 2.97,1.55 0.56,0.78 0.56,0.44 0.56,1.43 0,0.98 0.44,-0.33 2.31,0.44 0.28,0.11 0.48,0.17 0.7,0.26 0.76,-11.01 1,-21.44 0.82,-31.27 -13.61,1.82 -28.06,2.83 -42.98,2.93 0.84,0.25 1.81,0.25 3.24,0.66 1.98,0.55 0.55,0.76 0.55,0.76 0,0 -1.1,0.67 -2.31,1.16 -1.21,0.48 -1.21,-0.17 -2.54,-0.06 -1.32,0.11 -1.21,0.11 -3.07,-0.89 -1.85,-0.98 0.54,-0.65 -0.05,-1.09 -0.33,-0.25 -0.21,-0.39 -0.09,-0.56 -0.24,0 -0.49,0 -0.74,-0 -0,1.62 -0.01,3.24 -0.01,4.86 0.33,-0.33 1.65,0.54 2.81,0 0.93,-0.44 2.37,0.55 2.37,1.1 0,0.54 0,0 -1.21,0.88 -1.21,0.88 -0.77,0.11 -1.65,0 -0.88,-0.12 0,0 -1.46,-0.39 -0.42,-0.12 -0.67,-0.19 -0.84,-0.26 -0.01,5.68 0.01,11.35 0.06,16.98 0.37,-0.07 0.66,-0.07 0.79,0.07 0.59,0.66 -0.3,2.2 0.59,3.08 0.88,0.89 0.88,0.89 0.88,0.89l1.43 0.44c0,0 1.21,-2.65 1.54,-2.87 0.33,-0.22 0,0.11 0.78,-0.99 0.77,-1.1 0.77,-1.1 1.65,-1.32 0.89,-0.22 0.22,0.44 1.88,-0.78 1.65,-1.2 2.97,-2.09 3.42,-2.2 0.44,-0.11 2.09,-1.33 2.2,-1 0.11,0.33 -0.77,0.67 -0.88,1.44 -0.11,0.76 -0.11,-0.11 -0.11,0.76 0,0.89 -0.99,3.42 -0.33,3.75 0.66,0.33 1.77,-0.11 1.77,-0.11 0,0 0.1,-0.99 0,-1.32 -0.11,-0.33 -0.33,-1.1 0.44,-1.54 0.77,-0.44 0.22,0.33 0.77,-0.44 0.55,-0.76 0.44,-1.65 1.54,-1.54 1.11,0.11 0.44,0.33 1.65,0.78 1.21,0.43 1.87,0.87 1.87,0.87 0,0 1.43,0.33 2.2,0.33 0.76,0 0.55,0 1.43,0 0.88,0 1.98,0 1.98,0 0,0 3.19,0 4.07,-0.33 0.88,-0.33 0.44,-0.56 1.43,-0.56 0.99,0 1.77,0.67 2.2,1.11 0.42,0.44 0.64,0.87 1.3,0.87zm-15.09 -18.26c-0.44,-0.3 -0.44,0.64 -1.43,0.64 -0.99,0 -2.09,0.11 -3.85,0.89 -1.76,0.77 -0.99,0.21 -2.76,0.46 -1.76,0.24 -0.44,0.08 -1.76,-0.04 -1.31,-0.1 -1.98,0.11 -3.19,0 -1.21,-0.1 -0.44,-0.77 0,-1.54 0.44,-0.77 2.09,-0.67 2.2,-1.1 0.08,-0.33 1.03,-0.11 1.34,-0.02 -0.41,-0.14 -1.34,-0.85 -1.34,-0.85 0,0 0.56,-0.46 2.76,-0.56l1.6 0.56c0,0 1.48,-0.01 2.14,0 0.67,0.01 1.21,-0.01 3.09,0 1.87,0.01 1.98,0.43 1.98,1.55 0,1.13 -0.32,0.31 -0.77,0zm7.49 0.43c-0.33,0 -0.55,0.44 -0.55,0.44 0,0 0,0 -0.67,0.56 -0.66,0.55 0,0 -0.55,0.22 -0.55,0.22 0,0 -1.01,0.04 -1.02,0.04 -0.74,-0.14 -0.74,-0.59 0,-0.44 -0.11,-0.44 0,-0.66 0.1,-0.22 0.77,-0.33 1.54,-0.42 0,0 1.65,0.42 1.98,0 0.34,-0.41 0.34,0.42 0.01,0.42z"/>
    <path fill="black" d="M325.52 185.77c0.44,-2.09 1.54,-3.3 1.54,-4.3 0,-0.91 0.26,-2.35 0.14,-3.61 -1.88,-5.21 -4.04,-10.39 -6.47,-15.52 -0.17,-0.02 -0.32,-0.06 -0.49,-0.15 -0.78,-0.44 -1.21,-1.21 -1.55,-2.53 -0.27,-1.08 -0.8,-1.94 -1.46,-2.83 -6.12,3.81 -13.51,7.22 -21.94,10.17 4.7,11.76 8.59,24.94 11.06,39.57 6.52,-2.2 12.52,-4.65 17.93,-7.28 -0.22,-3.1 -0.09,-6.28 -0.09,-8.36 -0,-4.18 0.88,-3.08 1.32,-5.17z"/>
    <path fill="black" d="M199.14 98.95c-0.34,-0.33 -0.63,-0.25 -0.57,-0.48 -1.03,-0.15 -2.06,-0.29 -3.05,-0.46 -0.04,0.01 -0.06,0.01 -0.09,-0.02 -0.07,-0.01 -0.14,-0.03 -0.2,-0.04 -0.14,0 -0.37,0.04 -0.78,0.14 -1.58,0.42 -0.16,0.04 -1.79,0.5 -0.76,0.84 -1.52,1.69 -2.3,2.57 0.11,0 0.22,-0.01 0.35,0.01 1.76,0.22 1.43,0 1.43,0.66 0,0.67 0,0.88 -0.22,1.54 -0.22,0.66 -0.11,0.89 -0.33,2.24 -0.22,1.36 0.22,0.4 0.44,1.39 0.22,0.99 1.43,1.65 1.76,2.75 0.33,1.1 0,0 -0.98,0.78 -1,0.77 0,0 -1.22,0.31 -1.2,0.31 -1.43,-0.64 -2.53,-0.86 -1.1,-0.22 -0.11,-1.11 -0.88,-1.55 -0.77,-0.44 -0.88,0.33 -2.65,0.89 -1.76,0.55 -1.54,1.21 -3.34,1.43l-0.01 0c-0.33,0.4 -0.66,0.81 -0.99,1.2 0.35,-0.05 0.59,-0.1 0.59,-0.1 0,0 0.77,0 0.77,0.44 0,0.44 0,0.44 0,0.44 0,0 2.43,-0.67 2.75,-0.89 0.33,-0.22 1.11,-1.76 1.65,-1 0.56,0.78 0.67,1 1.32,1.32 0.66,0.33 0.33,0 1.32,0.56 1,0.55 1.88,0.76 2.43,0.99 0.56,0.22 0.22,0.33 1.21,0.11 0.99,-0.22 0.33,-0.56 0.99,-0.22 0.66,0.33 0.66,1.44 0.66,1.44 0,0 -0.24,0.47 0.14,0.45 0.87,-2.1 1.72,-4.15 2.57,-6.11 -0.16,-0.13 -0.24,-0.04 0.26,-0.61 1.43,-3.35 2.83,-6.57 4.15,-9.52 -0.06,0.05 -0.1,0.08 -0.18,0.15 -0.67,0.55 -0.44,0.11 -1.43,0 -0.99,-0.11 0,0 -0.88,-0.11 -0.89,-0.11 0,0 -0.38,-0.36zm0.26 3.11c-0.33,0.66 0,0 -0.44,0.77 -0.44,0.78 0,0 -0.33,1.16 -0.33,1.15 0.22,0.39 0,1.27 -0.22,0.88 0,0 -0.88,0.44 -0.88,0.44 0,0 -0.55,0.44 -0.55,0.44 0,0 -1.1,0.22 -0.5,0.1 -0.66,0.26 -0.71,0.35 0.02,-0.06 0.05,-0.17 0.05,-0.35 0,-0.77 0,0 -0.22,-0.73 -0.22,-0.73 -0.44,-1.04 0,-2.13 0.44,-1.1 0,0 0.44,-0.33 0.44,-0.33 1.54,-0.44 2.09,-0.99 0.56,-0.56 0.8,-0.67 0.8,-0.67 0,0 1.19,-0.11 0.85,0.55z"/>
    <path fill="black" d="M87.2 237.9c7.65,5.93 17.83,11.22 29.92,15.7 -0.02,-1.8 -0.02,-3.61 0.03,-5.44 0.42,-13.54 2.98,-26.99 6.98,-40.08 -11.45,-3.89 -21.39,-8.5 -29.31,-13.67 -4.67,13.29 -7.51,27.81 -7.62,43.49z"/>
    <path fill="black" d="M124.65 206.46c2.67,-8.44 5.95,-16.7 9.65,-24.75 -0.16,-0.19 -0.26,-0.44 -0.3,-1.01 -0.11,-1.33 -0.22,-5.4 0,-7.16 0.21,-1.76 -0.13,-6.18 -0.13,-6.18 0,0 -0.11,-0.07 0.36,-1.02 -7.61,-2.77 -14.33,-5.93 -19.98,-9.41 -7.42,10.69 -13.98,22.64 -18.79,35.8 7.81,5.2 17.72,9.82 29.2,13.72z"/>
    <path fill="black" d="M136.22 114.89c0.37,0.3 0.76,0.6 1.17,0.91 0.07,-0.5 0.19,-1.08 0.56,-1.26 0.56,-0.25 1.32,-0.8 1,-0.8 -0.27,0 -1.98,0.79 -2.72,1.15z"/>
    <path fill="black" d="M139.49 116.38c-0.15,0 -0.65,0.09 -1.14,0.15 1.41,1.02 2.96,2.01 4.63,2.96 -0.1,-0.82 -0.29,-1.79 -0.29,-1.79 0,0 -0.33,-3.74 -0.44,-3.08 -0.11,0.67 -1.43,1.21 -1.43,1.21 0,0 -0.99,0.55 -1.32,0.55z"/>
    <path fill="black" d="M218.13 184.01c-1.43,-0.11 -0.77,0.22 -1.43,-0.11 -0.66,-0.33 -1.22,3.52 -1.26,4.4 -0.06,0.88 1.15,0.67 0,1.98 -1.16,1.32 -0.28,0.77 -1.16,1.32 -0.54,0.33 -0.93,0.63 -1.33,0.93 -0.14,8.63 -0.24,17.41 -0.29,26.21 0.14,-0.02 0.22,-0.03 0.42,-0.05 1.55,-0.1 1.1,0.44 1.76,1 0.06,0.04 0.1,0.08 0.15,0.13 0.2,0 0.4,0 0.61,0 15.65,0 30.8,-1.02 45,-2.93 -0.35,-15.04 -1.67,-28.66 -3.56,-40.87 -11.36,1.63 -23.5,2.61 -36.14,2.83 -0.33,0.98 -0.55,1.54 -0.76,2.08 -0.22,0.55 -0.89,0.66 -1.43,1.87 -0.56,1.21 0.88,1.32 -0.56,1.21z"/>
    <path fill="black" d="M204.79 97.37c0.06,0.01 0.1,0.02 0.17,0.02 -0.05,-0.03 -0.09,-0.04 -0.15,-0.06 -0.01,0.02 -0.01,0.04 -0.02,0.04z"/>
    <path fill="black" d="M162.7 226.78c-0.92,-0.48 -1.52,-0.81 -1.52,-0.81l-2.2 -0.77 -2.65 -1.87c0,0 -2.43,-1.43 -2.53,-3.86 -0.06,-1.41 0.11,-2.55 0.18,-3.59 -10.08,-1.96 -19.54,-4.39 -28.17,-7.23 -3.95,12.93 -6.49,26.2 -6.9,39.56 -0.07,2.02 -0.07,4.02 -0.04,6.01 12.09,4.33 26,7.87 41.12,10.39 -0.1,-12.57 0.92,-25.33 2.7,-37.83z"/>
    <path fill="black" d="M203.42 100.43c0.49,-0.28 0.85,-0.46 1.38,-0.46 0.64,0 0.86,0.08 0.87,-0.71 -0.56,-0.04 -1.11,-0.1 -1.67,-0.16 -0.19,0.44 -0.39,0.87 -0.59,1.32z"/>
    <path fill="black" d="M141.2 104.23c0.83,-0.25 1.05,-0.43 1.7,-0.52 0.78,-0.11 0.44,0.66 0.78,-0.11 0.1,-0.22 0.06,-0.56 -0.02,-0.89 -0.81,0.5 -1.63,1.01 -2.46,1.52z"/>
    <path fill="black" d="M257.44 90.65c8.67,5.19 18.02,11.74 27.2,20.09 2.26,2.06 4.55,4.27 6.84,6.61 2.39,-1.61 4.44,-3.3 6.16,-5.06 -1.05,-0.61 -2.67,-1.29 -5.17,-1.97 -3.63,-0.99 -3.97,-5.61 -3.97,-5.61 0,0 -5.73,-6.94 -6.72,-7.71 -1,-0.77 -1.87,-1.43 -2.97,-1.87 -0.57,-0.23 -1.37,-0.98 -2.21,-1.82 -4.83,-2 -9.94,-3.88 -15.07,-5.61 -1.16,1.04 -2.55,2.03 -4.1,2.96z"/>
    <path fill="black" d="M143.51 100.77c0.03,-0.04 0.01,-0.11 0.06,-0.14 0.66,-0.44 0.77,-0.67 1.43,-0.88 0.64,-0.22 1.07,-0.63 1.5,-0.75 2.01,-1.17 4.02,-2.3 6.01,-3.37 0.37,-0.46 0.15,-0.43 0.64,-0.51 0.2,-0.03 0.37,-0.07 0.54,-0.11 5.35,-2.85 10.6,-5.38 15.62,-7.61 -1.29,-1.22 -2.3,-2.5 -3,-3.83 -2.76,1 -5.46,2.13 -8.13,3.3 -0.04,0.07 -0.05,0.13 -0.11,0.22 -0.5,0.67 -0.82,0.67 -1.43,1.54 -0.61,0.88 -1.27,0.99 -1.76,1.7 -0.5,0.71 -0.72,0.89 -1.17,1.32 -0.44,0.44 -0.98,0.55 -2.04,1.37 -1.05,0.83 -1.59,0.72 -2.48,1.7 -0.88,1 -0.27,0.78 -1.48,1.43 -1.21,0.67 -1.93,1.1 -2.86,1.54 -0.93,0.44 -0.33,-0.27 -2.15,1.1 -1.82,1.38 -2.86,2.15 -3.36,3.08 -0.5,0.93 -0.99,1.32 -0.5,-0.28 0.5,-1.59 1,-2.04 1.7,-2.7 0.72,-0.66 1.88,-2.09 2.04,-2.53 0.17,-0.44 1.21,-0.99 0,-0.93 -0.52,0.02 -0.82,0.05 -1.06,0.09 -4.53,2.78 -8.86,5.82 -13.02,9.08 0.51,1.5 1.24,2.98 2.23,4.43 4.25,-2.98 8.52,-5.72 12.79,-8.28z"/>
    <path fill="black" d="M96.8 139.65c-0.61,0.96 -1.22,1.93 -1.81,2.91 0.65,-0.84 1.34,-1.65 2.01,-2.48 -0.07,-0.14 -0.13,-0.29 -0.2,-0.43z"/>
    <path fill="black" d="M198.11 92.61c-0.42,0.82 -0.57,1.43 -0.57,1.43 0,0 0.11,1.08 0,2.06 -0.02,0.17 -0.04,0.26 -0.07,0.37 0.71,0.11 1.45,0.21 2.17,0.31 0.21,-0.35 -0.13,-0.06 -0.17,-0.34 -0.06,-0.33 0.82,-1.1 1.44,-1.23 0.61,-0.12 0.93,0 0.93,0l0.44 0.56c0,0 0,0 -0.11,1.28 -0.01,0.02 0,0.04 0,0.06 0.23,0.03 0.46,0.04 0.69,0.07 0.06,-0.07 0.1,-0.13 0.1,-0.13 0,0 0.03,0.02 0.04,0.03 0.51,-1.11 1.01,-2.25 1.49,-3.3 -0.18,-0.07 -0.4,-0.19 -0.79,-0.43 -0.88,-0.55 0,0 -0.42,-0.06 -0.42,-0.06 -0.35,0.29 -0.9,0.29 -0.56,0 0,0 -0.66,-0.33 -0.66,-0.33 0,0 -0.44,0.05 -0.44,0.04 -0.44,-1.15 -0.22,-1.81 0.22,-0.67 0,0 0.44,-0.55 0,0 0.88,-0.23 1.65,-0.01 0.77,0.22 0,0 0.64,0.01 0.51,0.01 0.93,0.35 1.67,0.75 2.57,-5.55 4.74,-10 6.24,-13 -3.04,2.94 -7.81,7.7 -13.58,13.91z"/>
    <path fill="black" d="M181.24 92.26c13.47,-8.69 24.57,-14.39 29.85,-16.94 -0.72,0.01 -1.43,0.03 -2.15,0.06 -6.2,1.56 -19.8,5.38 -36.24,12.46 2.29,1.63 5.17,3.12 8.54,4.43z"/>
    <path fill="black" d="M171.14 86.6c11.65,-5.06 21.92,-8.52 29.3,-10.7 -11.26,1.06 -22.11,3.48 -32.43,7.1 0.72,1.25 1.79,2.46 3.13,3.61z"/>
    <path fill="black" d="M129.39 110.02c-0.98,-1.39 -1.78,-2.81 -2.34,-4.26 -11.3,9.1 -21.14,19.94 -29.11,32.11 0.09,0.23 0.19,0.46 0.3,0.69 9.37,-11.18 20.09,-20.62 31.15,-28.54z"/>
    <path fill="black" d="M76.44 229.81c1.94,16.21 6.7,31.56 13.78,45.57 -3.31,-12.79 -4.78,-24.98 -4.79,-36.54 -3.57,-2.88 -6.59,-5.88 -9,-9.03z"/>
    <path fill="black" d="M117.17 255.68c-11.99,-4.38 -22.14,-9.59 -29.94,-15.45 0.12,12.56 1.99,25.85 6.11,39.86 8.34,6 19.25,11.22 31.98,15.5 -5.02,-12.63 -7.76,-25.95 -8.15,-39.91z"/>
    <path fill="black" d="M93.93 191.73c4.84,-13.13 11.41,-25.05 18.81,-35.72 -6.7,-4.33 -11.76,-9.13 -14.81,-14.28 -3.43,4.24 -6.66,8.72 -9.63,13.47 -3.39,7.27 -6.18,14.88 -8.26,22.77 3.07,4.9 7.8,9.51 13.9,13.76z"/>
    <path fill="black" d="M85.44 236.48c0.27,-15.54 3.19,-29.92 7.87,-43.11 -5.93,-4.06 -10.61,-8.47 -13.87,-13.13 -2.61,10.6 -4.03,21.67 -4.03,33.07 0,4.33 0.23,8.61 0.62,12.84 2.3,3.6 5.47,7.06 9.4,10.33z"/>
    <path fill="black" d="M219.67 107.24c0.66,0.55 1.66,0.77 2.43,1.32 0.77,0.55 0.89,4.62 1.1,4.95 0.22,0.33 2.43,2.31 2.98,2.65 0.55,0.33 2.09,-0.33 2.53,0.88 0.44,1.21 0.88,3.09 0.88,3.42 0,0.33 0.44,1.54 -0.66,0.55 -1.1,-0.99 -1.66,-1.76 -2.09,-1.76 -0.44,0 -2.09,-0.33 -1.87,0.33 0.22,0.66 -0.44,0.44 1.32,1.87 1.76,1.43 3.52,2.09 3.52,2.09 0,0 0.89,0.77 -0.55,1.2 -1.43,0.44 -2.65,0.44 -3.63,0.33 -0.99,-0.11 -1.11,0.22 0,0.66 1.09,0.44 1.87,0.55 2.31,1.1 0.44,0.55 1.55,1.21 0,1.54 -1.54,0.33 0,-0.55 -2.2,0.44 -2.2,0.99 -2.87,0.56 -3.63,-0.44 -0.77,-1 -1.55,-1.65 -2.76,-2.75 -1.21,-1.1 -2.31,-1.65 -2.31,-1.65 0,0 -0.88,0.99 -1.59,1.32 -0.23,0.1 -0.46,0.16 -0.68,0.17 -0.06,1.69 -0.12,3.41 -0.19,5.15 0.27,-0.87 0.59,-1.44 0.87,-1.81 0.49,-0.66 -0.28,-1.21 1.37,-0.99 1.66,0.22 2.42,0.22 3.09,0.44 0.66,0.22 1.54,0.44 1.87,0.99 0.33,0.55 0.56,0.55 1.31,0.88 0.78,0.33 0.67,-0.22 0.89,0.88 0.22,1.1 -0.55,1.32 0.33,2.2 0.47,0.46 0.94,0.81 1.4,1.06 1.57,-0.07 3.15,-0.15 4.7,-0.26 0.02,-0.04 0.04,-0.1 0.02,-0.13 -0.17,-0.44 -0.94,0.67 -0.17,-0.44 0.76,-1.11 0.11,-1.77 0.76,-1.11 0.43,0.43 0.76,0.96 1.12,1.57 4.9,-0.37 9.67,-0.9 14.26,-1.58 -1.41,-4.13 -2.86,-8.05 -4.35,-11.73 -0.18,-0.11 -0.36,-0.23 -0.59,-0.33 -1.25,-0.59 -1.54,-1.18 -3.1,-2.5 -1.56,-1.32 -0.35,-3.38 -0.2,-4.63 0.06,-0.43 0.1,-0.87 0.15,-1.28 -0.19,-0.41 -0.38,-0.83 -0.56,-1.24 -0.44,0.45 -1.15,1.32 -2.33,1.48 -1.65,0.22 -0.33,-0.51 -1.07,-1.69 -0.73,-1.17 0.07,-1.76 0.3,-2.28 0.22,-0.51 0.94,-1.17 0.73,-1.32 -0.22,-0.15 -1.02,-0.59 -2.06,-0.59 -1.02,0 -1.68,0.22 -1.83,-1.91 -0.14,-2.13 -1.25,-2.28 -2.2,-3.08 -0.59,-0.5 -1.41,-1.36 -2.22,-2.15 -3.63,0.34 -7.37,0.54 -11.24,0.55 -0.06,1.36 -0.13,2.78 -0.19,4.23 0.57,0.47 1.25,1.2 1.85,1.7 0.66,0.55 1.54,1.11 2.2,1.66z"/>
    <path fill="black" d="M223.97 81.72c0.52,-0.22 1.76,0.29 3.81,1.61 0.81,0.52 1.18,0.71 1.34,0.74 -3.57,-2.68 -6.58,-4.74 -8.86,-6.22 0.89,1.14 1.94,2.56 3.09,4.17 0.19,-0.1 0.4,-0.22 0.61,-0.3z"/>
    <path fill="black" d="M211.85 85.98c0.65,-0.32 2.02,-1.36 2.9,-1.52 0.2,-4.15 0.36,-7.14 0.45,-8.78 -0.82,1.6 -3,5.86 -6.02,12.22 1.39,-1.09 2.15,-1.66 2.67,-1.92z"/>
    <path fill="black" d="M234.1 84.22c1.84,1.25 2.06,1.61 3.09,2.2 1.03,0.59 0.37,0.15 1.32,0.96 0.96,0.81 1.61,1.18 2.42,1.46 0.81,0.3 1.69,0.08 3.52,2.2 1.84,2.14 1.11,0.81 2.2,1.32 0.24,0.11 0.58,0.4 0.98,0.77 2.28,-0.77 4.35,-1.63 6.24,-2.56 -13.61,-7.81 -25.15,-12.01 -31.14,-13.89 -0.54,-0.13 -1.12,-0.27 -1.61,-0.39 2.58,1.68 6.13,4.11 10.33,7.31 0.62,-0.12 1.56,-0.13 2.65,0.61z"/>
    <path fill="black" d="M272.4 88.51c-2.74,-1.3 -5.54,-2.5 -8.37,-3.61 -0.33,0.47 -0.69,0.94 -1.11,1.4 3.55,1.22 7.09,2.5 10.53,3.84 -0.42,-0.53 -0.8,-1.11 -1.05,-1.63z"/>
    <path fill="black" d="M262.34 84.23c-11.12,-4.23 -22.92,-7.07 -35.19,-8.29 8.59,2.12 21.23,5.48 33.93,9.74 0.47,-0.47 0.89,-0.96 1.26,-1.44z"/>
    <path fill="black" d="M220.81 97.76c1.49,-0.06 2.96,-0.16 4.43,-0.28 -0.64,-0.6 -0.39,-0.82 -1.27,-1 -0.87,-0.19 -2.05,0.66 -3.15,1.28z"/>
    <path fill="black" d="M215.43 122c1.7,0 1.7,0 2.37,-0.11 0.66,-0.11 0.11,-1.21 0.22,-1.87 0.11,-0.66 0.33,-1.32 0.89,-1.76 0.55,-0.44 0.88,-0.44 0.88,-1.32 0,-0.88 -1.65,-2.31 -1.65,-2.31 0,0 -0.66,-0.78 -0.99,-0.78 -0.33,0 -0.11,0.22 -0.56,-0.98 -0.44,-1.22 -0.66,-1.99 -1.15,-2.2 -0.02,-0.01 -0.07,-0.04 -0.1,-0.06 -0.15,3.61 -0.3,7.43 -0.45,11.43 0.15,-0.03 0.33,-0.04 0.56,-0.04z"/>
    <path fill="black" d="M126.22 297.74c-12.56,-4.11 -23.4,-9.13 -31.91,-14.87 8.14,13.89 18.62,26.25 30.92,36.5 0.24,-0.19 0.53,-0.31 0.84,-0.2 4.15,1.51 9.39,3.29 15.54,5.08 -6.37,-8.43 -11.5,-17.29 -15.4,-26.5z"/>
    <path fill="black" d="M218.6 96.26c0.07,-1.25 -0.44,-0.59 -0.66,-1.1 -0.22,-0.52 -0.59,-1.4 -0.52,-1.98 0.08,-0.59 0.89,-1.25 1.11,-1.4 0.22,-0.15 1.09,-0.95 1.25,-1.32 0.15,-0.37 -0.08,-0.52 -0.37,-0.81 -0.29,-0.3 -0.07,-1.91 0.52,-2.28 0.58,-0.37 0,-0.96 0,-0.96 0,0 0.22,-0.67 0.29,-0.96 0.08,-0.3 1.4,-0.66 1.62,-0.88 0.17,-0.17 0.48,-0.4 0.78,-0.57 -2.46,-3.53 -4.46,-6.04 -5.7,-7.51 -0.08,1.62 -0.21,4.13 -0.37,7.37 0.12,-0 0.23,-0.02 0.37,0.02 0.78,0.22 1.77,0.44 1.77,1.1 0,0.66 0.1,1.54 0,2.09 -0.11,0.56 -0.89,2.53 -1.21,2.76 -0.27,0.18 -0.94,0.57 -1.26,0.89 -0.1,2.2 -0.21,4.58 -0.33,7.16 1,0 2,-0.03 3,-0.06 -0.24,-0.38 -0.32,-0.96 -0.29,-1.57z"/>
    <path fill="black" d="M213.32 66.05c-81.21,0 -147.28,66.07 -147.28,147.28 0,81.21 66.07,147.28 147.28,147.28 81.22,0 147.29,-66.07 147.29,-147.28 0,-81.21 -66.07,-147.28 -147.29,-147.28zm0 288.57c-77.91,0 -141.3,-63.38 -141.3,-141.29 0,-77.91 63.39,-141.29 141.3,-141.29 77.91,0 141.3,63.38 141.3,141.29 0,77.91 -63.38,141.29 -141.3,141.29z"/>
   </g>
  </g>
 </g>
</svg>
