<?xml version="1.0" encoding="UTF-8"?>
<!DOCTYPE svg PUBLIC "-//W3C//DTD SVG 1.1//EN" "http://www.w3.org/Graphics/SVG/1.1/DTD/svg11.dtd">
<!-- Creator: CorelDRAW 2018 (64-Bit) -->
<svg xmlns="http://www.w3.org/2000/svg" xml:space="preserve" width="0.426661in" height="0.426661in" version="1.1" shape-rendering="geometricPrecision" text-rendering="geometricPrecision" image-rendering="optimizeQuality" fill-rule="evenodd" clip-rule="evenodd"
viewBox="0 0 426.66 426.66"
 xmlns:xlink="http://www.w3.org/1999/xlink">
 <g id="Layer_x0020_1">
  <metadata id="CorelCorpID_0Corel-Layer"/>
  <g id="Pan_Tool.svg">
   <polygon fill="none" points="80,80 346.66,80 346.66,346.66 80,346.66 "/>
   <path fill="black" fill-opacity="0.301961" d="M296.67 142.78c-3.11,0 -5.56,2.44 -5.56,5.56l0 65 -22.22 0 0 -95.33c0,-3.11 -2.44,-5.56 -5.56,-5.56 -3.11,0 -5.56,2.44 -5.56,5.56l0 95.33 -22.22 0 0 -105.44c0,-3.11 -2.44,-5.56 -5.56,-5.56 -3.11,0 -5.56,2.44 -5.56,5.56l0 105.44 -22.22 0 0 -80.11c0,-3.11 -2.44,-5.56 -5.56,-5.56 -3.11,0 -5.56,2.56 -5.56,5.56l0 143 -59.44 -31.44 -5.67 5 65.11 67.78c4.22,4.33 10,6.89 16,6.89l72.89 -0c12.22,0 22.22,-10 22.22,-22.22l0 -153.89c0,-3.11 -2.44,-5.56 -5.56,-5.56z"/>
   <path fill="black" d="M296.67 120.55c-1.89,0 -3.78,0.22 -5.56,0.56l0 -3.11c0,-15.33 -12.44,-27.78 -27.78,-27.78 -3.67,0 -7.22,0.67 -10.44,2 -5,-7.33 -13.44,-12.11 -22.89,-12.11 -14.67,0 -26.78,11.44 -27.67,25.89 -1.78,-0.33 -3.67,-0.56 -5.67,-0.56 -15.33,0 -27.78,12.44 -27.78,27.78l0 106.11 -26.78 -14.22c-8.11,-4.33 -18.22,-3.11 -25.11,3l-23 20.33 81.11 84.56c8.33,8.67 20,13.66 32.11,13.66l72.78 0c24.56,0 44.44,-19.89 44.44,-44.44l0 -153.89c0,-15.33 -12.44,-27.78 -27.78,-27.78l0 0zm5.56 181.67c0,12.22 -10,22.22 -22.22,22.22l-72.78 -0c-6,0 -11.89,-2.44 -16,-6.89l-65.11 -67.89 5.67 -5 59.33 31.56 0 -143c0,-3.11 2.44,-5.56 5.56,-5.56 3.11,0 5.56,2.56 5.56,5.56l0 80.11 22.22 0 0 -105.44c0,-3.11 2.44,-5.56 5.56,-5.56 3.11,0 5.56,2.44 5.56,5.56l0 105.44 22.22 0 0 -95.33c0,-3.11 2.44,-5.56 5.56,-5.56 3.11,0 5.56,2.44 5.56,5.56l0 95.33 22.22 0 0 -65c0,-3.11 2.44,-5.56 5.56,-5.56 3.11,0 5.56,2.44 5.56,5.56l0 153.89z"/>
  </g>
 </g>
</svg>
