<?xml version="1.0" encoding="UTF-8"?>
<!DOCTYPE svg PUBLIC "-//W3C//DTD SVG 1.1//EN" "http://www.w3.org/Graphics/SVG/1.1/DTD/svg11.dtd">
<!-- Creator: CorelDRAW 2018 (64-Bit) -->
<svg xmlns="http://www.w3.org/2000/svg" xml:space="preserve" width="0.426661in" height="0.426661in" version="1.1" shape-rendering="geometricPrecision" text-rendering="geometricPrecision" image-rendering="optimizeQuality" fill-rule="evenodd" clip-rule="evenodd"
viewBox="0 0 426.66 426.66"
 xmlns:xlink="http://www.w3.org/1999/xlink">
 <g id="Layer_x0020_1">
  <metadata id="CorelCorpID_0Corel-Layer"/>
  <g id="_1609867837760">
   <g>
    <path fill="#00AFEF" stroke="#373435" stroke-width="20" stroke-miterlimit="2.61313" d="M175.99 116.67c-33.51,-12.4 -9.62,-50.38 -9.48,-50.99 0.01,-0.05 0.02,-0.11 0.03,-0.15 1.46,-6.87 2.18,-13.38 2.26,-19.58 -0.19,-15.53 -6.34,-25.32 -15.76,-40.13l-147.21 0 0 415.04 249.02 0c0.39,-0.55 1.44,-7.93 1.91,-17.79 -0.72,-23.38 -3.22,-45.36 -9.52,-51.2 -46.14,-42.82 -7.93,-74.6 -26.59,-92.94 -4.13,-4.06 -34.31,-35.02 -35.13,-35.18 -5.06,-24.3 16.78,-97.34 -9.54,-107.07z"/>
    <path fill="#FEFEFE" stroke="#373435" stroke-width="20" stroke-miterlimit="2.61313" d="M159.56 5.81c5.89,12.07 9.39,25.12 9.24,39.92 0,0.07 0,0.14 0,0.21 -0.02,2.06 -0.12,4.16 -0.23,6.3 -0.33,4 -0.99,8.38 -2.04,13.29 -0.01,0.05 -0.02,0.11 -0.03,0.15 -0.06,0.29 -5.31,8.72 -7.47,18.9 -2.46,11.63 -0.89,25.49 16.95,32.09 26.31,9.73 4.48,82.77 9.54,107.07 0.82,0.16 31,31.12 35.13,35.18 18.66,18.34 -19.55,50.12 26.59,92.94 9.41,8.72 10.36,33.81 9.52,51.2 0.18,5.92 0.26,11.93 0.24,17.79l163.87 0 0 -415.04 -261.31 0z"/>
   </g>
   <path fill="#FEFEFE" stroke="#373435" stroke-width="20" stroke-miterlimit="2.61313" d="M168.8 45.73c-0.25,-15.41 -6.39,-25.17 -15.76,-39.91l-147.21 0 0 415.03 249.03 0c0.39,-0.54 1.43,-7.93 1.91,-17.78 -0.73,-23.38 -3.23,-45.36 -9.53,-51.2 -46.14,-42.82 -7.93,-74.61 -26.58,-92.94 -4.14,-4.06 -34.31,-35.02 -35.14,-35.18 -5.05,-24.3 16.78,-97.34 -9.53,-107.07 -33.52,-12.41 -9.62,-50.39 -9.49,-50.99 0.01,-0.05 0.03,-0.11 0.04,-0.16 1.46,-6.87 2.18,-13.39 2.27,-19.58 0,-0.07 -0,-0.15 -0,-0.22z"/>
   <path fill="#FEFEFE" stroke="#373435" stroke-width="20" stroke-miterlimit="2.61313" d="M159.56 5.81c5.89,12.07 9.39,25.12 9.24,39.91 0,0.07 0,0.15 0,0.22 -0.03,2.06 -0.13,4.15 -0.23,6.29 -0.32,4 -0.99,8.38 -2.04,13.29 -0.01,0.05 -0.02,0.11 -0.04,0.16 -0.13,0.6 -24.02,38.58 9.49,50.99 26.31,9.73 4.48,82.77 9.53,107.07 0.83,0.16 31,31.12 35.14,35.18 18.66,18.33 -19.56,50.12 26.58,92.94 9.41,8.72 10.36,33.81 9.53,51.2 0.18,5.91 0.25,11.93 0.23,17.78l163.87 0 0 -415.03 -261.31 0z"/>
   <path fill="none" stroke="#373435" stroke-width="20" stroke-miterlimit="2.61313" d="M189.04 214.95c4.94,-8.67 6.48,-9.72 10.48,-15.44 8.04,-11.48 83.98,-26.2 103.41,-37.08 10.95,-6.13 42.74,-8.89 53.96,-2.45 0.72,0.41 23.47,5.42 32.91,11.28 0.3,0.19 18.65,4.49 24.58,6.42 1.67,0.54 -8.11,3.22 8.11,3.24"/>
  </g>
 </g>
</svg>
