<?xml version="1.0" encoding="UTF-8"?>
<!DOCTYPE svg PUBLIC "-//W3C//DTD SVG 1.1//EN" "http://www.w3.org/Graphics/SVG/1.1/DTD/svg11.dtd">
<!-- Creator: CorelDRAW 2018 (64-Bit) -->
<svg xmlns="http://www.w3.org/2000/svg" xml:space="preserve" width="0.426661in" height="0.426661in" version="1.1" shape-rendering="geometricPrecision" text-rendering="geometricPrecision" image-rendering="optimizeQuality" fill-rule="evenodd" clip-rule="evenodd"
viewBox="0 0 426.66 426.66"
 xmlns:xlink="http://www.w3.org/1999/xlink">
 <g id="Layer_x0020_1">
  <metadata id="CorelCorpID_0Corel-Layer"/>
  <g id="_1609857987264">
   <path fill="#00AFEF" stroke="#373435" stroke-width="6.94" stroke-miterlimit="2.61313" d="M102.5 66.78c-20.19,-7.47 -5.8,-30.35 -5.72,-30.71 0.01,-0.03 0.02,-0.07 0.02,-0.09 0.88,-4.14 1.31,-8.06 1.37,-11.8 -0.11,-9.36 -3.82,-15.25 -9.5,-24.17l-88.67 0 0 250 150 0c0.24,-0.33 0.87,-4.78 1.15,-10.71 -0.44,-14.08 -1.94,-27.32 -5.74,-30.84 -27.79,-25.79 -4.77,-44.94 -16.01,-55.98 -2.49,-2.44 -20.67,-21.09 -21.17,-21.19 -3.04,-14.64 10.11,-58.63 -5.74,-64.5z"/>
   <path fill="#FEFEFE" stroke="#373435" stroke-width="6.94" stroke-miterlimit="2.61313" d="M92.6 0c3.55,7.27 5.66,15.13 5.57,24.04 0,0.04 0,0.08 0,0.13 -0.02,1.24 -0.07,2.5 -0.14,3.79 -0.2,2.41 -0.6,5.05 -1.23,8 -0,0.03 -0.01,0.06 -0.02,0.09 -0.03,0.17 -3.2,5.25 -4.5,11.38 -1.48,7 -0.54,15.35 10.21,19.33 15.85,5.86 2.7,49.86 5.74,64.5 0.5,0.1 18.67,18.74 21.17,21.19 11.24,11.05 -11.78,30.19 16.01,55.98 5.67,5.26 6.24,20.37 5.74,30.84 0.11,3.56 0.15,7.19 0.14,10.71l98.71 0 0 -250 -157.41 0z"/>
   <rect fill="none" stroke="#373435" stroke-width="13.33" stroke-miterlimit="2.61313" x="-0" y="-0.01" width="250" height="250"/>
   <path fill="none" stroke="#373435" stroke-width="13.33" stroke-miterlimit="2.61313" d="M92.6 0c5.06,10.37 7.2,21.94 4.18,36.06 -0.08,0.37 -14.47,23.24 5.72,30.71 15.85,5.86 2.7,49.86 5.74,64.5 0.5,0.1 18.67,18.74 21.17,21.19 11.24,11.05 -11.78,30.19 16.01,55.98 4.76,4.41 5.92,24.08 5.88,41.56"/>
   <path fill="none" stroke="#373435" stroke-width="6.94" stroke-miterlimit="2.61313" d="M88.67 0c7.74,12.17 11.82,18.7 8.11,36.06 -0.08,0.36 -14.47,23.24 5.72,30.71 15.85,5.86 2.7,49.86 5.74,64.5 0.5,0.1 18.67,18.74 21.17,21.19 11.24,11.05 -11.78,30.19 16.01,55.98 8.88,8.24 5.25,40.65 4.59,41.56"/>
   <rect fill="#E6E7E8" stroke="#373435" stroke-width="13.33" stroke-miterlimit="2.61313" x="130" y="205" width="289.69" height="213.33"/>
   <line fill="none" stroke="#373435" stroke-width="6.94" stroke-miterlimit="2.61313" x1="419.69" y1="306.33" x2="130" y2= "306.33" />
   <line fill="none" stroke="#373435" stroke-width="6.94" stroke-miterlimit="2.61313" x1="419.69" y1="333.66" x2="130" y2= "333.66" />
   <line fill="none" stroke="#373435" stroke-width="10" stroke-miterlimit="2.61313" x1="419.69" y1="251.66" x2="130" y2= "251.66" />
   <rect fill="#00AFEF" stroke="#373435" stroke-width="6.94" stroke-miterlimit="2.61313" x="135" y="306.33" width="280" height="27"/>
   <line fill="none" stroke="#373435" stroke-width="6.94" stroke-miterlimit="2.61313" x1="419.69" y1="360.99" x2="130" y2= "360.99" />
   <line fill="none" stroke="#373435" stroke-width="6.94" stroke-miterlimit="2.61313" x1="419.69" y1="388.32" x2="130" y2= "388.32" />
   <line fill="none" stroke="#373435" stroke-width="6.94" stroke-miterlimit="2.61313" x1="419.69" y1="279" x2="130" y2= "279" />
   <line fill="none" stroke="#373435" stroke-width="10" stroke-miterlimit="2.61313" x1="220" y1="251.66" x2="220" y2= "418.33" />
   <line fill="none" stroke="#373435" stroke-width="10" stroke-miterlimit="2.61313" x1="281.66" y1="251.66" x2="281.66" y2= "418.33" />
  </g>
 </g>
</svg>
