<?xml version="1.0" encoding="UTF-8"?>
<!DOCTYPE svg PUBLIC "-//W3C//DTD SVG 1.1//EN" "http://www.w3.org/Graphics/SVG/1.1/DTD/svg11.dtd">
<!-- Creator: CorelDRAW 2018 (64-Bit) -->
<svg xmlns="http://www.w3.org/2000/svg" xml:space="preserve" width="0.426661in" height="0.426661in" version="1.1" shape-rendering="geometricPrecision" text-rendering="geometricPrecision" image-rendering="optimizeQuality" fill-rule="evenodd" clip-rule="evenodd"
viewBox="0 0 426.66 426.66"
 xmlns:xlink="http://www.w3.org/1999/xlink">
 <g id="Layer_x0020_1">
  <metadata id="CorelCorpID_0Corel-Layer"/>
  <rect fill="#91D8F7" x="8.14" y="46.65" width="412.66" height="203.33"/>
  <rect fill="#D2D3D5" x="5.81" y="5.7" width="412.66" height="34.56"/>
  <polygon fill="none" stroke="#373435" stroke-width="10" stroke-miterlimit="2.61313" points="6.67,6.56 420,6.56 420,40.17 420,40.18 7.34,40.18 420,40.18 420,74.74 420,74.75 7.34,74.75 420,74.75 420,109.3 420,109.31 7.34,109.31 420,109.31 420,143.85 420,143.86 7.34,143.86 420,143.86 420,178.41 420,178.42 7.34,178.42 420,178.42 420,212.96 420,212.97 7.34,212.97 420,212.97 420,250 8.33,250 "/>
  <line fill="none" stroke="#373435" stroke-width="6.94" stroke-miterlimit="2.61313" x1="8.33" y1="46.67" x2="420" y2= "46.67" />
 </g>
</svg>
