<?xml version="1.0" encoding="UTF-8"?>
<!DOCTYPE svg PUBLIC "-//W3C//DTD SVG 1.1//EN" "http://www.w3.org/Graphics/SVG/1.1/DTD/svg11.dtd">
<!-- Creator: CorelDRAW 2018 (64-Bit) -->
<svg xmlns="http://www.w3.org/2000/svg" xml:space="preserve" width="0.426661in" height="0.426661in" version="1.1" shape-rendering="geometricPrecision" text-rendering="geometricPrecision" image-rendering="optimizeQuality" fill-rule="evenodd" clip-rule="evenodd"
viewBox="0 0 426.66 426.66"
 xmlns:xlink="http://www.w3.org/1999/xlink">
 <g id="Layer_x0020_1">
  <metadata id="CorelCorpID_0Corel-Layer"/>
  <g id="_1609857580960">
   <g>
    <g>
     <path fill="#00AFEF" stroke="#373435" stroke-width="20" stroke-miterlimit="2.61313" d="M252.65 83.63c-22.19,-8.21 -6.37,-33.35 -6.28,-33.76 0,-0.03 0.02,-0.07 0.02,-0.1 0.97,-4.55 1.44,-8.86 1.5,-12.96 -0.13,-10.28 -4.2,-16.76 -10.43,-26.57l-97.45 0 0 274.76 164.85 0c0.26,-0.36 0.95,-5.25 1.26,-11.77 -0.48,-15.48 -2.14,-30.03 -6.31,-33.9 -30.54,-28.35 -5.24,-49.39 -17.6,-61.53 -2.74,-2.69 -22.71,-23.18 -23.26,-23.29 -3.35,-16.09 11.11,-64.44 -6.31,-70.88z"/>
     <path fill="#FEFEFE" stroke="#373435" stroke-width="20" stroke-miterlimit="2.61313" d="M241.77 10.24c3.9,8 6.22,16.63 6.12,26.43 0,0.05 0,0.09 0,0.14 -0.02,1.36 -0.08,2.75 -0.15,4.17 -0.22,2.65 -0.65,5.54 -1.35,8.8 -0,0.03 -0.02,0.07 -0.02,0.1 -0.04,0.19 -3.52,5.77 -4.94,12.51 -1.63,7.7 -0.59,16.87 11.22,21.24 17.42,6.44 2.96,54.8 6.31,70.88 0.54,0.11 20.52,20.6 23.26,23.29 12.35,12.14 -12.94,33.18 17.6,61.53 6.23,5.78 6.86,22.38 6.31,33.9 0.12,3.91 0.17,7.89 0.16,11.77l108.48 0 0 -274.76 -172.99 0z"/>
    </g>
    <path fill="#FEFEFE" stroke="#373435" stroke-width="20" stroke-miterlimit="2.61313" d="M247.88 36.66c-0.16,-10.2 -4.22,-16.67 -10.43,-26.42l-97.45 0 0 274.75 164.85 0c0.26,-0.36 0.95,-5.25 1.27,-11.78 -0.48,-15.47 -2.13,-30.03 -6.31,-33.89 -30.54,-28.35 -5.24,-49.39 -17.6,-61.53 -2.74,-2.69 -22.71,-23.18 -23.26,-23.29 -3.34,-16.09 11.11,-64.44 -6.31,-70.88 -22.19,-8.21 -6.37,-33.35 -6.28,-33.75 0.01,-0.04 0.02,-0.07 0.02,-0.11 0.97,-4.55 1.44,-8.86 1.5,-12.96 0,-0.05 -0,-0.1 -0,-0.15z"/>
    <path fill="#FEFEFE" stroke="#373435" stroke-width="20" stroke-miterlimit="2.61313" d="M241.77 10.24c3.9,7.99 6.22,16.63 6.11,26.42 0,0.05 0,0.1 0,0.15 -0.02,1.36 -0.08,2.75 -0.15,4.17 -0.21,2.65 -0.65,5.55 -1.35,8.8 -0,0.03 -0.02,0.07 -0.02,0.11 -0.09,0.4 -15.91,25.54 6.28,33.75 17.42,6.44 2.96,54.8 6.31,70.88 0.55,0.11 20.52,20.6 23.26,23.29 12.35,12.14 -12.94,33.18 17.6,61.53 6.23,5.78 6.86,22.38 6.31,33.89 0.12,3.92 0.17,7.9 0.16,11.78l108.48 0 0 -274.75 -172.99 0z"/>
    <path fill="none" stroke="#373435" stroke-width="20" stroke-miterlimit="2.61313" d="M261.28 148.69c3.27,-5.74 4.29,-6.44 6.94,-10.22 5.32,-7.61 55.59,-17.35 68.46,-24.55 7.25,-4.06 28.3,-5.89 35.72,-1.63 0.48,0.27 15.54,3.59 21.79,7.46 0.2,0.13 12.35,2.98 16.27,4.25 1.11,0.36 -5.37,2.13 5.37,2.15"/>
   </g>
   <path fill="#00AFEF" stroke="#373435" stroke-width="6.94" stroke-miterlimit="2.61313" d="M258.95 154.51c-3.34,-16.09 11.11,-64.44 -6.31,-70.88 -12.78,-4.73 -12.95,-15.09 -10.78,-23.09 1.5,-5.53 4.11,-9.96 4.48,-10.68 0.03,-0.05 0.04,-0.08 0.04,-0.09 0,-0.02 0.01,-0.04 0.01,-0.05l1.45 -12.3c0,-0.26 0.01,-0.51 0.01,-0.76 0,-0.33 0,-0.65 -0,-0.97 -0,-0.12 -0,-0.24 -0.01,-0.36 -0.22,-4.28 -1.15,-7.91 -2.66,-11.47 -1.48,-3.37 -3.62,-7.08 -6.56,-11.78 -0.38,-0.6 -0.77,-1.21 -1.17,-1.84l-97.45 0 0 274.75 164.86 0c2.07,-2.89 1.68,-39.43 -5.04,-45.67 -30.54,-28.35 -5.24,-49.39 -17.59,-61.53 -2.74,-2.69 -22.71,-23.18 -23.26,-23.29z"/>
   <g>
    <path fill="#FEFEFE" stroke="#373435" stroke-width="26.67" stroke-miterlimit="2.61313" d="M136.85 380.54c32.72,0 62.35,-13.26 83.8,-34.71 21.45,-21.44 34.71,-51.07 34.71,-83.8 0,-65.46 -53.06,-118.52 -118.51,-118.52 -65.46,0 -118.52,53.06 -118.52,118.52 0,65.45 53.06,118.51 118.52,118.51z"/>
    <g id="Zoom_In.svg">
     <g>
      <circle fill="none" stroke="black" stroke-width="26.67" stroke-linecap="round" stroke-linejoin="round" stroke-miterlimit="2.61313" cx="136.85" cy="262.02" r="118.52"/>
      <path fill="none" stroke="black" stroke-width="26.67" stroke-linecap="round" stroke-linejoin="round" stroke-miterlimit="2.61313" d="M285 410.17l-64.44 -64.44m-83.7 -128.15l0 88.89m-44.44 -44.44l88.89 0"/>
     </g>
    </g>
   </g>
  </g>
 </g>
</svg>
